<?xml version="1.0" encoding="utf-8"?>
<!-- Generator: Adobe Illustrator 20.0.0, SVG Export Plug-In . SVG Version: 6.00 Build 0)  -->
<svg version="1.1" id="Layer_1" xmlns="http://www.w3.org/2000/svg" xmlns:xlink="http://www.w3.org/1999/xlink" x="0px" y="0px"
	 viewBox="0 0 605.8 573.1" style="enable-background:new 0 0 605.8 573.1;" xml:space="preserve">
<style type="text/css">
	.st0{font-family:'MyriadPro-Regular';}
	.st1{font-size:50px;}
	.st2{fill-rule:evenodd;clip-rule:evenodd;fill:#6BA95E;}
	.st3{fill:none;stroke:#000000;stroke-width:0.2011;stroke-miterlimit:22.9256;}
	.st4{fill-rule:evenodd;clip-rule:evenodd;fill:#FFFFFF;}
	.st5{fill:none;stroke:#5262A8;stroke-width:0.2011;stroke-miterlimit:22.9256;}
	.st6{fill-rule:evenodd;clip-rule:evenodd;fill:#5262A8;}
	.st7{fill-rule:evenodd;clip-rule:evenodd;fill:#B4B5DA;}
	.st8{fill:none;stroke:#000000;stroke-width:0.5279;stroke-miterlimit:22.9256;}
	.st9{clip-path:url(#SVGID_2_);}
	.st10{clip-path:url(#SVGID_4_);}
	.st11{font-family:'Arial-ItalicMT';}
	.st12{font-size:17.9608px;}
</style>
<text transform="matrix(1 0 0 1 280.7691 536.7667)" class="st0 st1">A</text>
<text transform="matrix(1 0 0 1 531.7691 314.7686)" class="st0 st1">B</text>
<text transform="matrix(1 0 0 1 256.7691 86.7705)" class="st0 st1">C</text>
<text transform="matrix(1 0 0 1 85 205)" class="st0 st1">d</text>
<text transform="matrix(1 0 0 1 35.7691 324.7686)" class="st0 st1">D</text>
<path class="st2" d="M434.4,340.8L202,403.4V294V184.5l232.3,62.6V294V340.8z M172,294v146.1l292.3-78.7V294v-67.4L172,147.8V294z"
	/>
<path class="st3" d="M434.4,340.8L202,403.4V294V184.5l232.3,62.6V294V340.8z M172,294v146.1l292.3-78.7V294v-67.4L172,147.8V294z"
	/>
<path class="st4" d="M182.8,303.8v-7.5c0-2.3,1.9-4.2,4.2-4.2c2.3,0,4.2,1.9,4.2,4.2v7.5c0,2.3-1.9,4.2-4.2,4.2l0,0
	C184.7,308.1,182.8,306.2,182.8,303.8z M182.8,243.3v-7.5c0-2.3,1.9-4.2,4.2-4.2c2.3,0,4.2,1.9,4.2,4.2v7.5c0,2.3-1.9,4.2-4.2,4.2
	l0,0C184.7,247.6,182.8,245.7,182.8,243.3z M182.8,182.9v-7.5c0-2.3,1.9-4.2,4.2-4.2c2.3,0,4.2,1.9,4.2,4.2v7.5
	c0,2.3-1.9,4.2-4.2,4.2l0,0C184.7,187.1,182.8,185.2,182.8,182.9z M182.8,424.8v-7.5c0-2.3,1.9-4.2,4.2-4.2c2.3,0,4.2,1.9,4.2,4.2
	v7.5c0,2.3-1.9,4.2-4.2,4.2l0,0C184.7,429,182.8,427.1,182.8,424.8z M182.8,364.3v-7.5c0-2.3,1.9-4.2,4.2-4.2c2.3,0,4.2,1.9,4.2,4.2
	v7.5c0,2.3-1.9,4.2-4.2,4.2l0,0C184.7,368.5,182.8,366.6,182.8,364.3z"/>
<path class="st3" d="M182.8,303.8v-7.5c0-2.3,1.9-4.2,4.2-4.2c2.3,0,4.2,1.9,4.2,4.2v7.5c0,2.3-1.9,4.2-4.2,4.2l0,0
	C184.7,308.1,182.8,306.2,182.8,303.8z M182.8,243.3v-7.5c0-2.3,1.9-4.2,4.2-4.2c2.3,0,4.2,1.9,4.2,4.2v7.5c0,2.3-1.9,4.2-4.2,4.2
	l0,0C184.7,247.6,182.8,245.7,182.8,243.3z M182.8,182.9v-7.5c0-2.3,1.9-4.2,4.2-4.2c2.3,0,4.2,1.9,4.2,4.2v7.5
	c0,2.3-1.9,4.2-4.2,4.2l0,0C184.7,187.1,182.8,185.2,182.8,182.9z M182.8,424.8v-7.5c0-2.3,1.9-4.2,4.2-4.2c2.3,0,4.2,1.9,4.2,4.2
	v7.5c0,2.3-1.9,4.2-4.2,4.2l0,0C184.7,429,182.8,427.1,182.8,424.8z M182.8,364.3v-7.5c0-2.3,1.9-4.2,4.2-4.2c2.3,0,4.2,1.9,4.2,4.2
	v7.5c0,2.3-1.9,4.2-4.2,4.2l0,0C184.7,368.5,182.8,366.6,182.8,364.3z"/>
<path class="st4" d="M445.6,267.5V260c0-2.3,1.9-4.2,4.2-4.2c2.3,0,4.2,1.9,4.2,4.2v7.5c0,2.3-1.9,4.2-4.2,4.2l0,0
	C447.5,271.8,445.6,269.8,445.6,267.5z M445.6,328v-7.5c0-2.3,1.9-4.2,4.2-4.2c2.3,0,4.2,1.9,4.2,4.2v7.5c0,2.3-1.9,4.2-4.2,4.2l0,0
	C447.5,332.2,445.6,330.3,445.6,328z"/>
<path class="st3" d="M445.6,267.5V260c0-2.3,1.9-4.2,4.2-4.2c2.3,0,4.2,1.9,4.2,4.2v7.5c0,2.3-1.9,4.2-4.2,4.2l0,0
	C447.5,271.8,445.6,269.8,445.6,267.5z M445.6,328v-7.5c0-2.3,1.9-4.2,4.2-4.2c2.3,0,4.2,1.9,4.2,4.2v7.5c0,2.3-1.9,4.2-4.2,4.2l0,0
	C447.5,332.2,445.6,330.3,445.6,328z"/>
<line class="st5" x1="521" y1="147.8" x2="488.5" y2="147.8"/>
<line class="st5" x1="77.6" y1="440.1" x2="105.8" y2="440.1"/>
<line class="st5" x1="91.2" y1="233.7" x2="91.2" y2="147.8"/>
<polygon class="st6" points="88.5,157.7 91.2,147.8 93.8,157.7 "/>
<line class="st5" x1="91.2" y1="440.1" x2="91.2" y2="356.3"/>
<polygon class="st6" points="88.5,430.3 91.2,440.1 93.8,430.3 "/>
<path class="st7" d="M91.3,355.2L91.3,355.2c7.4,0,13.5-6.1,13.5-13.5v-95.5c0-7.4-6.1-13.5-13.5-13.5c-7.4,0-13.5,6.1-13.5,13.5
	v95.5C77.8,349.2,83.9,355.2,91.3,355.2"/>
<line class="st5" x1="474.4" y1="181.8" x2="465.1" y2="213"/>
<line class="st5" x1="410.6" y1="104.4" x2="418.7" y2="131.5"/>
<line class="st5" x1="384.2" y1="175" x2="469.3" y2="199"/>
<polygon class="st6" points="460.6,193.8 469.3,199 459.1,198.9 "/>
<line class="st5" x1="414.5" y1="117.4" x2="331.5" y2="140.8"/>
<polygon class="st6" points="404.3,117.6 414.5,117.4 405.8,122.6 "/>
<path class="st7" d="M263.8,141.2L263.8,141.2c-2.1,7.1,2,14.7,9.2,16.7l95.3,26.8c7.2,2,14.8-2.2,16.9-9.3c2.1-7.1-2-14.7-9.2-16.7
	l-95.3-26.8C273.6,129.9,265.9,134.1,263.8,141.2"/>
<line class="st5" x1="474.4" y1="404.5" x2="465.1" y2="373.3"/>
<line class="st5" x1="183.7" y1="482" x2="175.6" y2="454.9"/>
<line class="st5" x1="384.2" y1="411.1" x2="469.3" y2="387.1"/>
<polygon class="st6" points="459.1,387.2 469.3,387.1 460.6,392.3 "/>
<line class="st5" x1="179.8" y1="469" x2="262.8" y2="445.6"/>
<polygon class="st6" points="405.8,463.7 414.5,469 404.3,468.8 "/>
<path class="st7" d="M263.8,444.9L263.8,444.9c-2.1-7.1,2-14.7,9.2-16.7l95.3-26.8c7.2-2,14.8,2.2,16.9,9.3c2.1,7.1-2,14.7-9.2,16.7
	l-95.3,26.8C273.6,456.2,265.9,452,263.8,444.9"/>
<line class="st5" x1="474.2" y1="226.6" x2="506.7" y2="226.6"/>
<line class="st5" x1="478.5" y1="361.4" x2="506.7" y2="361.4"/>
<line class="st5" x1="492.1" y1="266.2" x2="492.1" y2="226.6"/>
<polygon class="st6" points="489.5,236.4 492.1,226.6 494.7,236.4 "/>
<line class="st5" x1="492.1" y1="361.4" x2="492.1" y2="322.7"/>
<polygon class="st6" points="489.5,351.5 492.1,361.4 494.7,351.5 "/>
<path class="st7" d="M492.2,322.7L492.2,322.7c7.4,0,13.5-6.1,13.5-13.5v-31.5c0-7.4-6.1-13.5-13.5-13.5c-7.4,0-13.5,6.1-13.5,13.5
	v31.5C478.7,316.6,484.8,322.7,492.2,322.7"/>
<line class="st8" x1="464.3" y1="226.6" x2="172" y2="226.6"/>
<line class="st5" x1="474.4" y1="147.8" x2="441.9" y2="147.8"/>
<line class="st5" x1="124.1" y1="226.6" x2="152.3" y2="226.6"/>
<line class="st5" x1="137.7" y1="187.5" x2="137.7" y2="147.8"/>
<polygon class="st6" points="135.1,157.7 137.7,147.8 140.4,157.7 "/>
<line class="st5" x1="137.7" y1="226.6" x2="137.7" y2="187.9"/>
<polygon class="st6" points="135.1,216.7 137.7,226.6 140.4,216.7 "/>
<path class="st7" d="M137.9,209.9L137.9,209.9c7.4,0,13.5-6.1,13.5-13.5v-15.9c0-7.4-6.1-13.5-13.5-13.5c-7.4,0-13.5,6.1-13.5,13.5
	v15.9C124.3,203.8,130.4,209.9,137.9,209.9"/>
<g>
	<defs>
		<rect id="SVGID_1_" x="193.2" y="205.5" width="76.9" height="20.4"/>
	</defs>
	<clipPath id="SVGID_2_">
		<use xlink:href="#SVGID_1_"  style="overflow:visible;"/>
	</clipPath>
	<g class="st9">
		<defs>
			<rect id="SVGID_3_" x="193.2" y="205.5" width="76.9" height="20.4"/>
		</defs>
		<clipPath id="SVGID_4_">
			<use xlink:href="#SVGID_3_"  style="overflow:visible;"/>
		</clipPath>
		<g class="st10">
			<defs>
				<rect id="SVGID_5_" x="193.2" y="205.5" width="76.9" height="20.6"/>
			</defs>
			<clipPath id="SVGID_6_">
				<use xlink:href="#SVGID_5_"  style="overflow:visible;"/>
			</clipPath>
			<g style="clip-path:url(#SVGID_6_);">
				
					<image style="overflow:visible;" width="344" height="92" xlink:href="DFE68750.jpg"  transform="matrix(-0.2236 0 0 0.2244 270.1513 205.5056)">
				</image>
			</g>
		</g>
	</g>
</g>
<text transform="matrix(-1 0 0 1 253.7341 241.0407)" class="st11 st12">Level</text>
</svg>
