<?xml version="1.0" encoding="utf-8"?>
<!-- Generator: Adobe Illustrator 20.0.0, SVG Export Plug-In . SVG Version: 6.00 Build 0)  -->
<svg version="1.1" id="Layer_1" xmlns="http://www.w3.org/2000/svg" xmlns:xlink="http://www.w3.org/1999/xlink" x="0px" y="0px"
	 viewBox="0 0 605.8 573.1" style="enable-background:new 0 0 605.8 573.1;" xml:space="preserve">
<style type="text/css">
	.st0{font-family:'MyriadPro-Regular';}
	.st1{font-size:50px;}
	.st2{fill-rule:evenodd;clip-rule:evenodd;fill:#6BA95E;}
	.st3{fill:none;stroke:#000000;stroke-width:0.216;stroke-miterlimit:22.9256;}
	.st4{fill-rule:evenodd;clip-rule:evenodd;fill:#FFFFFF;}
	.st5{fill:none;stroke:#5262A8;stroke-width:0.216;stroke-miterlimit:22.9256;}
	.st6{fill-rule:evenodd;clip-rule:evenodd;fill:#5262A8;}
	.st7{fill-rule:evenodd;clip-rule:evenodd;fill:#B4B5DA;}
	.st8{fill:none;stroke:#000000;stroke-width:0.5669;stroke-miterlimit:22.9256;}
	.st9{clip-path:url(#SVGID_2_);}
	.st10{clip-path:url(#SVGID_4_);}
	.st11{font-family:'Arial-ItalicMT';}
	.st12{font-size:19.287px;}
</style>
<text transform="matrix(1 0 0 1 280.7691 566.7686)" class="st0 st1">A</text>
<text transform="matrix(1 0 0 1 531.7691 314.7686)" class="st0 st1">B</text>
<text transform="matrix(1 0 0 1 256.7691 56.7686)" class="st0 st1">C</text>
<text transform="matrix(1 0 0 1 460.7691 190)" class="st0 st1">b</text>
<text transform="matrix(1 0 0 1 35.7691 324.7686)" class="st0 st1">D</text>
<g>
	<g>
		<path class="st2" d="M123.2,368.4v117.5l249.5-67.2v-50.3v-40v-10.3v-30.7h0v-3.5v-15.4V166.3l-249.5,67.2v17.3v17.5h0v96.5V368.4
			z M404.9,283.8V296v144.8L91,525.3V368.4v-12.2v-72.4v-72.4l313.9-84.6V283.8z"/>
		<path class="st3" d="M123.2,368.4v117.5l249.5-67.2v-50.3v-40v-10.3v-30.7h0v-3.5v-15.4V166.3l-249.5,67.2v17.3v17.5h0v96.5V368.4
			z M404.9,283.8V296v144.8L91,525.3V368.4v-12.2v-72.4v-72.4l313.9-84.6V283.8z"/>
		<path class="st4" d="M393.4,294.4v-8.1c0-2.5-2-4.6-4.6-4.6c-2.5,0-4.6,2-4.6,4.6v8.1c0,2.5,2,4.6,4.6,4.6l0,0
			C391.3,299,393.4,296.9,393.4,294.4z M393.4,229.5v-8.1c0-2.5-2-4.6-4.6-4.6c-2.5,0-4.6,2-4.6,4.6v8.1c0,2.5,2,4.6,4.6,4.6l0,0
			C391.3,234,393.4,232,393.4,229.5z M393.4,164.5v-8.1c0-2.5-2-4.6-4.6-4.6c-2.5,0-4.6,2-4.6,4.6v8.1c0,2.5,2,4.6,4.6,4.6l0,0
			C391.3,169.1,393.4,167.1,393.4,164.5z M393.4,424.3v-8.1c0-2.5-2-4.6-4.6-4.6c-2.5,0-4.6,2-4.6,4.6v8.1c0,2.5,2,4.6,4.6,4.6l0,0
			C391.3,428.8,393.4,426.8,393.4,424.3z M393.4,359.4v-8.1c0-2.5-2-4.6-4.6-4.6c-2.5,0-4.6,2-4.6,4.6v8.1c0,2.5,2,4.6,4.6,4.6l0,0
			C391.3,363.9,393.4,361.9,393.4,359.4z"/>
		<path class="st3" d="M393.4,294.4v-8.1c0-2.5-2-4.6-4.6-4.6c-2.5,0-4.6,2-4.6,4.6v8.1c0,2.5,2,4.6,4.6,4.6l0,0
			C391.3,299,393.4,296.9,393.4,294.4z M393.4,229.5v-8.1c0-2.5-2-4.6-4.6-4.6c-2.5,0-4.6,2-4.6,4.6v8.1c0,2.5,2,4.6,4.6,4.6l0,0
			C391.3,234,393.4,232,393.4,229.5z M393.4,164.5v-8.1c0-2.5-2-4.6-4.6-4.6c-2.5,0-4.6,2-4.6,4.6v8.1c0,2.5,2,4.6,4.6,4.6l0,0
			C391.3,169.1,393.4,167.1,393.4,164.5z M393.4,424.3v-8.1c0-2.5-2-4.6-4.6-4.6c-2.5,0-4.6,2-4.6,4.6v8.1c0,2.5,2,4.6,4.6,4.6l0,0
			C391.3,428.8,393.4,426.8,393.4,424.3z M393.4,359.4v-8.1c0-2.5-2-4.6-4.6-4.6c-2.5,0-4.6,2-4.6,4.6v8.1c0,2.5,2,4.6,4.6,4.6l0,0
			C391.3,363.9,393.4,361.9,393.4,359.4z"/>
		<path class="st4" d="M110.6,368.1V360c0-2.5-2-4.6-4.6-4.6c-2.5,0-4.6,2-4.6,4.6v8.1c0,2.5,2,4.6,4.6,4.6l0,0
			C108.6,372.7,110.6,370.6,110.6,368.1z M110.6,303.2v-8.1c0-2.5-2-4.6-4.6-4.6c-2.5,0-4.6,2-4.6,4.6v8.1c0,2.5,2,4.6,4.6,4.6l0,0
			C108.6,307.7,110.6,305.7,110.6,303.2z M110.6,238.2v-8.1c0-2.5-2-4.6-4.6-4.6c-2.5,0-4.6,2-4.6,4.6v8.1c0,2.5,2,4.6,4.6,4.6l0,0
			C108.6,242.8,110.6,240.8,110.6,238.2z M110.6,498v-8.1c0-2.5-2-4.6-4.6-4.6c-2.5,0-4.6,2-4.6,4.6v8.1c0,2.5,2,4.6,4.6,4.6l0,0
			C108.6,502.5,110.6,500.5,110.6,498z M110.6,433.1V425c0-2.5-2-4.6-4.6-4.6c-2.5,0-4.6,2-4.6,4.6v8.1c0,2.5,2,4.6,4.6,4.6l0,0
			C108.6,437.6,110.6,435.6,110.6,433.1z"/>
		<path class="st3" d="M110.6,368.1V360c0-2.5-2-4.6-4.6-4.6c-2.5,0-4.6,2-4.6,4.6v8.1c0,2.5,2,4.6,4.6,4.6l0,0
			C108.6,372.7,110.6,370.6,110.6,368.1z M110.6,303.2v-8.1c0-2.5-2-4.6-4.6-4.6c-2.5,0-4.6,2-4.6,4.6v8.1c0,2.5,2,4.6,4.6,4.6l0,0
			C108.6,307.7,110.6,305.7,110.6,303.2z M110.6,238.2v-8.1c0-2.5-2-4.6-4.6-4.6c-2.5,0-4.6,2-4.6,4.6v8.1c0,2.5,2,4.6,4.6,4.6l0,0
			C108.6,242.8,110.6,240.8,110.6,238.2z M110.6,498v-8.1c0-2.5-2-4.6-4.6-4.6c-2.5,0-4.6,2-4.6,4.6v8.1c0,2.5,2,4.6,4.6,4.6l0,0
			C108.6,502.5,110.6,500.5,110.6,498z M110.6,433.1V425c0-2.5-2-4.6-4.6-4.6c-2.5,0-4.6,2-4.6,4.6v8.1c0,2.5,2,4.6,4.6,4.6l0,0
			C108.6,437.6,110.6,435.6,110.6,433.1z"/>
		<line class="st5" x1="510.9" y1="126.9" x2="476" y2="126.9"/>
		<line class="st5" x1="506.3" y1="440.8" x2="476" y2="440.8"/>
		<line class="st5" x1="491.7" y1="219.2" x2="491.7" y2="126.9"/>
		<polygon class="st6" points="488.9,137.5 491.7,126.9 494.6,137.5 		"/>
		<line class="st5" x1="491.7" y1="440.8" x2="491.7" y2="350.8"/>
		<polygon class="st6" points="488.9,430.2 491.7,440.8 494.6,430.2 		"/>
		<path class="st7" d="M491.6,349.6L491.6,349.6c-8,0-14.5-6.5-14.5-14.5V232.6c0-8,6.5-14.5,14.5-14.5c8,0,14.5,6.5,14.5,14.5
			v102.5C506.1,343.1,499.6,349.6,491.6,349.6"/>
		<line class="st5" x1="80.2" y1="163.4" x2="90.2" y2="196.9"/>
		<line class="st5" x1="392.4" y1="80.2" x2="401.1" y2="109.3"/>
		<line class="st5" x1="177.1" y1="156.1" x2="85.7" y2="181.9"/>
		<polygon class="st6" points="96.6,181.7 85.7,181.9 95.1,176.3 		"/>
		<line class="st5" x1="396.6" y1="94.3" x2="307.4" y2="119.4"/>
		<polygon class="st6" points="387.2,99.9 396.6,94.3 385.6,94.4 		"/>
		<path class="st7" d="M306.3,119.8L306.3,119.8c2.3,7.7-2.1,15.7-9.9,17.9l-102.3,28.8c-7.7,2.2-15.9-2.3-18.2-10
			c-2.3-7.7,2.1-15.7,9.9-17.9l102.3-28.8C295.9,107.7,304.1,112.2,306.3,119.8"/>
		<line class="st8" x1="91" y1="211.5" x2="404.9" y2="211.5"/>
		<line class="st5" x1="460.9" y1="126.9" x2="426" y2="126.9"/>
		<line class="st5" x1="456.4" y1="211.5" x2="426" y2="211.5"/>
		<line class="st5" x1="441.7" y1="169.5" x2="441.7" y2="126.9"/>
		<polygon class="st6" points="438.9,137.5 441.7,126.9 444.6,137.5 		"/>
		<line class="st5" x1="441.7" y1="211.5" x2="441.7" y2="169.9"/>
		<polygon class="st6" points="438.9,200.9 441.7,211.5 444.6,200.9 		"/>
		<path class="st7" d="M441.6,193.6L441.6,193.6c-8,0-14.5-6.5-14.5-14.5V162c0-8,6.5-14.5,14.5-14.5s14.5,6.5,14.5,14.5V179
			C456.1,187,449.6,193.6,441.6,193.6"/>
		<g>
			<defs>
				<rect id="SVGID_1_" x="299.5" y="188.8" width="82.6" height="21.9"/>
			</defs>
			<clipPath id="SVGID_2_">
				<use xlink:href="#SVGID_1_"  style="overflow:visible;"/>
			</clipPath>
			<g class="st9">
				<defs>
					<rect id="SVGID_3_" x="299.5" y="188.8" width="82.6" height="21.9"/>
				</defs>
				<clipPath id="SVGID_4_">
					<use xlink:href="#SVGID_3_"  style="overflow:visible;"/>
				</clipPath>
				<g class="st10">
					<defs>
						<rect id="SVGID_5_" x="299.5" y="188.8" width="82.6" height="22.2"/>
					</defs>
					<clipPath id="SVGID_6_">
						<use xlink:href="#SVGID_5_"  style="overflow:visible;"/>
					</clipPath>
					<g style="clip-path:url(#SVGID_6_);">
						
							<image style="overflow:visible;" width="344" height="92" xlink:href="9085376A.jpg"  transform="matrix(0.2401 0 0 0.241 299.543 188.8453)">
						</image>
					</g>
				</g>
			</g>
		</g>
		<text transform="matrix(-1 0 0 1 364.9334 227.0046)" class="st11 st12">Level</text>
	</g>
</g>
</svg>
