<?xml version="1.0" encoding="utf-8"?>
<!-- Generator: Adobe Illustrator 20.0.0, SVG Export Plug-In . SVG Version: 6.00 Build 0)  -->
<svg version="1.1" id="Layer_1" xmlns="http://www.w3.org/2000/svg" xmlns:xlink="http://www.w3.org/1999/xlink" x="0px" y="0px"
	 viewBox="0 0 605.8 573.1" style="enable-background:new 0 0 605.8 573.1;" xml:space="preserve">
<style type="text/css">
	.st0{font-family:'MyriadPro-Regular';}
	.st1{font-size:50px;}
	.st2{fill-rule:evenodd;clip-rule:evenodd;fill:#6BA95E;}
	.st3{fill:none;stroke:#000000;stroke-width:0.2225;stroke-miterlimit:22.9256;}
	.st4{fill-rule:evenodd;clip-rule:evenodd;fill:#FFFFFF;}
	.st5{fill:none;stroke:#5262A8;stroke-width:0.2225;stroke-miterlimit:22.9256;}
	.st6{fill-rule:evenodd;clip-rule:evenodd;fill:#5262A8;}
	.st7{fill-rule:evenodd;clip-rule:evenodd;fill:#B4B5DA;}
</style>
<text transform="matrix(1 0 0 1 280.7691 566.7686)" class="st0 st1">A</text>
<text transform="matrix(1 0 0 1 531.7691 314.7686)" class="st0 st1">B</text>
<text transform="matrix(1 0 0 1 256.7691 56.7686)" class="st0 st1">C</text>
<text transform="matrix(1 0 0 1 35.7691 324.7686)" class="st0 st1">D</text>
<polygon class="st2" points="458.5,129.3 371.4,452.6 135.2,452.6 135.2,129.3 "/>
<polygon class="st3" points="458.5,129.3 371.4,452.6 135.2,452.6 135.2,129.3 "/>
<polygon class="st4" points="417.9,162.5 168.1,162.5 168.1,419.5 348.7,419.5 "/>
<polygon class="st3" points="417.9,162.5 168.1,162.5 168.1,419.5 348.7,419.5 "/>
<path class="st4" d="M403.8,277.7L403.8,277.7c-2.5-0.7-5.1,0.8-5.7,3.3l-2.1,8.1c-0.7,2.5,0.8,5.1,3.3,5.7c2.5,0.7,5.1-0.8,5.7-3.3
	l2.1-8.1C407.8,280.9,406.3,278.3,403.8,277.7z M386.8,342.4L386.8,342.4c-2.5-0.7-5.1,0.8-5.7,3.3l-2.1,8.1
	c-0.7,2.5,0.8,5.1,3.3,5.7c2.5,0.7,5.1-0.8,5.7-3.3l2.1-8.1C390.8,345.6,389.3,343,386.8,342.4z M369.7,407.1L369.7,407.1
	c-2.5-0.7-5.1,0.8-5.7,3.3l-2.1,8.1c-0.7,2.5,0.8,5.1,3.3,5.7c2.5,0.7,5.1-0.8,5.7-3.3l2.1-8.1C373.7,410.3,372.2,407.7,369.7,407.1
	z M438,148.3L438,148.3c-2.5-0.7-5.1,0.8-5.7,3.3l-2.1,8.1c-0.7,2.5,0.8,5.1,3.3,5.7c2.5,0.7,5.1-0.8,5.7-3.3l2.1-8.1
	C442,151.6,440.5,149,438,148.3z M420.9,213L420.9,213c-2.5-0.7-5.1,0.8-5.7,3.3l-2.1,8.1c-0.7,2.5,0.8,5.1,3.3,5.7
	c2.5,0.7,5.1-0.8,5.7-3.3l2.1-8.1C424.9,216.2,423.4,213.7,420.9,213z"/>
<path class="st3" d="M403.8,277.7L403.8,277.7c-2.5-0.7-5.1,0.8-5.7,3.3l-2.1,8.1c-0.7,2.5,0.8,5.1,3.3,5.7c2.5,0.7,5.1-0.8,5.7-3.3
	l2.1-8.1C407.8,280.9,406.3,278.3,403.8,277.7z M386.8,342.4L386.8,342.4c-2.5-0.7-5.1,0.8-5.7,3.3l-2.1,8.1
	c-0.7,2.5,0.8,5.1,3.3,5.7c2.5,0.7,5.1-0.8,5.7-3.3l2.1-8.1C390.8,345.6,389.3,343,386.8,342.4z M369.7,407.1L369.7,407.1
	c-2.5-0.7-5.1,0.8-5.7,3.3l-2.1,8.1c-0.7,2.5,0.8,5.1,3.3,5.7c2.5,0.7,5.1-0.8,5.7-3.3l2.1-8.1C373.7,410.3,372.2,407.7,369.7,407.1
	z M438,148.3L438,148.3c-2.5-0.7-5.1,0.8-5.7,3.3l-2.1,8.1c-0.7,2.5,0.8,5.1,3.3,5.7c2.5,0.7,5.1-0.8,5.7-3.3l2.1-8.1
	C442,151.6,440.5,149,438,148.3z M420.9,213L420.9,213c-2.5-0.7-5.1,0.8-5.7,3.3l-2.1,8.1c-0.7,2.5,0.8,5.1,3.3,5.7
	c2.5,0.7,5.1-0.8,5.7-3.3l2.1-8.1C424.9,216.2,423.4,213.7,420.9,213z"/>
<path class="st4" d="M151.2,215.2L151.2,215.2c-2.6,0-4.7,2.1-4.7,4.7v8.3c0,2.6,2.1,4.7,4.7,4.7c2.6,0,4.7-2.1,4.7-4.7v-8.3
	C155.9,217.3,153.8,215.2,151.2,215.2z"/>
<path class="st3" d="M151.2,215.2L151.2,215.2c-2.6,0-4.7,2.1-4.7,4.7v8.3c0,2.6,2.1,4.7,4.7,4.7c2.6,0,4.7-2.1,4.7-4.7v-8.3
	C155.9,217.3,153.8,215.2,151.2,215.2z"/>
<path class="st4" d="M151.2,282.1L151.2,282.1c-2.6,0-4.7,2.1-4.7,4.7v8.3c0,2.6,2.1,4.7,4.7,4.7c2.6,0,4.7-2.1,4.7-4.7v-8.3
	C155.9,284.2,153.8,282.1,151.2,282.1z"/>
<path class="st3" d="M151.2,282.1L151.2,282.1c-2.6,0-4.7,2.1-4.7,4.7v8.3c0,2.6,2.1,4.7,4.7,4.7c2.6,0,4.7-2.1,4.7-4.7v-8.3
	C155.9,284.2,153.8,282.1,151.2,282.1z"/>
<path class="st4" d="M151.2,349L151.2,349c-2.6,0-4.7,2.1-4.7,4.7v8.3c0,2.6,2.1,4.7,4.7,4.7c2.6,0,4.7-2.1,4.7-4.7v-8.3
	C155.9,351.1,153.8,349,151.2,349z"/>
<path class="st3" d="M151.2,349L151.2,349c-2.6,0-4.7,2.1-4.7,4.7v8.3c0,2.6,2.1,4.7,4.7,4.7c2.6,0,4.7-2.1,4.7-4.7v-8.3
	C155.9,351.1,153.8,349,151.2,349z"/>
<path class="st4" d="M151.2,415.9L151.2,415.9c-2.6,0-4.7,2.1-4.7,4.7v8.3c0,2.6,2.1,4.7,4.7,4.7c2.6,0,4.7-2.1,4.7-4.7v-8.3
	C155.9,418,153.8,415.9,151.2,415.9z"/>
<path class="st3" d="M151.2,415.9L151.2,415.9c-2.6,0-4.7,2.1-4.7,4.7v8.3c0,2.6,2.1,4.7,4.7,4.7c2.6,0,4.7-2.1,4.7-4.7v-8.3
	C155.9,418,153.8,415.9,151.2,415.9z"/>
<path class="st4" d="M151.2,148.3L151.2,148.3c-2.6,0-4.7,2.1-4.7,4.7v8.3c0,2.6,2.1,4.7,4.7,4.7c2.6,0,4.7-2.1,4.7-4.7V153
	C155.9,150.4,153.8,148.3,151.2,148.3z"/>
<path class="st3" d="M151.2,148.3L151.2,148.3c-2.6,0-4.7,2.1-4.7,4.7v8.3c0,2.6,2.1,4.7,4.7,4.7c2.6,0,4.7-2.1,4.7-4.7V153
	C155.9,150.4,153.8,148.3,151.2,148.3z"/>
<line class="st5" x1="123.7" y1="452.6" x2="87.8" y2="452.6"/>
<line class="st5" x1="119" y1="129.3" x2="87.8" y2="129.3"/>
<line class="st5" x1="103.9" y1="357.6" x2="103.9" y2="452.6"/>
<polygon class="st6" points="101,441.7 103.9,452.6 106.8,441.7 "/>
<line class="st5" x1="103.9" y1="129.3" x2="103.9" y2="222"/>
<polygon class="st6" points="101,140.2 103.9,129.3 106.8,140.2 "/>
<path class="st7" d="M103.8,223.2L103.8,223.2c-8.2,0-15,6.7-15,15v105.6c0,8.2,6.7,15,15,15c8.2,0,15-6.7,15-15V238.2
	C118.8,229.9,112,223.2,103.8,223.2"/>
<line class="st5" x1="135.2" y1="83.2" x2="135.2" y2="114.4"/>
<line class="st5" x1="363.5" y1="98.3" x2="458.5" y2="98.3"/>
<polygon class="st6" points="447.6,101.2 458.5,98.3 447.6,95.3 "/>
<line class="st5" x1="135.2" y1="98.3" x2="227.9" y2="98.3"/>
<polygon class="st6" points="146.1,101.2 135.2,98.3 146.1,95.3 "/>
<path class="st7" d="M229.1,98.4L229.1,98.4c0,8.2,6.7,15,15,15h105.6c8.2,0,15-6.7,15-15c0-8.2-6.7-15-15-15H244
	C235.8,83.4,229.1,90.2,229.1,98.4"/>
<line class="st5" x1="420.9" y1="463.8" x2="386.4" y2="453.5"/>
<line class="st5" x1="428.4" y1="364" x2="401.9" y2="458.2"/>
<polygon class="st6" points="402,446.9 401.9,458.2 407.7,448.5 "/>
<path class="st7" d="M465.8,230.8L465.8,230.8c-7.9-2.4-16.2,2.2-18.4,10.1l-29.7,105.4c-2.2,7.9,2.4,16.4,10.3,18.7
	c7.9,2.4,16.2-2.2,18.4-10.1l29.7-105.4C478.3,241.6,473.7,233.2,465.8,230.8"/>
<line class="st5" x1="371.4" y1="466.5" x2="371.4" y2="502.4"/>
<line class="st5" x1="135.2" y1="471.2" x2="135.2" y2="502.4"/>
<line class="st5" x1="302" y1="486.3" x2="371.4" y2="486.3"/>
<polygon class="st6" points="360.5,489.2 371.4,486.3 360.5,483.4 "/>
<line class="st5" x1="135.2" y1="486.3" x2="202.9" y2="486.3"/>
<polygon class="st6" points="146.1,489.2 135.2,486.3 146.1,483.4 "/>
<path class="st7" d="M201.1,486.4L201.1,486.4c0,8.2,6.7,15,15,15H287c8.2,0,15-6.7,15-15c0-8.2-6.7-15-15-15H216
	C207.8,471.4,201.1,478.2,201.1,486.4"/>
</svg>
