<?xml version="1.0" encoding="utf-8"?>
<!-- Generator: Adobe Illustrator 20.0.0, SVG Export Plug-In . SVG Version: 6.00 Build 0)  -->
<svg version="1.1" id="Layer_1" xmlns="http://www.w3.org/2000/svg" xmlns:xlink="http://www.w3.org/1999/xlink" x="0px" y="0px"
	 viewBox="0 0 605.8 573.1" style="enable-background:new 0 0 605.8 573.1;" xml:space="preserve">
<style type="text/css">
	.st0{font-family:'MyriadPro-Regular';}
	.st1{font-size:50px;}
	.st2{fill-rule:evenodd;clip-rule:evenodd;fill:#6BA95E;}
	.st3{fill:none;stroke:#000000;stroke-width:0.2225;stroke-miterlimit:22.9256;}
	.st4{fill-rule:evenodd;clip-rule:evenodd;fill:#FFFFFF;}
	.st5{fill:none;stroke:#5262A8;stroke-width:0.2225;stroke-miterlimit:22.9256;}
	.st6{fill-rule:evenodd;clip-rule:evenodd;fill:#5262A8;}
	.st7{fill-rule:evenodd;clip-rule:evenodd;fill:#B4B5DA;}
</style>
<text transform="matrix(1 0 0 1 280.7691 566.7686)" class="st0 st1">A</text>
<text transform="matrix(1 0 0 1 531.7691 314.7686)" class="st0 st1">B</text>
<text transform="matrix(1 0 0 1 256.7691 56.7686)" class="st0 st1">C</text>
<text transform="matrix(1 0 0 1 35.7691 324.7686)" class="st0 st1">D</text>
<polygon class="st2" points="105.9,129.3 193,452.6 429.3,452.6 429.3,129.3 "/>
<polygon class="st3" points="105.9,129.3 193,452.6 429.3,452.6 429.3,129.3 "/>
<polygon class="st4" points="146.5,162.5 396.3,162.5 396.3,419.5 215.8,419.5 "/>
<polygon class="st3" points="146.5,162.5 396.3,162.5 396.3,419.5 215.8,419.5 "/>
<path class="st4" d="M157.2,283.4l2.1,8.1c0.7,2.5,3.2,4,5.7,3.3c2.5-0.7,4-3.2,3.3-5.7l-2.1-8.1c-0.7-2.5-3.2-4-5.7-3.3l0,0
	C158.1,278.3,156.6,280.9,157.2,283.4z M174.3,348.1l2.1,8.1c0.7,2.5,3.2,4,5.7,3.3c2.5-0.7,4-3.2,3.3-5.7l-2.1-8.1
	c-0.7-2.5-3.2-4-5.7-3.3l0,0C175.2,343,173.6,345.6,174.3,348.1z M191.4,412.8l2.1,8.1c0.7,2.5,3.2,4,5.7,3.3c2.5-0.7,4-3.2,3.3-5.7
	l-2.1-8.1c-0.7-2.5-3.2-4-5.7-3.3l0,0C192.2,407.7,190.7,410.3,191.4,412.8z M123.1,154.1l2.1,8.1c0.7,2.5,3.2,4,5.7,3.3
	c2.5-0.7,4-3.2,3.3-5.7l-2.1-8.1c-0.7-2.5-3.2-4-5.7-3.3l0,0C124,149,122.5,151.6,123.1,154.1z M140.2,218.7l2.1,8.1
	c0.7,2.5,3.2,4,5.7,3.3c2.5-0.7,4-3.2,3.3-5.7l-2.1-8.1c-0.7-2.5-3.2-4-5.7-3.3l0,0C141,213.7,139.5,216.2,140.2,218.7z"/>
<path class="st3" d="M157.2,283.4l2.1,8.1c0.7,2.5,3.2,4,5.7,3.3c2.5-0.7,4-3.2,3.3-5.7l-2.1-8.1c-0.7-2.5-3.2-4-5.7-3.3l0,0
	C158.1,278.3,156.6,280.9,157.2,283.4z M174.3,348.1l2.1,8.1c0.7,2.5,3.2,4,5.7,3.3c2.5-0.7,4-3.2,3.3-5.7l-2.1-8.1
	c-0.7-2.5-3.2-4-5.7-3.3l0,0C175.2,343,173.6,345.6,174.3,348.1z M191.4,412.8l2.1,8.1c0.7,2.5,3.2,4,5.7,3.3c2.5-0.7,4-3.2,3.3-5.7
	l-2.1-8.1c-0.7-2.5-3.2-4-5.7-3.3l0,0C192.2,407.7,190.7,410.3,191.4,412.8z M123.1,154.1l2.1,8.1c0.7,2.5,3.2,4,5.7,3.3
	c2.5-0.7,4-3.2,3.3-5.7l-2.1-8.1c-0.7-2.5-3.2-4-5.7-3.3l0,0C124,149,122.5,151.6,123.1,154.1z M140.2,218.7l2.1,8.1
	c0.7,2.5,3.2,4,5.7,3.3c2.5-0.7,4-3.2,3.3-5.7l-2.1-8.1c-0.7-2.5-3.2-4-5.7-3.3l0,0C141,213.7,139.5,216.2,140.2,218.7z"/>
<path class="st4" d="M413.2,215.2L413.2,215.2c2.6,0,4.7,2.1,4.7,4.7v8.3c0,2.6-2.1,4.7-4.7,4.7c-2.6,0-4.7-2.1-4.7-4.7v-8.3
	C408.6,217.3,410.7,215.2,413.2,215.2z"/>
<path class="st3" d="M413.2,215.2L413.2,215.2c2.6,0,4.7,2.1,4.7,4.7v8.3c0,2.6-2.1,4.7-4.7,4.7c-2.6,0-4.7-2.1-4.7-4.7v-8.3
	C408.6,217.3,410.7,215.2,413.2,215.2z"/>
<path class="st4" d="M413.2,282.1L413.2,282.1c2.6,0,4.7,2.1,4.7,4.7v8.3c0,2.6-2.1,4.7-4.7,4.7c-2.6,0-4.7-2.1-4.7-4.7v-8.3
	C408.6,284.2,410.7,282.1,413.2,282.1z"/>
<path class="st3" d="M413.2,282.1L413.2,282.1c2.6,0,4.7,2.1,4.7,4.7v8.3c0,2.6-2.1,4.7-4.7,4.7c-2.6,0-4.7-2.1-4.7-4.7v-8.3
	C408.6,284.2,410.7,282.1,413.2,282.1z"/>
<path class="st4" d="M413.2,349L413.2,349c2.6,0,4.7,2.1,4.7,4.7v8.3c0,2.6-2.1,4.7-4.7,4.7c-2.6,0-4.7-2.1-4.7-4.7v-8.3
	C408.6,351.1,410.7,349,413.2,349z"/>
<path class="st3" d="M413.2,349L413.2,349c2.6,0,4.7,2.1,4.7,4.7v8.3c0,2.6-2.1,4.7-4.7,4.7c-2.6,0-4.7-2.1-4.7-4.7v-8.3
	C408.6,351.1,410.7,349,413.2,349z"/>
<path class="st4" d="M413.2,415.9L413.2,415.9c2.6,0,4.7,2.1,4.7,4.7v8.3c0,2.6-2.1,4.7-4.7,4.7c-2.6,0-4.7-2.1-4.7-4.7v-8.3
	C408.6,418,410.7,415.9,413.2,415.9z"/>
<path class="st3" d="M413.2,415.9L413.2,415.9c2.6,0,4.7,2.1,4.7,4.7v8.3c0,2.6-2.1,4.7-4.7,4.7c-2.6,0-4.7-2.1-4.7-4.7v-8.3
	C408.6,418,410.7,415.9,413.2,415.9z"/>
<path class="st4" d="M413.2,148.3L413.2,148.3c2.6,0,4.7,2.1,4.7,4.7v8.3c0,2.6-2.1,4.7-4.7,4.7c-2.6,0-4.7-2.1-4.7-4.7V153
	C408.6,150.4,410.7,148.3,413.2,148.3z"/>
<path class="st3" d="M413.2,148.3L413.2,148.3c2.6,0,4.7,2.1,4.7,4.7v8.3c0,2.6-2.1,4.7-4.7,4.7c-2.6,0-4.7-2.1-4.7-4.7V153
	C408.6,150.4,410.7,148.3,413.2,148.3z"/>
<line class="st5" x1="440.7" y1="452.6" x2="476.7" y2="452.6"/>
<line class="st5" x1="445.4" y1="129.3" x2="476.7" y2="129.3"/>
<line class="st5" x1="460.5" y1="357.6" x2="460.5" y2="452.6"/>
<polygon class="st6" points="463.4,441.7 460.5,452.6 457.6,441.7 "/>
<line class="st5" x1="460.5" y1="129.3" x2="460.5" y2="222"/>
<polygon class="st6" points="463.4,140.2 460.5,129.3 457.6,140.2 "/>
<path class="st7" d="M460.6,223.2L460.6,223.2c8.2,0,15,6.7,15,15v105.6c0,8.2-6.7,15-15,15c-8.2,0-15-6.7-15-15V238.2
	C445.7,229.9,452.4,223.2,460.6,223.2"/>
<line class="st5" x1="429.3" y1="83.2" x2="429.3" y2="114.4"/>
<line class="st5" x1="201" y1="98.3" x2="105.9" y2="98.3"/>
<polygon class="st6" points="116.8,101.2 105.9,98.3 116.8,95.3 "/>
<line class="st5" x1="429.3" y1="98.3" x2="336.5" y2="98.3"/>
<polygon class="st6" points="418.4,101.2 429.3,98.3 418.4,95.3 "/>
<path class="st7" d="M335.4,98.4L335.4,98.4c0,8.2-6.7,15-15,15H214.8c-8.2,0-15-6.7-15-15c0-8.2,6.7-15,15-15h105.6
	C328.6,83.4,335.4,90.2,335.4,98.4"/>
<line class="st5" x1="143.5" y1="463.8" x2="178.1" y2="453.5"/>
<line class="st5" x1="136" y1="364" x2="162.5" y2="458.2"/>
<polygon class="st6" points="162.4,446.9 162.5,458.2 156.8,448.5 "/>
<path class="st7" d="M98.6,230.8L98.6,230.8c7.9-2.4,16.2,2.2,18.4,10.1l29.7,105.4c2.2,7.9-2.4,16.4-10.3,18.7
	c-7.9,2.4-16.2-2.2-18.4-10.1L88.3,249.6C86.1,241.6,90.7,233.2,98.6,230.8"/>
<line class="st5" x1="193" y1="466.5" x2="193" y2="502.4"/>
<line class="st5" x1="429.3" y1="471.2" x2="429.3" y2="502.4"/>
<line class="st5" x1="262.5" y1="486.3" x2="193" y2="486.3"/>
<polygon class="st6" points="203.9,489.2 193,486.3 203.9,483.4 "/>
<line class="st5" x1="429.3" y1="486.3" x2="361.5" y2="486.3"/>
<polygon class="st6" points="418.4,489.2 429.3,486.3 418.4,483.4 "/>
<path class="st7" d="M363.4,486.4L363.4,486.4c0,8.2-6.7,15-15,15h-70.9c-8.2,0-15-6.7-15-15c0-8.2,6.7-15,15-15h70.9
	C356.6,471.4,363.4,478.2,363.4,486.4"/>
</svg>
