<?xml version="1.0" encoding="utf-8"?>
<!-- Generator: Adobe Illustrator 20.0.0, SVG Export Plug-In . SVG Version: 6.00 Build 0)  -->
<svg version="1.1" id="Layer_1" xmlns="http://www.w3.org/2000/svg" xmlns:xlink="http://www.w3.org/1999/xlink" x="0px" y="0px"
	 viewBox="0 0 605.8 573.1" style="enable-background:new 0 0 605.8 573.1;" xml:space="preserve">
<style type="text/css">
	.st0{font-family:'MyriadPro-Regular';}
	.st1{font-size:50px;}
	.st2{fill-rule:evenodd;clip-rule:evenodd;fill:#6BA95E;}
	.st3{fill:none;stroke:#000000;stroke-width:0.2331;stroke-miterlimit:22.9256;}
	.st4{fill-rule:evenodd;clip-rule:evenodd;fill:#FFFFFF;}
	.st5{fill:none;stroke:#5262A8;stroke-width:0.2331;stroke-miterlimit:22.9256;}
	.st6{fill-rule:evenodd;clip-rule:evenodd;fill:#5262A8;}
	.st7{fill-rule:evenodd;clip-rule:evenodd;fill:#B4B5DA;}
</style>
<text transform="matrix(1 0 0 1 280.7691 566.7686)" class="st0 st1">A</text>
<text transform="matrix(1 0 0 1 531.7691 314.7686)" class="st0 st1">B</text>
<text transform="matrix(1 0 0 1 256.7691 56.7686)" class="st0 st1">C</text>
<text transform="matrix(1 0 0 1 35.7691 324.7686)" class="st0 st1">D</text>
<polygon class="st2" points="131.7,107.5 470.5,198.8 470.5,446.3 131.7,446.3 "/>
<polygon class="st3" points="131.7,107.5 470.5,198.8 470.5,446.3 131.7,446.3 "/>
<polygon class="st4" points="166.4,150.1 166.4,411.8 435.7,411.8 435.7,222.6 "/>
<polygon class="st3" points="166.4,150.1 166.4,411.8 435.7,411.8 435.7,222.6 "/>
<path class="st4" d="M149,293.3L149,293.3c2.7,0,4.9-2.2,4.9-4.9v-8.7c0-2.7-2.2-4.9-4.9-4.9c-2.7,0-4.9,2.2-4.9,4.9v8.7
	C144.1,291,146.3,293.3,149,293.3z M149,223.2L149,223.2c2.7,0,4.9-2.2,4.9-4.9v-8.7c0-2.7-2.2-4.9-4.9-4.9c-2.7,0-4.9,2.2-4.9,4.9
	v8.7C144.1,221,146.3,223.2,149,223.2z M149,153.1L149,153.1c2.7,0,4.9-2.2,4.9-4.9v-8.7c0-2.7-2.2-4.9-4.9-4.9
	c-2.7,0-4.9,2.2-4.9,4.9v8.7C144.1,150.9,146.3,153.1,149,153.1z M149,433.4L149,433.4c2.7,0,4.9-2.2,4.9-4.9v-8.7
	c0-2.7-2.2-4.9-4.9-4.9c-2.7,0-4.9,2.2-4.9,4.9v8.7C144.1,431.2,146.3,433.4,149,433.4z M149,363.3L149,363.3c2.7,0,4.9-2.2,4.9-4.9
	v-8.7c0-2.7-2.2-4.9-4.9-4.9c-2.7,0-4.9,2.2-4.9,4.9v8.7C144.1,361.1,146.3,363.3,149,363.3z"/>
<path class="st3" d="M149,293.3L149,293.3c2.7,0,4.9-2.2,4.9-4.9v-8.7c0-2.7-2.2-4.9-4.9-4.9c-2.7,0-4.9,2.2-4.9,4.9v8.7
	C144.1,291,146.3,293.3,149,293.3z M149,223.2L149,223.2c2.7,0,4.9-2.2,4.9-4.9v-8.7c0-2.7-2.2-4.9-4.9-4.9c-2.7,0-4.9,2.2-4.9,4.9
	v8.7C144.1,221,146.3,223.2,149,223.2z M149,153.1L149,153.1c2.7,0,4.9-2.2,4.9-4.9v-8.7c0-2.7-2.2-4.9-4.9-4.9
	c-2.7,0-4.9,2.2-4.9,4.9v8.7C144.1,150.9,146.3,153.1,149,153.1z M149,433.4L149,433.4c2.7,0,4.9-2.2,4.9-4.9v-8.7
	c0-2.7-2.2-4.9-4.9-4.9c-2.7,0-4.9,2.2-4.9,4.9v8.7C144.1,431.2,146.3,433.4,149,433.4z M149,363.3L149,363.3c2.7,0,4.9-2.2,4.9-4.9
	v-8.7c0-2.7-2.2-4.9-4.9-4.9c-2.7,0-4.9,2.2-4.9,4.9v8.7C144.1,361.1,146.3,363.3,149,363.3z"/>
<path class="st4" d="M453.7,293.3L453.7,293.3c2.7,0,4.9-2.2,4.9-4.9v-8.7c0-2.7-2.2-4.9-4.9-4.9c-2.7,0-4.9,2.2-4.9,4.9v8.7
	C448.8,291,451,293.3,453.7,293.3z M453.7,223.2L453.7,223.2c2.7,0,4.9-2.2,4.9-4.9v-8.7c0-2.7-2.2-4.9-4.9-4.9
	c-2.7,0-4.9,2.2-4.9,4.9v8.7C448.8,221,451,223.2,453.7,223.2z M453.7,433.4L453.7,433.4c2.7,0,4.9-2.2,4.9-4.9v-8.7
	c0-2.7-2.2-4.9-4.9-4.9c-2.7,0-4.9,2.2-4.9,4.9v8.7C448.8,431.2,451,433.4,453.7,433.4z M453.7,363.3L453.7,363.3
	c2.7,0,4.9-2.2,4.9-4.9v-8.7c0-2.7-2.2-4.9-4.9-4.9c-2.7,0-4.9,2.2-4.9,4.9v8.7C448.8,361.1,451,363.3,453.7,363.3z"/>
<path class="st3" d="M453.7,293.3L453.7,293.3c2.7,0,4.9-2.2,4.9-4.9v-8.7c0-2.7-2.2-4.9-4.9-4.9c-2.7,0-4.9,2.2-4.9,4.9v8.7
	C448.8,291,451,293.3,453.7,293.3z M453.7,223.2L453.7,223.2c2.7,0,4.9-2.2,4.9-4.9v-8.7c0-2.7-2.2-4.9-4.9-4.9
	c-2.7,0-4.9,2.2-4.9,4.9v8.7C448.8,221,451,223.2,453.7,223.2z M453.7,433.4L453.7,433.4c2.7,0,4.9-2.2,4.9-4.9v-8.7
	c0-2.7-2.2-4.9-4.9-4.9c-2.7,0-4.9,2.2-4.9,4.9v8.7C448.8,431.2,451,433.4,453.7,433.4z M453.7,363.3L453.7,363.3
	c2.7,0,4.9-2.2,4.9-4.9v-8.7c0-2.7-2.2-4.9-4.9-4.9c-2.7,0-4.9,2.2-4.9,4.9v8.7C448.8,361.1,451,363.3,453.7,363.3z"/>
<line class="st5" x1="470.5" y1="458.3" x2="470.5" y2="496"/>
<line class="st5" x1="131.7" y1="463.3" x2="131.7" y2="496"/>
<line class="st5" x1="370.9" y1="479" x2="470.5" y2="479"/>
<polygon class="st6" points="459,482.1 470.5,479 459,476 "/>
<line class="st5" x1="131.7" y1="479" x2="228.8" y2="479"/>
<polygon class="st6" points="143.1,482.1 131.7,479 143.1,476 "/>
<path class="st7" d="M230.1,479.2L230.1,479.2c0,8.6,7.1,15.7,15.7,15.7h110.6c8.6,0,15.7-7.1,15.7-15.7c0-8.6-7.1-15.7-15.7-15.7
	H245.7C237.1,463.5,230.1,470.6,230.1,479.2"/>
<line class="st5" x1="78.4" y1="107.5" x2="116.1" y2="107.5"/>
<line class="st5" x1="83.4" y1="446.3" x2="116.1" y2="446.3"/>
<line class="st5" x1="99.2" y1="207.1" x2="99.2" y2="107.5"/>
<polygon class="st6" points="102.2,119 99.2,107.5 96.1,119 "/>
<line class="st5" x1="99.2" y1="446.3" x2="99.2" y2="349.1"/>
<polygon class="st6" points="102.2,434.9 99.2,446.3 96.1,434.9 "/>
<path class="st7" d="M99.3,347.9L99.3,347.9c8.6,0,15.7-7.1,15.7-15.7V221.6c0-8.6-7.1-15.7-15.7-15.7s-15.7,7.1-15.7,15.7v110.6
	C83.6,340.9,90.7,347.9,99.3,347.9"/>
<line class="st5" x1="482.2" y1="147" x2="471.4" y2="183.1"/>
<line class="st5" x1="145.2" y1="57.2" x2="135.8" y2="88.6"/>
<line class="st5" x1="377.6" y1="139.1" x2="476.2" y2="166.9"/>
<polygon class="st6" points="464.4,166.7 476.2,166.9 466.1,160.8 "/>
<line class="st5" x1="140.6" y1="72.3" x2="236.9" y2="99.4"/>
<polygon class="st6" points="150.8,78.4 140.6,72.3 152.4,72.5 "/>
<path class="st7" d="M238,99.9L238,99.9c-2.5,8.3,2.3,17,10.6,19.3l110.4,31.1c8.3,2.3,17.2-2.5,19.6-10.8c2.5-8.3-2.3-17-10.6-19.3
	L257.7,89.1C249.3,86.8,240.5,91.6,238,99.9"/>
<line class="st5" x1="485" y1="198.8" x2="522.6" y2="198.8"/>
<line class="st5" x1="489.9" y1="446.3" x2="522.6" y2="446.3"/>
<line class="st5" x1="505.7" y1="271.6" x2="505.7" y2="198.8"/>
<polygon class="st6" points="508.7,210.2 505.7,198.8 502.6,210.2 "/>
<line class="st5" x1="505.7" y1="446.3" x2="505.7" y2="375.3"/>
<polygon class="st6" points="508.7,434.9 505.7,446.3 502.6,434.9 "/>
<path class="st7" d="M505.8,377.3L505.8,377.3c8.6,0,15.7-7.1,15.7-15.7v-74.3c0-8.6-7.1-15.7-15.7-15.7c-8.6,0-15.7,7.1-15.7,15.7
	v74.3C490.1,370.2,497.2,377.3,505.8,377.3"/>
</svg>
