<?xml version="1.0" encoding="utf-8"?>
<!-- Generator: Adobe Illustrator 20.0.0, SVG Export Plug-In . SVG Version: 6.00 Build 0)  -->
<svg version="1.1" id="Layer_1" xmlns="http://www.w3.org/2000/svg" xmlns:xlink="http://www.w3.org/1999/xlink" x="0px" y="0px"
	 viewBox="0 0 605.8 573.1" style="enable-background:new 0 0 605.8 573.1;" xml:space="preserve">
<style type="text/css">
	.st0{font-family:'MyriadPro-Regular';}
	.st1{font-size:50px;}
	.st2{fill-rule:evenodd;clip-rule:evenodd;fill:#6BA95E;}
	.st3{fill:none;stroke:#000000;stroke-width:0.2331;stroke-miterlimit:22.9256;}
	.st4{fill-rule:evenodd;clip-rule:evenodd;fill:#FFFFFF;}
	.st5{fill:none;stroke:#5262A8;stroke-width:0.2331;stroke-miterlimit:22.9256;}
	.st6{fill-rule:evenodd;clip-rule:evenodd;fill:#5262A8;}
	.st7{fill-rule:evenodd;clip-rule:evenodd;fill:#B4B5DA;}
</style>
<text transform="matrix(1 0 0 1 280.7691 566.7686)" class="st0 st1">A</text>
<text transform="matrix(1 0 0 1 531.7691 314.7686)" class="st0 st1">B</text>
<text transform="matrix(1 0 0 1 256.7691 56.7686)" class="st0 st1">C</text>
<text transform="matrix(1 0 0 1 35.7691 324.7686)" class="st0 st1">D</text>
<polygon class="st2" points="469.4,107.5 130.6,198.8 130.6,446.3 469.4,446.3 "/>
<polygon class="st3" points="469.4,107.5 130.6,198.8 130.6,446.3 469.4,446.3 "/>
<polygon class="st4" points="434.7,150.1 434.7,411.8 165.4,411.8 165.4,222.6 "/>
<polygon class="st3" points="434.7,150.1 434.7,411.8 165.4,411.8 165.4,222.6 "/>
<path class="st4" d="M456.9,288.3v-8.7c0-2.7-2.2-4.9-4.9-4.9c-2.7,0-4.9,2.2-4.9,4.9v8.7c0,2.7,2.2,4.9,4.9,4.9l0,0
	C454.7,293.3,456.9,291,456.9,288.3z M456.9,218.3v-8.7c0-2.7-2.2-4.9-4.9-4.9c-2.7,0-4.9,2.2-4.9,4.9v8.7c0,2.7,2.2,4.9,4.9,4.9
	l0,0C454.7,223.2,456.9,221,456.9,218.3z M456.9,148.2v-8.7c0-2.7-2.2-4.9-4.9-4.9c-2.7,0-4.9,2.2-4.9,4.9v8.7
	c0,2.7,2.2,4.9,4.9,4.9l0,0C454.7,153.1,456.9,150.9,456.9,148.2z M456.9,428.5v-8.7c0-2.7-2.2-4.9-4.9-4.9c-2.7,0-4.9,2.2-4.9,4.9
	v8.7c0,2.7,2.2,4.9,4.9,4.9l0,0C454.7,433.4,456.9,431.2,456.9,428.5z M456.9,358.4v-8.7c0-2.7-2.2-4.9-4.9-4.9
	c-2.7,0-4.9,2.2-4.9,4.9v8.7c0,2.7,2.2,4.9,4.9,4.9l0,0C454.7,363.3,456.9,361.1,456.9,358.4z"/>
<path class="st3" d="M456.9,288.3v-8.7c0-2.7-2.2-4.9-4.9-4.9c-2.7,0-4.9,2.2-4.9,4.9v8.7c0,2.7,2.2,4.9,4.9,4.9l0,0
	C454.7,293.3,456.9,291,456.9,288.3z M456.9,218.3v-8.7c0-2.7-2.2-4.9-4.9-4.9c-2.7,0-4.9,2.2-4.9,4.9v8.7c0,2.7,2.2,4.9,4.9,4.9
	l0,0C454.7,223.2,456.9,221,456.9,218.3z M456.9,148.2v-8.7c0-2.7-2.2-4.9-4.9-4.9c-2.7,0-4.9,2.2-4.9,4.9v8.7
	c0,2.7,2.2,4.9,4.9,4.9l0,0C454.7,153.1,456.9,150.9,456.9,148.2z M456.9,428.5v-8.7c0-2.7-2.2-4.9-4.9-4.9c-2.7,0-4.9,2.2-4.9,4.9
	v8.7c0,2.7,2.2,4.9,4.9,4.9l0,0C454.7,433.4,456.9,431.2,456.9,428.5z M456.9,358.4v-8.7c0-2.7-2.2-4.9-4.9-4.9
	c-2.7,0-4.9,2.2-4.9,4.9v8.7c0,2.7,2.2,4.9,4.9,4.9l0,0C454.7,363.3,456.9,361.1,456.9,358.4z"/>
<path class="st4" d="M152.3,288.3v-8.7c0-2.7-2.2-4.9-4.9-4.9c-2.7,0-4.9,2.2-4.9,4.9v8.7c0,2.7,2.2,4.9,4.9,4.9l0,0
	C150.1,293.3,152.3,291,152.3,288.3z M152.3,218.3v-8.7c0-2.7-2.2-4.9-4.9-4.9c-2.7,0-4.9,2.2-4.9,4.9v8.7c0,2.7,2.2,4.9,4.9,4.9
	l0,0C150.1,223.2,152.3,221,152.3,218.3z M152.3,428.5v-8.7c0-2.7-2.2-4.9-4.9-4.9c-2.7,0-4.9,2.2-4.9,4.9v8.7
	c0,2.7,2.2,4.9,4.9,4.9l0,0C150.1,433.4,152.3,431.2,152.3,428.5z M152.3,358.4v-8.7c0-2.7-2.2-4.9-4.9-4.9c-2.7,0-4.9,2.2-4.9,4.9
	v8.7c0,2.7,2.2,4.9,4.9,4.9l0,0C150.1,363.3,152.3,361.1,152.3,358.4z"/>
<path class="st3" d="M152.3,288.3v-8.7c0-2.7-2.2-4.9-4.9-4.9c-2.7,0-4.9,2.2-4.9,4.9v8.7c0,2.7,2.2,4.9,4.9,4.9l0,0
	C150.1,293.3,152.3,291,152.3,288.3z M152.3,218.3v-8.7c0-2.7-2.2-4.9-4.9-4.9c-2.7,0-4.9,2.2-4.9,4.9v8.7c0,2.7,2.2,4.9,4.9,4.9
	l0,0C150.1,223.2,152.3,221,152.3,218.3z M152.3,428.5v-8.7c0-2.7-2.2-4.9-4.9-4.9c-2.7,0-4.9,2.2-4.9,4.9v8.7
	c0,2.7,2.2,4.9,4.9,4.9l0,0C150.1,433.4,152.3,431.2,152.3,428.5z M152.3,358.4v-8.7c0-2.7-2.2-4.9-4.9-4.9c-2.7,0-4.9,2.2-4.9,4.9
	v8.7c0,2.7,2.2,4.9,4.9,4.9l0,0C150.1,363.3,152.3,361.1,152.3,358.4z"/>
<line class="st5" x1="130.6" y1="458.3" x2="130.6" y2="496"/>
<line class="st5" x1="469.4" y1="463.3" x2="469.4" y2="496"/>
<line class="st5" x1="230.2" y1="479" x2="130.6" y2="479"/>
<polygon class="st6" points="142,482.1 130.6,479 142,476 "/>
<line class="st5" x1="469.4" y1="479" x2="372.2" y2="479"/>
<polygon class="st6" points="458,482.1 469.4,479 458,476 "/>
<path class="st7" d="M371,479.2L371,479.2c0,8.6-7.1,15.7-15.7,15.7H244.7c-8.6,0-15.7-7.1-15.7-15.7c0-8.6,7.1-15.7,15.7-15.7
	h110.6C364,463.5,371,470.6,371,479.2"/>
<line class="st5" x1="522.6" y1="107.5" x2="485" y2="107.5"/>
<line class="st5" x1="517.7" y1="446.3" x2="485" y2="446.3"/>
<line class="st5" x1="501.9" y1="207.1" x2="501.9" y2="107.5"/>
<polygon class="st6" points="498.9,119 501.9,107.5 505,119 "/>
<line class="st5" x1="501.9" y1="446.3" x2="501.9" y2="349.1"/>
<polygon class="st6" points="498.9,434.9 501.9,446.3 505,434.9 "/>
<path class="st7" d="M501.8,347.9L501.8,347.9c-8.6,0-15.7-7.1-15.7-15.7V221.6c0-8.6,7.1-15.7,15.7-15.7c8.6,0,15.7,7.1,15.7,15.7
	v110.6C517.5,340.9,510.4,347.9,501.8,347.9"/>
<line class="st5" x1="118.9" y1="147" x2="129.7" y2="183.1"/>
<line class="st5" x1="455.9" y1="57.2" x2="465.3" y2="88.6"/>
<line class="st5" x1="223.5" y1="139.1" x2="124.8" y2="166.9"/>
<polygon class="st6" points="136.7,166.7 124.8,166.9 135,160.8 "/>
<line class="st5" x1="460.4" y1="72.3" x2="364.2" y2="99.4"/>
<polygon class="st6" points="450.3,78.4 460.4,72.3 448.6,72.5 "/>
<path class="st7" d="M363,99.9L363,99.9c2.5,8.3-2.3,17-10.6,19.3L242,150.3c-8.3,2.3-17.2-2.5-19.6-10.8c-2.5-8.3,2.3-17,10.6-19.3
	l110.4-31.1C351.7,86.8,360.6,91.6,363,99.9"/>
<line class="st5" x1="116.1" y1="198.8" x2="78.4" y2="198.8"/>
<line class="st5" x1="111.2" y1="446.3" x2="78.4" y2="446.3"/>
<line class="st5" x1="95.4" y1="271.6" x2="95.4" y2="198.8"/>
<polygon class="st6" points="92.3,210.2 95.4,198.8 98.4,210.2 "/>
<line class="st5" x1="95.4" y1="446.3" x2="95.4" y2="375.3"/>
<polygon class="st6" points="92.3,434.9 95.4,446.3 98.4,434.9 "/>
<path class="st7" d="M95.2,377.3L95.2,377.3c-8.6,0-15.7-7.1-15.7-15.7v-74.3c0-8.6,7.1-15.7,15.7-15.7c8.6,0,15.7,7.1,15.7,15.7
	v74.3C110.9,370.2,103.9,377.3,95.2,377.3"/>
</svg>
