<?xml version="1.0" encoding="utf-8"?>
<!-- Generator: Adobe Illustrator 20.0.0, SVG Export Plug-In . SVG Version: 6.00 Build 0)  -->
<svg version="1.1" id="Layer_1" xmlns="http://www.w3.org/2000/svg" xmlns:xlink="http://www.w3.org/1999/xlink" x="0px" y="0px"
	 viewBox="0 0 1190.6 1190.6" style="enable-background:new 0 0 1190.6 1190.6;" xml:space="preserve">
<style type="text/css">
	.st0{fill-rule:evenodd;clip-rule:evenodd;fill:#DDDEDF;}
	.st1{fill:none;stroke:#000000;stroke-width:5.7403;stroke-miterlimit:22.9256;}
</style>
<path class="st0" d="M223.2,897.4l744.2,200.5c0-263.9,0-527.9,0-791.8v-12.8L223.2,92.7C223.2,360.9,223.2,629.2,223.2,897.4z
	 M154.6,3.2l881.3,237.4V306v881.3L154.6,949.9v-65.4V3.2z"/>
<path class="st1" d="M223.2,897.4l744.2,200.5c0-263.9,0-527.9,0-791.8v-12.8L223.2,92.7C223.2,360.9,223.2,629.2,223.2,897.4z
	 M154.6,3.2l881.3,237.4V306v881.3L154.6,949.9v-65.4V3.2z"/>
</svg>
