<?xml version="1.0" encoding="utf-8"?>
<!-- Generator: Adobe Illustrator 20.0.0, SVG Export Plug-In . SVG Version: 6.00 Build 0)  -->
<svg version="1.1" id="Layer_1" xmlns="http://www.w3.org/2000/svg" xmlns:xlink="http://www.w3.org/1999/xlink" x="0px" y="0px"
	 viewBox="0 0 605.8 573.1" style="enable-background:new 0 0 605.8 573.1;" xml:space="preserve">
<style type="text/css">
	.st0{fill-rule:evenodd;clip-rule:evenodd;fill:#6BA95E;}
	.st1{fill:none;stroke:#000000;stroke-width:0.216;stroke-miterlimit:22.9256;}
	.st2{fill-rule:evenodd;clip-rule:evenodd;fill:#FFFFFF;}
	.st3{fill:none;stroke:#5262A8;stroke-width:0.216;stroke-miterlimit:22.9256;}
	.st4{fill-rule:evenodd;clip-rule:evenodd;fill:#5262A8;}
	.st5{fill-rule:evenodd;clip-rule:evenodd;fill:#B4B5DA;}
	.st6{font-family:'MyriadPro-Regular';}
	.st7{font-size:50px;}
</style>
<g>
	<path class="st0" d="M170.3,443.1h249.5V221.6H170.3V443.1z M419.8,188.5l-249.5-67.2v68.4h249.5V188.5z M138.1,475.1H452V166.4
		L138.1,81.8V475.1z"/>
	<path class="st1" d="M170.3,443.1h249.5V221.6H170.3V443.1z M419.8,188.5l-249.5-67.2v68.4h249.5V188.5z M138.1,475.1H452V166.4
		L138.1,81.8V475.1z"/>
	<path class="st2" d="M154.1,253.9l-0.1,0l-0.1,0l-0.1,0l-0.1,0l-0.1,0l-0.1,0l-0.1,0l-0.1,0l-0.1,0l-0.1,0l-0.1,0l-0.1,0l-0.1,0
		l-0.1,0l-0.1,0v0l-0.1,0l-0.1,0l-0.1,0l-0.1-0.1l-0.1-0.1l-0.1-0.1l-0.1-0.1l-0.1-0.1l-0.1-0.1l-0.1-0.1l-0.1-0.1v0l-0.1-0.1
		l-0.1-0.1l-0.1-0.1l-0.1-0.1v0l-0.1-0.1l-0.1-0.1l-0.1-0.1v0l-0.1-0.1v0l-0.1-0.1v0l-0.1-0.1l-0.1-0.1v0l-0.1-0.1l-0.1-0.1
		l-0.1-0.1v0l-0.1-0.1l-0.1-0.1l-0.1-0.1l-0.1-0.1v0l0-0.1v0l0-0.1v0l0-0.1v0l0-0.1v0l0-0.1v0l0-0.1v0l0-0.1v0l0-0.1v0l0-0.1l0-0.1
		v0l0-0.1v0l0-0.1v0l0-0.1v0l0-0.1v0l0-0.1v0l0-0.1v0l0-0.1v0l0-0.1v0l0-0.1v0v-8.1v0l0-0.1v0l0-0.1v0l0-0.1l0-0.1v0l0-0.1v0l0-0.1
		l0-0.1l0-0.1l0-0.1l0-0.1l0-0.1l0-0.1l0-0.1l0-0.1v0l0-0.1l0-0.1l0-0.1l0-0.1v0l0-0.1l0.1-0.1l0.1-0.1l0.1-0.1l0.1-0.1v0l0.1-0.1
		l0.1-0.1l0.1-0.1l0.1-0.1l0.1-0.1l0.1-0.1v0l0.1-0.1l0.1-0.1l0.1-0.1l0.1-0.1l0.1-0.1l0.1-0.1l0.1-0.1l0.1-0.1v0l0.1-0.1l0.1-0.1
		l0.1-0.1l0.1-0.1l0.1-0.1l0.1-0.1l0.1-0.1l0.1-0.1l0.1,0l0.1,0v0l0.1,0l0.1,0v0l0.1,0v0l0.1,0v0l0.1,0l0.1,0v0l0.1,0v0l0.1,0v0
		l0.1,0v0l0.1,0v0l0.1,0v0l0.1,0v0l0.1,0v0l0.1,0v0l0.1,0v0l0.1,0v0l0.1,0v0v0l0.1,0v0l0.1,0v0l0.1,0v0l0.1,0v0l0.1,0v0l0.1,0v0
		l0.1,0v0l0.1,0v0l0.1,0v0l0.1,0v0l0.1,0v0l0.1,0l0.1,0v0l0.1,0v0l0.1,0v0l0.1,0l0.1,0v0l0.1,0l0.1,0l0.1,0.1l0.1,0.1l0.1,0.1
		l0.1,0.1l0.1,0.1l0.1,0.1l0.1,0.1l0.1,0.1v0l0.1,0.1l0.1,0.1l0.1,0.1l0.1,0.1l0.1,0.1l0.1,0.1l0.1,0.1l0.1,0.1v0l0.1,0.1l0.1,0.1
		l0.1,0.1l0.1,0.1l0.1,0.1l0.1,0.1v0l0.1,0.1l0.1,0.1l0.1,0.1l0.1,0.1l0,0.1v0l0,0.1l0,0.1l0,0.1l0,0.1v0l0,0.1l0,0.1l0,0.1l0,0.1
		l0,0.1l0,0.1l0,0.1l0,0.1l0,0.1v0l0,0.1v0l0,0.1l0,0.1v0l0,0.1v0l0,0.1v0v8.1v0l0,0.1v0l0,0.1v0l0,0.1v0l0,0.1v0l0,0.1v0l0,0.1v0
		l0,0.1v0l0,0.1v0l0,0.1v0l0,0.1l0,0.1v0l0,0.1v0l0,0.1v0l0,0.1v0l0,0.1v0l0,0.1v0l0,0.1v0l0,0.1v0l0,0.1v0l-0.1,0.1l-0.1,0.1
		l-0.1,0.1l-0.1,0.1v0l-0.1,0.1l-0.1,0.1l-0.1,0.1v0l-0.1,0.1l-0.1,0.1v0l-0.1,0.1v0l-0.1,0.1v0l-0.1,0.1l-0.1,0.1l-0.1,0.1v0
		l-0.1,0.1l-0.1,0.1l-0.1,0.1l-0.1,0.1v0l-0.1,0.1l-0.1,0.1l-0.1,0.1l-0.1,0.1l-0.1,0.1l-0.1,0.1l-0.1,0.1l-0.1,0.1l-0.1,0l-0.1,0
		l-0.1,0v0l-0.1,0l-0.1,0l-0.1,0l-0.1,0l-0.1,0l-0.1,0l-0.1,0l-0.1,0l-0.1,0l-0.1,0l-0.1,0l-0.1,0l-0.1,0l-0.1,0l-0.1,0l-0.1,0l0,0
		L154.1,253.9z M154.2,189l-0.1,0v0l-0.1,0v0l-0.1,0v0l-0.1,0v0l-0.1,0v0l-0.1,0v0l-0.1,0v0l-0.1,0v0l-0.1,0v0l-0.1,0v0l-0.1,0v0
		l-0.1,0v0l-0.1,0v0l-0.1,0v0l-0.1,0v0c-0.1,0-0.1-0.1-0.2-0.1v0l-0.1,0v0l-0.1,0v0l-0.1-0.1v0l-0.1-0.1v0l-0.1-0.1v0l-0.1-0.1v0
		l-0.1-0.1v0l-0.1-0.1v0l-0.1-0.1v0c-0.1,0-0.1-0.1-0.2-0.1v0l-0.1-0.1v0l-0.1-0.1v0l-0.1-0.1v0l-0.1-0.1v0l-0.1-0.1v0
		c-0.1-0.1-0.1-0.1-0.1-0.2v0l-0.1-0.1v0l-0.1-0.1v0c0-0.1-0.1-0.1-0.1-0.2v0l-0.1-0.1v0l-0.1-0.1v0l-0.1-0.1v0l-0.1-0.1v0l-0.1-0.1
		v0l-0.1-0.1v0l0-0.1v0l0-0.1v0l0-0.1v0l0-0.1v0l0-0.1v0l0-0.1v0l0-0.1v0l0-0.1v0l0-0.1l0-0.1l0-0.1v0l0-0.1v0l0-0.1v0l0-0.1l0-0.1
		l0-0.1v0l0-0.1v0l0-0.1l0-0.1v-8.1v0l0-0.1v0l0-0.1v0l0-0.1v0l0-0.1v0l0-0.1v0l0-0.1v0l0-0.1v0l0-0.1v0l0-0.1v0l0-0.1v0l0-0.1v0
		l0-0.1v0l0-0.1l0-0.1l0-0.1v0l0-0.1v0l0-0.1v0l0-0.1l0-0.1v0l0.1-0.1l0.1-0.1l0.1-0.1l0.1-0.1l0.1-0.1l0.1-0.1l0.1-0.1l0.1-0.1
		l0.1-0.1l0.1-0.1l0.1-0.1l0.1-0.1l0.1-0.1l0.1-0.1l0.1-0.1l0.1-0.1l0.1-0.1l0.1-0.1l0.1-0.1l0.1-0.1l0.1-0.1l0.1-0.1l0.1-0.1
		l0.1-0.1l0.1-0.1l0.1-0.1l0.1,0l0.1,0l0.1,0v0l0.1,0l0.1,0l0.1,0l0.1,0l0.1,0l0.1,0l0.1,0l0.1,0l0.1,0l0.1,0l0.1,0l0.1,0l0.1,0
		l0.1,0l0.1,0l0.1,0l0.1,0l0.1,0l0.1,0l0.1,0l0.1,0l0.1,0l0.1,0l0.1,0l0.1,0l0.1,0l0.1,0l0.1,0l0.1,0l0.1,0l0.1,0l0.1,0v0l0.1,0
		l0.1,0l0.1,0l0.1,0.1l0.1,0.1l0.1,0.1l0.1,0.1l0.1,0.1l0.1,0.1l0.1,0.1l0.1,0.1l0.1,0.1l0.1,0.1l0.1,0.1l0.1,0.1l0.1,0.1l0.1,0.1
		l0.1,0.1l0.1,0.1l0.1,0.1l0.1,0.1l0.1,0.1l0.1,0.1l0.1,0.1l0.1,0.1l0.1,0.1l0.1,0.1l0.1,0.1l0.1,0.1v0l0,0.1l0,0.1v0l0,0.1v0l0,0.1
		v0l0,0.1l0,0.1l0,0.1v0l0,0.1v0l0,0.1v0l0,0.1v0l0,0.1v0l0,0.1v0l0,0.1v0l0,0.1v0l0,0.1v0l0,0.1v0l0,0.1v0l0,0.1v0l0,0.1v0v8.1
		l0,0.1l0,0.1v0l0,0.1v0l0,0.1l0,0.1l0,0.1v0l0,0.1v0l0,0.1v0l0,0.1l0,0.1l0,0.1v0l0,0.1v0l0,0.1v0l0,0.1v0l0,0.1v0l0,0.1v0l0,0.1v0
		l0,0.1v0l0,0.1v0l-0.1,0.1v0l-0.1,0.1v0l-0.1,0.1v0l-0.1,0.1v0l-0.1,0.1v0l-0.1,0.1v0c0,0.1-0.1,0.1-0.1,0.2v0l-0.1,0.1v0l-0.1,0.1
		v0c0,0.1-0.1,0.1-0.1,0.2v0l-0.1,0.1v0l-0.1,0.1v0l-0.1,0.1v0l-0.1,0.1v0l-0.1,0.1v0c-0.1,0-0.1,0.1-0.2,0.1v0l-0.1,0.1v0l-0.1,0.1
		v0l-0.1,0.1v0l-0.1,0.1v0l-0.1,0.1v0l-0.1,0.1v0l-0.1,0.1v0l-0.1,0v0l-0.1,0v0c-0.1,0-0.1,0.1-0.2,0.1v0l-0.1,0v0l-0.1,0v0l-0.1,0
		v0l-0.1,0v0l-0.1,0v0l-0.1,0v0l-0.1,0v0l-0.1,0v0l-0.1,0v0l-0.1,0v0l-0.1,0v0l-0.1,0v0l-0.1,0v0l-0.1,0v0L154.2,189L154.2,189
		L154.2,189L154.2,189z M149.6,119.5v-8.1c0-2.5,2-4.6,4.6-4.6c2.5,0,4.6,2,4.6,4.6v8.1c0,2.5-2,4.6-4.6,4.6l0,0
		C151.7,124,149.6,122,149.6,119.5z M154.1,383.8l-0.1,0l-0.1,0l-0.1,0l-0.1,0l-0.1,0l-0.1,0l-0.1,0l-0.1,0l-0.1,0l-0.1,0l-0.1,0
		l-0.1,0l-0.1,0l-0.1,0l-0.1,0l-0.1,0l-0.1,0v0l-0.1,0l-0.1-0.1v0l-0.1-0.1v0l-0.1-0.1v0l-0.1-0.1l-0.1-0.1v0l-0.1-0.1l-0.1-0.1v0
		l-0.1-0.1l-0.1-0.1v0l-0.1-0.1l-0.1-0.1v0l-0.1-0.1l-0.1-0.1l-0.1-0.1v0l-0.1-0.1l-0.1-0.1l-0.1-0.1l-0.1-0.1v0l-0.1-0.1l-0.1-0.1
		v0l-0.1-0.1v0l-0.1-0.1l-0.1-0.1v0l-0.1-0.1l-0.1-0.1l-0.1-0.1l0-0.1l0-0.1l0-0.1l0-0.1l0-0.1l0-0.1v0l0-0.1l0-0.1l0-0.1l0-0.1v0
		l0-0.1l0-0.1l0-0.1l0-0.1v0l0-0.1v0l0-0.1l0-0.1l0-0.1v0l0-0.1v0v-8.1l0-0.1l0-0.1l0-0.1l0-0.1l0-0.1l0-0.1l0-0.1l0-0.1l0-0.1v0
		l0-0.1v0l0-0.1l0-0.1l0-0.1v0l0-0.1v0l0-0.1l0-0.1l0-0.1l0-0.1v0l0-0.1l0.1-0.1v0l0.1-0.1v0l0.1-0.1v0l0.1-0.1v0l0.1-0.1v0l0.1-0.1
		v0l0.1-0.1l0.1-0.1v0l0.1-0.1v0l0.1-0.1v0l0.1-0.1l0.1-0.1v0l0.1-0.1v0l0.1-0.1v0l0.1-0.1v0l0.1-0.1v0l0.1-0.1v0l0.1-0.1l0.1-0.1v0
		l0.1-0.1v0l0.1-0.1v0l0.1-0.1v0l0.1-0.1v0l0.1-0.1v0l0.1-0.1v0l0.1-0.1v0l0.1,0v0l0.1,0v0l0.1,0v0l0.1,0v0l0.1,0v0l0.1,0v0l0.1,0v0
		l0.1,0v0l0.1,0v0l0.1,0v0l0.1,0v0l0.1,0v0l0.1,0v0l0.1,0v0l0.1,0v0l0.1,0v0l0.1,0v0l0.1,0v0l0.1,0v0v0l0.1,0v0l0.1,0v0l0.1,0v0
		l0.1,0v0l0.1,0v0l0.1,0v0l0.1,0v0l0.1,0v0l0.1,0v0l0.1,0v0l0.1,0v0l0.1,0v0l0.1,0v0l0.1,0v0l0.1,0v0l0.1,0v0l0.1,0v0l0.1,0v0l0.1,0
		v0l0.1,0.1v0l0.1,0.1v0l0.1,0.1v0l0.1,0.1v0l0.1,0.1v0l0.1,0.1v0l0.1,0.1v0l0.1,0.1l0.1,0.1v0l0.1,0.1v0l0.1,0.1v0l0.1,0.1v0
		l0.1,0.1v0l0.1,0.1v0l0.1,0.1l0.1,0.1v0l0.1,0.1v0l0.1,0.1v0l0.1,0.1l0.1,0.1v0l0.1,0.1v0l0.1,0.1v0l0.1,0.1v0l0.1,0.1v0l0.1,0.1v0
		l0.1,0.1l0,0.1v0l0,0.1l0,0.1l0,0.1l0,0.1v0l0,0.1v0l0,0.1l0,0.1l0,0.1v0l0,0.1v0l0,0.1l0,0.1l0,0.1l0,0.1l0,0.1l0,0.1l0,0.1l0,0.1
		l0,0.1v8.1v0l0,0.1v0l0,0.1l0,0.1l0,0.1v0l0,0.1v0l0,0.1l0,0.1l0,0.1l0,0.1v0l0,0.1l0,0.1l0,0.1l0,0.1v0l0,0.1l0,0.1l0,0.1l0,0.1
		l0,0.1l0,0.1l-0.1,0.1l-0.1,0.1l-0.1,0.1v0l-0.1,0.1l-0.1,0.1v0l-0.1,0.1v0l-0.1,0.1l-0.1,0.1v0l-0.1,0.1l-0.1,0.1l-0.1,0.1
		l-0.1,0.1v0l-0.1,0.1l-0.1,0.1l-0.1,0.1v0l-0.1,0.1l-0.1,0.1v0l-0.1,0.1l-0.1,0.1v0l-0.1,0.1l-0.1,0.1v0l-0.1,0.1l-0.1,0.1v0
		l-0.1,0.1v0l-0.1,0.1v0l-0.1,0.1l-0.1,0v0l-0.1,0l-0.1,0l-0.1,0l-0.1,0l-0.1,0l-0.1,0l-0.1,0l-0.1,0l-0.1,0l-0.1,0l-0.1,0l-0.1,0
		l-0.1,0l-0.1,0l-0.1,0l-0.1,0l-0.1,0l-0.1,0l0,0L154.1,383.8z M149.6,444.1V436c0-2.5,2-4.6,4.6-4.6c2.5,0,4.6,2,4.6,4.6v8.1
		c0,2.5-2,4.6-4.6,4.6l0,0C151.7,448.7,149.6,446.6,149.6,444.1z M152.3,318.4c-0.1,0-0.1-0.1-0.2-0.1 M151.7,318.1
		c-0.1,0-0.1-0.1-0.2-0.1 M151.6,318c-0.1,0-0.1-0.1-0.2-0.1 M151.4,317.9c-0.1,0-0.1-0.1-0.2-0.1 M151.2,317.7
		c-0.1,0-0.1-0.1-0.2-0.1 M150.7,317.2c0-0.1-0.1-0.1-0.1-0.2 M150.3,316.7c0-0.1-0.1-0.1-0.1-0.2 M154.2,318.8l-0.1,0v0l-0.1,0v0
		l-0.1,0v0l-0.1,0v0l-0.1,0v0l-0.1,0v0l-0.1,0v0l-0.1,0v0l-0.1,0v0l-0.1,0v0l-0.1,0v0l-0.1,0v0l-0.1,0v0l-0.1,0v0l-0.1,0v0l-0.1,0v0
		l-0.1,0v0c-0.1,0-0.1-0.1-0.2-0.1v0c-0.1-0.1-0.3-0.1-0.4-0.2v0c-0.1,0-0.1-0.1-0.2-0.1v0c-0.1,0-0.1-0.1-0.2-0.1v0
		c-0.1,0-0.1-0.1-0.2-0.1v0c-0.1,0-0.1-0.1-0.2-0.1v0c-0.1-0.1-0.2-0.2-0.2-0.2v0l-0.1-0.1v0l-0.1-0.1v0c0-0.1-0.1-0.1-0.1-0.2v0
		c-0.1-0.1-0.1-0.2-0.2-0.3v0c0-0.1-0.1-0.1-0.1-0.2v0l-0.1-0.1v0l-0.1-0.1v0l0-0.1v0l0-0.1v0l0-0.1v0l0-0.1v0l0-0.1v0l0-0.1l0-0.1
		v0l0-0.1v0l0-0.1v0l0-0.1l0-0.1v0l0-0.1v0l0-0.1v0l0-0.1l0-0.1l0-0.1v0l0-0.1v0l0-0.1l0-0.1v-8.1v0l0-0.1v0l0-0.1v0l0-0.1v0l0-0.1
		v0l0-0.1v0l0-0.1v0l0-0.1v0l0-0.1v0l0-0.1v0l0-0.1v0l0-0.1v0l0-0.1v0l0-0.1v0l0-0.1v0l0-0.1v0l0-0.1v0l0-0.1v0l0-0.1v0l0-0.1v0
		l0.1-0.1v0l0.1-0.1v0l0.1-0.1v0c0-0.1,0.1-0.1,0.1-0.2v0l0.1-0.1v0c0-0.1,0.1-0.1,0.1-0.2v0l0.1-0.1v0c0.1-0.1,0.1-0.2,0.2-0.2v0
		l0.1-0.1v0l0.1-0.1v0l0.1-0.1v0l0.1-0.1v0l0.1-0.1v0l0.1-0.1v0l0.1-0.1v0l0.1-0.1v0l0.1-0.1v0l0.1-0.1v0l0.1-0.1v0l0.1-0.1v0
		l0.1-0.1v0l0.1-0.1v0l0.1,0v0l0.1,0l0.1,0v0l0.1,0l0.1,0l0.1,0l0.1,0v0l0.1,0l0.1,0l0.1,0l0.1,0l0.1,0l0.1,0l0.1,0l0.1,0l0.1,0
		l0.1,0l0.1,0l0.1,0l0.1,0l0.1,0l0.1,0l0.1,0l0.1,0l0.1,0l0.1,0l0.1,0l0.1,0l0.1,0l0.1,0l0.1,0v0l0.1,0l0.1,0l0.1,0l0.1,0v0l0.1,0
		l0.1,0v0l0.1,0v0l0.1,0.1v0l0.1,0.1v0l0.1,0.1v0l0.1,0.1v0l0.1,0.1v0l0.1,0.1v0l0.1,0.1v0l0.1,0.1v0l0.1,0.1v0l0.1,0.1v0l0.1,0.1v0
		l0.1,0.1v0l0.1,0.1v0l0.1,0.1v0c0.1,0.1,0.1,0.2,0.2,0.2v0l0.1,0.1v0c0,0.1,0.1,0.1,0.1,0.2v0l0.1,0.1v0c0,0.1,0.1,0.1,0.1,0.2v0
		l0.1,0.1v0l0.1,0.1v0l0.1,0.1v0l0,0.1v0l0,0.1v0l0,0.1v0l0,0.1v0l0,0.1v0l0,0.1v0l0,0.1v0l0,0.1v0l0,0.1v0l0,0.1v0l0,0.1v0l0,0.1v0
		l0,0.1v0l0,0.1v0l0,0.1v0l0,0.1v0l0,0.1v0l0,0.1v0l0,0.1v0v8.1l0,0.1l0,0.1v0l0,0.1v0l0,0.1l0,0.1l0,0.1v0l0,0.1v0l0,0.1v0l0,0.1
		l0,0.1v0l0,0.1v0l0,0.1v0l0,0.1l0,0.1v0l0,0.1v0l0,0.1v0l0,0.1v0l0,0.1v0l0,0.1v0l-0.1,0.1v0l-0.1,0.1v0 M158,316.7L158,316.7
		c-0.1,0.1-0.1,0.2-0.2,0.3v0 M157.7,317.2L157.7,317.2L157.7,317.2L157.7,317.2l-0.1,0.2v0c-0.1,0.1-0.2,0.2-0.2,0.2v0
		 M156.6,318.1L156.6,318.1c-0.1,0.1-0.3,0.2-0.4,0.2v0 M156.1,318.4L156.1,318.4l-0.1,0v0l-0.1,0v0l-0.1,0v0l-0.1,0v0l-0.1,0v0
		l-0.1,0v0l-0.1,0v0l-0.1,0v0l-0.1,0v0l-0.1,0v0l-0.1,0v0l-0.1,0v0l-0.1,0v0l-0.1,0v0l-0.1,0v0l-0.1,0v0l-0.1,0 M154.2,318.8
		L154.2,318.8L154.2,318.8L154.2,318.8z"/>
	<path class="st1" d="M154.1,253.9l-0.1,0l-0.1,0l-0.1,0l-0.1,0l-0.1,0l-0.1,0l-0.1,0l-0.1,0l-0.1,0l-0.1,0l-0.1,0l-0.1,0l-0.1,0
		l-0.1,0l-0.1,0v0l-0.1,0l-0.1,0l-0.1,0l-0.1-0.1l-0.1-0.1l-0.1-0.1l-0.1-0.1l-0.1-0.1l-0.1-0.1l-0.1-0.1l-0.1-0.1v0l-0.1-0.1
		l-0.1-0.1l-0.1-0.1l-0.1-0.1v0l-0.1-0.1l-0.1-0.1l-0.1-0.1v0l-0.1-0.1v0l-0.1-0.1v0l-0.1-0.1l-0.1-0.1v0l-0.1-0.1l-0.1-0.1
		l-0.1-0.1v0l-0.1-0.1l-0.1-0.1l-0.1-0.1l-0.1-0.1v0l0-0.1v0l0-0.1v0l0-0.1v0l0-0.1v0l0-0.1v0l0-0.1v0l0-0.1v0l0-0.1v0l0-0.1l0-0.1
		v0l0-0.1v0l0-0.1v0l0-0.1v0l0-0.1v0l0-0.1v0l0-0.1v0l0-0.1v0l0-0.1v0l0-0.1v0v-8.1v0l0-0.1v0l0-0.1v0l0-0.1l0-0.1v0l0-0.1v0l0-0.1
		l0-0.1l0-0.1l0-0.1l0-0.1l0-0.1l0-0.1l0-0.1l0-0.1v0l0-0.1l0-0.1l0-0.1l0-0.1v0l0-0.1l0.1-0.1l0.1-0.1l0.1-0.1l0.1-0.1v0l0.1-0.1
		l0.1-0.1l0.1-0.1l0.1-0.1l0.1-0.1l0.1-0.1v0l0.1-0.1l0.1-0.1l0.1-0.1l0.1-0.1l0.1-0.1l0.1-0.1l0.1-0.1l0.1-0.1v0l0.1-0.1l0.1-0.1
		l0.1-0.1l0.1-0.1l0.1-0.1l0.1-0.1l0.1-0.1l0.1-0.1l0.1,0l0.1,0v0l0.1,0l0.1,0v0l0.1,0v0l0.1,0v0l0.1,0l0.1,0v0l0.1,0v0l0.1,0v0
		l0.1,0v0l0.1,0v0l0.1,0v0l0.1,0v0l0.1,0v0l0.1,0v0l0.1,0v0l0.1,0v0l0.1,0v0v0l0.1,0v0l0.1,0v0l0.1,0v0l0.1,0v0l0.1,0v0l0.1,0v0
		l0.1,0v0l0.1,0v0l0.1,0v0l0.1,0v0l0.1,0v0l0.1,0l0.1,0v0l0.1,0v0l0.1,0v0l0.1,0l0.1,0v0l0.1,0l0.1,0l0.1,0.1l0.1,0.1l0.1,0.1
		l0.1,0.1l0.1,0.1l0.1,0.1l0.1,0.1l0.1,0.1v0l0.1,0.1l0.1,0.1l0.1,0.1l0.1,0.1l0.1,0.1l0.1,0.1l0.1,0.1l0.1,0.1v0l0.1,0.1l0.1,0.1
		l0.1,0.1l0.1,0.1l0.1,0.1l0.1,0.1v0l0.1,0.1l0.1,0.1l0.1,0.1l0.1,0.1l0,0.1v0l0,0.1l0,0.1l0,0.1l0,0.1v0l0,0.1l0,0.1l0,0.1l0,0.1
		l0,0.1l0,0.1l0,0.1l0,0.1l0,0.1v0l0,0.1v0l0,0.1l0,0.1v0l0,0.1v0l0,0.1v0v8.1v0l0,0.1v0l0,0.1v0l0,0.1v0l0,0.1v0l0,0.1v0l0,0.1v0
		l0,0.1v0l0,0.1v0l0,0.1v0l0,0.1l0,0.1v0l0,0.1v0l0,0.1v0l0,0.1v0l0,0.1v0l0,0.1v0l0,0.1v0l0,0.1v0l0,0.1v0l-0.1,0.1l-0.1,0.1
		l-0.1,0.1l-0.1,0.1v0l-0.1,0.1l-0.1,0.1l-0.1,0.1v0l-0.1,0.1l-0.1,0.1v0l-0.1,0.1v0l-0.1,0.1v0l-0.1,0.1l-0.1,0.1l-0.1,0.1v0
		l-0.1,0.1l-0.1,0.1l-0.1,0.1l-0.1,0.1v0l-0.1,0.1l-0.1,0.1l-0.1,0.1l-0.1,0.1l-0.1,0.1l-0.1,0.1l-0.1,0.1l-0.1,0.1l-0.1,0l-0.1,0
		l-0.1,0v0l-0.1,0l-0.1,0l-0.1,0l-0.1,0l-0.1,0l-0.1,0l-0.1,0l-0.1,0l-0.1,0l-0.1,0l-0.1,0l-0.1,0l-0.1,0l-0.1,0l-0.1,0l-0.1,0l0,0
		L154.1,253.9z M154.2,189l-0.1,0v0l-0.1,0v0l-0.1,0v0l-0.1,0v0l-0.1,0v0l-0.1,0v0l-0.1,0v0l-0.1,0v0l-0.1,0v0l-0.1,0v0l-0.1,0v0
		l-0.1,0v0l-0.1,0v0l-0.1,0v0l-0.1,0v0c-0.1,0-0.1-0.1-0.2-0.1v0l-0.1,0v0l-0.1,0v0l-0.1-0.1v0l-0.1-0.1v0l-0.1-0.1v0l-0.1-0.1v0
		l-0.1-0.1v0l-0.1-0.1v0l-0.1-0.1v0c-0.1,0-0.1-0.1-0.2-0.1v0l-0.1-0.1v0l-0.1-0.1v0l-0.1-0.1v0l-0.1-0.1v0l-0.1-0.1v0
		c-0.1-0.1-0.1-0.1-0.1-0.2v0l-0.1-0.1v0l-0.1-0.1v0c0-0.1-0.1-0.1-0.1-0.2v0l-0.1-0.1v0l-0.1-0.1v0l-0.1-0.1v0l-0.1-0.1v0l-0.1-0.1
		v0l-0.1-0.1v0l0-0.1v0l0-0.1v0l0-0.1v0l0-0.1v0l0-0.1v0l0-0.1v0l0-0.1v0l0-0.1v0l0-0.1l0-0.1l0-0.1v0l0-0.1v0l0-0.1v0l0-0.1l0-0.1
		l0-0.1v0l0-0.1v0l0-0.1l0-0.1v-8.1v0l0-0.1v0l0-0.1v0l0-0.1v0l0-0.1v0l0-0.1v0l0-0.1v0l0-0.1v0l0-0.1v0l0-0.1v0l0-0.1v0l0-0.1v0
		l0-0.1v0l0-0.1l0-0.1l0-0.1v0l0-0.1v0l0-0.1v0l0-0.1l0-0.1v0l0.1-0.1l0.1-0.1l0.1-0.1l0.1-0.1l0.1-0.1l0.1-0.1l0.1-0.1l0.1-0.1
		l0.1-0.1l0.1-0.1l0.1-0.1l0.1-0.1l0.1-0.1l0.1-0.1l0.1-0.1l0.1-0.1l0.1-0.1l0.1-0.1l0.1-0.1l0.1-0.1l0.1-0.1l0.1-0.1l0.1-0.1
		l0.1-0.1l0.1-0.1l0.1-0.1l0.1,0l0.1,0l0.1,0v0l0.1,0l0.1,0l0.1,0l0.1,0l0.1,0l0.1,0l0.1,0l0.1,0l0.1,0l0.1,0l0.1,0l0.1,0l0.1,0
		l0.1,0l0.1,0l0.1,0l0.1,0l0.1,0l0.1,0l0.1,0l0.1,0l0.1,0l0.1,0l0.1,0l0.1,0l0.1,0l0.1,0l0.1,0l0.1,0l0.1,0l0.1,0l0.1,0v0l0.1,0
		l0.1,0l0.1,0l0.1,0.1l0.1,0.1l0.1,0.1l0.1,0.1l0.1,0.1l0.1,0.1l0.1,0.1l0.1,0.1l0.1,0.1l0.1,0.1l0.1,0.1l0.1,0.1l0.1,0.1l0.1,0.1
		l0.1,0.1l0.1,0.1l0.1,0.1l0.1,0.1l0.1,0.1l0.1,0.1l0.1,0.1l0.1,0.1l0.1,0.1l0.1,0.1l0.1,0.1l0.1,0.1v0l0,0.1l0,0.1v0l0,0.1v0l0,0.1
		v0l0,0.1l0,0.1l0,0.1v0l0,0.1v0l0,0.1v0l0,0.1v0l0,0.1v0l0,0.1v0l0,0.1v0l0,0.1v0l0,0.1v0l0,0.1v0l0,0.1v0l0,0.1v0l0,0.1v0v8.1
		l0,0.1l0,0.1v0l0,0.1v0l0,0.1l0,0.1l0,0.1v0l0,0.1v0l0,0.1v0l0,0.1l0,0.1l0,0.1v0l0,0.1v0l0,0.1v0l0,0.1v0l0,0.1v0l0,0.1v0l0,0.1v0
		l0,0.1v0l0,0.1v0l-0.1,0.1v0l-0.1,0.1v0l-0.1,0.1v0l-0.1,0.1v0l-0.1,0.1v0l-0.1,0.1v0c0,0.1-0.1,0.1-0.1,0.2v0l-0.1,0.1v0l-0.1,0.1
		v0c0,0.1-0.1,0.1-0.1,0.2v0l-0.1,0.1v0l-0.1,0.1v0l-0.1,0.1v0l-0.1,0.1v0l-0.1,0.1v0c-0.1,0-0.1,0.1-0.2,0.1v0l-0.1,0.1v0l-0.1,0.1
		v0l-0.1,0.1v0l-0.1,0.1v0l-0.1,0.1v0l-0.1,0.1v0l-0.1,0.1v0l-0.1,0v0l-0.1,0v0c-0.1,0-0.1,0.1-0.2,0.1v0l-0.1,0v0l-0.1,0v0l-0.1,0
		v0l-0.1,0v0l-0.1,0v0l-0.1,0v0l-0.1,0v0l-0.1,0v0l-0.1,0v0l-0.1,0v0l-0.1,0v0l-0.1,0v0l-0.1,0v0l-0.1,0v0L154.2,189L154.2,189
		L154.2,189L154.2,189z M149.6,119.5v-8.1c0-2.5,2-4.6,4.6-4.6c2.5,0,4.6,2,4.6,4.6v8.1c0,2.5-2,4.6-4.6,4.6l0,0
		C151.7,124,149.6,122,149.6,119.5z M154.1,383.8l-0.1,0l-0.1,0l-0.1,0l-0.1,0l-0.1,0l-0.1,0l-0.1,0l-0.1,0l-0.1,0l-0.1,0l-0.1,0
		l-0.1,0l-0.1,0l-0.1,0l-0.1,0l-0.1,0l-0.1,0v0l-0.1,0l-0.1-0.1v0l-0.1-0.1v0l-0.1-0.1v0l-0.1-0.1l-0.1-0.1v0l-0.1-0.1l-0.1-0.1v0
		l-0.1-0.1l-0.1-0.1v0l-0.1-0.1l-0.1-0.1v0l-0.1-0.1l-0.1-0.1l-0.1-0.1v0l-0.1-0.1l-0.1-0.1l-0.1-0.1l-0.1-0.1v0l-0.1-0.1l-0.1-0.1
		v0l-0.1-0.1v0l-0.1-0.1l-0.1-0.1v0l-0.1-0.1l-0.1-0.1l-0.1-0.1l0-0.1l0-0.1l0-0.1l0-0.1l0-0.1l0-0.1v0l0-0.1l0-0.1l0-0.1l0-0.1v0
		l0-0.1l0-0.1l0-0.1l0-0.1v0l0-0.1v0l0-0.1l0-0.1l0-0.1v0l0-0.1v0v-8.1l0-0.1l0-0.1l0-0.1l0-0.1l0-0.1l0-0.1l0-0.1l0-0.1l0-0.1v0
		l0-0.1v0l0-0.1l0-0.1l0-0.1v0l0-0.1v0l0-0.1l0-0.1l0-0.1l0-0.1v0l0-0.1l0.1-0.1v0l0.1-0.1v0l0.1-0.1v0l0.1-0.1v0l0.1-0.1v0l0.1-0.1
		v0l0.1-0.1l0.1-0.1v0l0.1-0.1v0l0.1-0.1v0l0.1-0.1l0.1-0.1v0l0.1-0.1v0l0.1-0.1v0l0.1-0.1v0l0.1-0.1v0l0.1-0.1v0l0.1-0.1l0.1-0.1v0
		l0.1-0.1v0l0.1-0.1v0l0.1-0.1v0l0.1-0.1v0l0.1-0.1v0l0.1-0.1v0l0.1-0.1v0l0.1,0v0l0.1,0v0l0.1,0v0l0.1,0v0l0.1,0v0l0.1,0v0l0.1,0v0
		l0.1,0v0l0.1,0v0l0.1,0v0l0.1,0v0l0.1,0v0l0.1,0v0l0.1,0v0l0.1,0v0l0.1,0v0l0.1,0v0l0.1,0v0l0.1,0v0v0l0.1,0v0l0.1,0v0l0.1,0v0
		l0.1,0v0l0.1,0v0l0.1,0v0l0.1,0v0l0.1,0v0l0.1,0v0l0.1,0v0l0.1,0v0l0.1,0v0l0.1,0v0l0.1,0v0l0.1,0v0l0.1,0v0l0.1,0v0l0.1,0v0l0.1,0
		v0l0.1,0.1v0l0.1,0.1v0l0.1,0.1v0l0.1,0.1v0l0.1,0.1v0l0.1,0.1v0l0.1,0.1v0l0.1,0.1l0.1,0.1v0l0.1,0.1v0l0.1,0.1v0l0.1,0.1v0
		l0.1,0.1v0l0.1,0.1v0l0.1,0.1l0.1,0.1v0l0.1,0.1v0l0.1,0.1v0l0.1,0.1l0.1,0.1v0l0.1,0.1v0l0.1,0.1v0l0.1,0.1v0l0.1,0.1v0l0.1,0.1v0
		l0.1,0.1l0,0.1v0l0,0.1l0,0.1l0,0.1l0,0.1v0l0,0.1v0l0,0.1l0,0.1l0,0.1v0l0,0.1v0l0,0.1l0,0.1l0,0.1l0,0.1l0,0.1l0,0.1l0,0.1l0,0.1
		l0,0.1v8.1v0l0,0.1v0l0,0.1l0,0.1l0,0.1v0l0,0.1v0l0,0.1l0,0.1l0,0.1l0,0.1v0l0,0.1l0,0.1l0,0.1l0,0.1v0l0,0.1l0,0.1l0,0.1l0,0.1
		l0,0.1l0,0.1l-0.1,0.1l-0.1,0.1l-0.1,0.1v0l-0.1,0.1l-0.1,0.1v0l-0.1,0.1v0l-0.1,0.1l-0.1,0.1v0l-0.1,0.1l-0.1,0.1l-0.1,0.1
		l-0.1,0.1v0l-0.1,0.1l-0.1,0.1l-0.1,0.1v0l-0.1,0.1l-0.1,0.1v0l-0.1,0.1l-0.1,0.1v0l-0.1,0.1l-0.1,0.1v0l-0.1,0.1l-0.1,0.1v0
		l-0.1,0.1v0l-0.1,0.1v0l-0.1,0.1l-0.1,0v0l-0.1,0l-0.1,0l-0.1,0l-0.1,0l-0.1,0l-0.1,0l-0.1,0l-0.1,0l-0.1,0l-0.1,0l-0.1,0l-0.1,0
		l-0.1,0l-0.1,0l-0.1,0l-0.1,0l-0.1,0l-0.1,0l0,0L154.1,383.8z M149.6,444.1V436c0-2.5,2-4.6,4.6-4.6c2.5,0,4.6,2,4.6,4.6v8.1
		c0,2.5-2,4.6-4.6,4.6l0,0C151.7,448.7,149.6,446.6,149.6,444.1z M152.3,318.4c-0.1,0-0.1-0.1-0.2-0.1 M151.7,318.1
		c-0.1,0-0.1-0.1-0.2-0.1 M151.6,318c-0.1,0-0.1-0.1-0.2-0.1 M151.4,317.9c-0.1,0-0.1-0.1-0.2-0.1 M151.2,317.7
		c-0.1,0-0.1-0.1-0.2-0.1 M150.7,317.2c0-0.1-0.1-0.1-0.1-0.2 M150.3,316.7c0-0.1-0.1-0.1-0.1-0.2 M154.2,318.8l-0.1,0v0l-0.1,0v0
		l-0.1,0v0l-0.1,0v0l-0.1,0v0l-0.1,0v0l-0.1,0v0l-0.1,0v0l-0.1,0v0l-0.1,0v0l-0.1,0v0l-0.1,0v0l-0.1,0v0l-0.1,0v0l-0.1,0v0l-0.1,0v0
		l-0.1,0v0c-0.1,0-0.1-0.1-0.2-0.1v0c-0.1-0.1-0.3-0.1-0.4-0.2v0c-0.1,0-0.1-0.1-0.2-0.1v0c-0.1,0-0.1-0.1-0.2-0.1v0
		c-0.1,0-0.1-0.1-0.2-0.1v0c-0.1,0-0.1-0.1-0.2-0.1v0c-0.1-0.1-0.2-0.2-0.2-0.2v0l-0.1-0.1v0l-0.1-0.1v0c0-0.1-0.1-0.1-0.1-0.2v0
		c-0.1-0.1-0.1-0.2-0.2-0.3v0c0-0.1-0.1-0.1-0.1-0.2v0l-0.1-0.1v0l-0.1-0.1v0l0-0.1v0l0-0.1v0l0-0.1v0l0-0.1v0l0-0.1v0l0-0.1l0-0.1
		v0l0-0.1v0l0-0.1v0l0-0.1l0-0.1v0l0-0.1v0l0-0.1v0l0-0.1l0-0.1l0-0.1v0l0-0.1v0l0-0.1l0-0.1v-8.1v0l0-0.1v0l0-0.1v0l0-0.1v0l0-0.1
		v0l0-0.1v0l0-0.1v0l0-0.1v0l0-0.1v0l0-0.1v0l0-0.1v0l0-0.1v0l0-0.1v0l0-0.1v0l0-0.1v0l0-0.1v0l0-0.1v0l0-0.1v0l0-0.1v0l0-0.1v0
		l0.1-0.1v0l0.1-0.1v0l0.1-0.1v0c0-0.1,0.1-0.1,0.1-0.2v0l0.1-0.1v0c0-0.1,0.1-0.1,0.1-0.2v0l0.1-0.1v0c0.1-0.1,0.1-0.2,0.2-0.2v0
		l0.1-0.1v0l0.1-0.1v0l0.1-0.1v0l0.1-0.1v0l0.1-0.1v0l0.1-0.1v0l0.1-0.1v0l0.1-0.1v0l0.1-0.1v0l0.1-0.1v0l0.1-0.1v0l0.1-0.1v0
		l0.1-0.1v0l0.1-0.1v0l0.1,0v0l0.1,0l0.1,0v0l0.1,0l0.1,0l0.1,0l0.1,0v0l0.1,0l0.1,0l0.1,0l0.1,0l0.1,0l0.1,0l0.1,0l0.1,0l0.1,0
		l0.1,0l0.1,0l0.1,0l0.1,0l0.1,0l0.1,0l0.1,0l0.1,0l0.1,0l0.1,0l0.1,0l0.1,0l0.1,0l0.1,0l0.1,0v0l0.1,0l0.1,0l0.1,0l0.1,0v0l0.1,0
		l0.1,0v0l0.1,0v0l0.1,0.1v0l0.1,0.1v0l0.1,0.1v0l0.1,0.1v0l0.1,0.1v0l0.1,0.1v0l0.1,0.1v0l0.1,0.1v0l0.1,0.1v0l0.1,0.1v0l0.1,0.1v0
		l0.1,0.1v0l0.1,0.1v0l0.1,0.1v0c0.1,0.1,0.1,0.2,0.2,0.2v0l0.1,0.1v0c0,0.1,0.1,0.1,0.1,0.2v0l0.1,0.1v0c0,0.1,0.1,0.1,0.1,0.2v0
		l0.1,0.1v0l0.1,0.1v0l0.1,0.1v0l0,0.1v0l0,0.1v0l0,0.1v0l0,0.1v0l0,0.1v0l0,0.1v0l0,0.1v0l0,0.1v0l0,0.1v0l0,0.1v0l0,0.1v0l0,0.1v0
		l0,0.1v0l0,0.1v0l0,0.1v0l0,0.1v0l0,0.1v0l0,0.1v0l0,0.1v0v8.1l0,0.1l0,0.1v0l0,0.1v0l0,0.1l0,0.1l0,0.1v0l0,0.1v0l0,0.1v0l0,0.1
		l0,0.1v0l0,0.1v0l0,0.1v0l0,0.1l0,0.1v0l0,0.1v0l0,0.1v0l0,0.1v0l0,0.1v0l0,0.1v0l-0.1,0.1v0l-0.1,0.1v0 M158,316.7L158,316.7
		c-0.1,0.1-0.1,0.2-0.2,0.3v0 M157.7,317.2L157.7,317.2L157.7,317.2L157.7,317.2l-0.1,0.2v0c-0.1,0.1-0.2,0.2-0.2,0.2v0
		 M156.6,318.1L156.6,318.1c-0.1,0.1-0.3,0.2-0.4,0.2v0 M156.1,318.4L156.1,318.4l-0.1,0v0l-0.1,0v0l-0.1,0v0l-0.1,0v0l-0.1,0v0
		l-0.1,0v0l-0.1,0v0l-0.1,0v0l-0.1,0v0l-0.1,0v0l-0.1,0v0l-0.1,0v0l-0.1,0v0l-0.1,0v0l-0.1,0v0l-0.1,0v0l-0.1,0 M154.2,318.8
		L154.2,318.8L154.2,318.8L154.2,318.8z"/>
	<path class="st2" d="M435.6,253.9l-0.1,0l-0.1,0l-0.1,0l-0.1,0l-0.1,0l-0.1,0l-0.1,0l-0.1,0l-0.1,0l-0.1,0l-0.1,0l-0.1,0l-0.1,0
		l-0.1,0l-0.1,0v0l-0.1,0l-0.1,0l-0.1,0l-0.1-0.1l-0.1-0.1l-0.1-0.1l-0.1-0.1l-0.1-0.1l-0.1-0.1L433,253l-0.1-0.1v0l-0.1-0.1
		l-0.1-0.1l-0.1-0.1l-0.1-0.1v0l-0.1-0.1l-0.1-0.1l-0.1-0.1v0l-0.1-0.1v0l-0.1-0.1v0l-0.1-0.1l-0.1-0.1v0L432,252l-0.1-0.1l-0.1-0.1
		v0l-0.1-0.1l-0.1-0.1l-0.1-0.1l-0.1-0.1v0l0-0.1v0l0-0.1v0l0-0.1v0l0-0.1v0l0-0.1v0l0-0.1v0l0-0.1v0l0-0.1v0l0-0.1l0-0.1v0l0-0.1v0
		l0-0.1v0l0-0.1v0l0-0.1v0l0-0.1v0l0-0.1v0l0-0.1v0l0-0.1v0l0-0.1v0v-8.1v0l0-0.1v0l0-0.1v0l0-0.1l0-0.1v0l0-0.1v0l0-0.1l0-0.1
		l0-0.1l0-0.1l0-0.1l0-0.1l0-0.1l0-0.1l0-0.1v0l0-0.1l0-0.1l0-0.1l0-0.1v0l0-0.1l0.1-0.1l0.1-0.1l0.1-0.1l0.1-0.1v0l0.1-0.1l0.1-0.1
		l0.1-0.1l0.1-0.1l0.1-0.1l0.1-0.1v0l0.1-0.1l0.1-0.1l0.1-0.1l0.1-0.1l0.1-0.1l0.1-0.1l0.1-0.1l0.1-0.1v0l0.1-0.1l0.1-0.1l0.1-0.1
		l0.1-0.1l0.1-0.1l0.1-0.1l0.1-0.1l0.1-0.1l0.1,0l0.1,0v0l0.1,0l0.1,0v0l0.1,0v0l0.1,0v0l0.1,0l0.1,0v0l0.1,0v0l0.1,0v0l0.1,0v0
		l0.1,0v0l0.1,0v0l0.1,0v0l0.1,0v0l0.1,0v0l0.1,0v0l0.1,0v0l0.1,0v0v0l0.1,0v0l0.1,0v0l0.1,0v0l0.1,0v0l0.1,0v0l0.1,0v0l0.1,0v0
		l0.1,0v0l0.1,0v0l0.1,0v0l0.1,0v0l0.1,0l0.1,0v0l0.1,0v0l0.1,0v0l0.1,0l0.1,0v0l0.1,0l0.1,0l0.1,0.1l0.1,0.1l0.1,0.1l0.1,0.1
		l0.1,0.1l0.1,0.1l0.1,0.1l0.1,0.1v0l0.1,0.1l0.1,0.1l0.1,0.1l0.1,0.1l0.1,0.1l0.1,0.1l0.1,0.1l0.1,0.1v0l0.1,0.1l0.1,0.1l0.1,0.1
		l0.1,0.1l0.1,0.1l0.1,0.1v0l0.1,0.1l0.1,0.1l0.1,0.1l0.1,0.1l0,0.1v0l0,0.1l0,0.1l0,0.1l0,0.1v0l0,0.1l0,0.1l0,0.1l0,0.1l0,0.1
		l0,0.1l0,0.1l0,0.1l0,0.1v0l0,0.1v0l0,0.1l0,0.1v0l0,0.1v0l0,0.1v0v8.1v0l0,0.1v0l0,0.1v0l0,0.1v0l0,0.1v0l0,0.1v0l0,0.1v0l0,0.1v0
		l0,0.1v0l0,0.1v0l0,0.1l0,0.1v0l0,0.1v0l0,0.1v0l0,0.1v0l0,0.1v0l0,0.1v0l0,0.1v0l0,0.1v0l0,0.1v0l-0.1,0.1l-0.1,0.1l-0.1,0.1
		l-0.1,0.1v0l-0.1,0.1l-0.1,0.1l-0.1,0.1v0l-0.1,0.1l-0.1,0.1v0l-0.1,0.1v0l-0.1,0.1v0l-0.1,0.1l-0.1,0.1l-0.1,0.1v0l-0.1,0.1
		l-0.1,0.1l-0.1,0.1l-0.1,0.1v0l-0.1,0.1l-0.1,0.1l-0.1,0.1l-0.1,0.1l-0.1,0.1l-0.1,0.1l-0.1,0.1l-0.1,0.1l-0.1,0l-0.1,0l-0.1,0v0
		l-0.1,0l-0.1,0l-0.1,0l-0.1,0l-0.1,0l-0.1,0l-0.1,0l-0.1,0l-0.1,0l-0.1,0l-0.1,0l-0.1,0l-0.1,0l-0.1,0l-0.1,0l-0.1,0l0,0
		L435.6,253.9z M435.7,189l-0.1,0v0l-0.1,0v0l-0.1,0v0l-0.1,0v0l-0.1,0v0l-0.1,0v0l-0.1,0v0l-0.1,0v0l-0.1,0v0l-0.1,0v0l-0.1,0v0
		l-0.1,0v0l-0.1,0v0l-0.1,0v0l-0.1,0v0c-0.1,0-0.1-0.1-0.2-0.1v0l-0.1,0v0l-0.1,0v0l-0.1-0.1v0l-0.1-0.1v0l-0.1-0.1v0l-0.1-0.1v0
		l-0.1-0.1v0l-0.1-0.1v0L433,188v0c-0.1,0-0.1-0.1-0.2-0.1v0l-0.1-0.1v0l-0.1-0.1v0l-0.1-0.1v0l-0.1-0.1v0l-0.1-0.1v0
		c-0.1-0.1-0.1-0.1-0.1-0.2v0l-0.1-0.1v0l-0.1-0.1v0c0-0.1-0.1-0.1-0.1-0.2v0l-0.1-0.1v0l-0.1-0.1v0l-0.1-0.1v0l-0.1-0.1v0l-0.1-0.1
		v0l-0.1-0.1v0l0-0.1v0l0-0.1v0l0-0.1v0l0-0.1v0l0-0.1v0l0-0.1v0l0-0.1v0l0-0.1v0l0-0.1l0-0.1l0-0.1v0l0-0.1v0l0-0.1v0l0-0.1l0-0.1
		l0-0.1v0l0-0.1v0l0-0.1l0-0.1v-8.1v0l0-0.1v0l0-0.1v0l0-0.1v0l0-0.1v0l0-0.1v0l0-0.1v0l0-0.1v0l0-0.1v0l0-0.1v0l0-0.1v0l0-0.1v0
		l0-0.1v0l0-0.1l0-0.1l0-0.1v0l0-0.1v0l0-0.1v0l0-0.1l0-0.1v0l0.1-0.1l0.1-0.1l0.1-0.1l0.1-0.1l0.1-0.1l0.1-0.1l0.1-0.1l0.1-0.1
		l0.1-0.1l0.1-0.1l0.1-0.1l0.1-0.1l0.1-0.1l0.1-0.1l0.1-0.1l0.1-0.1l0.1-0.1l0.1-0.1l0.1-0.1l0.1-0.1l0.1-0.1l0.1-0.1l0.1-0.1
		l0.1-0.1l0.1-0.1l0.1-0.1l0.1,0l0.1,0l0.1,0v0l0.1,0l0.1,0l0.1,0l0.1,0l0.1,0l0.1,0l0.1,0l0.1,0l0.1,0l0.1,0l0.1,0l0.1,0l0.1,0
		l0.1,0l0.1,0l0.1,0l0.1,0l0.1,0l0.1,0l0.1,0l0.1,0l0.1,0l0.1,0l0.1,0l0.1,0l0.1,0l0.1,0l0.1,0l0.1,0l0.1,0l0.1,0l0.1,0v0l0.1,0
		l0.1,0l0.1,0l0.1,0.1l0.1,0.1l0.1,0.1l0.1,0.1l0.1,0.1l0.1,0.1l0.1,0.1l0.1,0.1l0.1,0.1l0.1,0.1l0.1,0.1l0.1,0.1l0.1,0.1l0.1,0.1
		l0.1,0.1l0.1,0.1l0.1,0.1l0.1,0.1l0.1,0.1l0.1,0.1l0.1,0.1l0.1,0.1l0.1,0.1l0.1,0.1l0.1,0.1l0.1,0.1v0l0,0.1l0,0.1v0l0,0.1v0l0,0.1
		v0l0,0.1l0,0.1l0,0.1v0l0,0.1v0l0,0.1v0l0,0.1v0l0,0.1v0l0,0.1v0l0,0.1v0l0,0.1v0l0,0.1v0l0,0.1v0l0,0.1v0l0,0.1v0l0,0.1v0v8.1
		l0,0.1l0,0.1v0l0,0.1v0l0,0.1l0,0.1l0,0.1v0l0,0.1v0l0,0.1v0l0,0.1l0,0.1l0,0.1v0l0,0.1v0l0,0.1v0l0,0.1v0l0,0.1v0l0,0.1v0l0,0.1v0
		l0,0.1v0l0,0.1v0l-0.1,0.1v0l-0.1,0.1v0l-0.1,0.1v0l-0.1,0.1v0l-0.1,0.1v0l-0.1,0.1v0c0,0.1-0.1,0.1-0.1,0.2v0l-0.1,0.1v0l-0.1,0.1
		v0c0,0.1-0.1,0.1-0.1,0.2v0l-0.1,0.1v0l-0.1,0.1v0l-0.1,0.1v0l-0.1,0.1v0l-0.1,0.1v0c-0.1,0-0.1,0.1-0.2,0.1v0l-0.1,0.1v0l-0.1,0.1
		v0l-0.1,0.1v0l-0.1,0.1v0l-0.1,0.1v0l-0.1,0.1v0l-0.1,0.1v0l-0.1,0v0l-0.1,0v0c-0.1,0-0.1,0.1-0.2,0.1v0l-0.1,0v0l-0.1,0v0l-0.1,0
		v0l-0.1,0v0l-0.1,0v0l-0.1,0v0l-0.1,0v0l-0.1,0v0l-0.1,0v0l-0.1,0v0l-0.1,0v0l-0.1,0v0l-0.1,0v0l-0.1,0v0L435.7,189L435.7,189
		L435.7,189L435.7,189z M435.6,383.8l-0.1,0l-0.1,0l-0.1,0l-0.1,0l-0.1,0l-0.1,0l-0.1,0l-0.1,0l-0.1,0l-0.1,0l-0.1,0l-0.1,0l-0.1,0
		l-0.1,0l-0.1,0l-0.1,0l-0.1,0v0l-0.1,0l-0.1-0.1v0l-0.1-0.1v0l-0.1-0.1v0l-0.1-0.1l-0.1-0.1v0l-0.1-0.1l-0.1-0.1v0l-0.1-0.1
		l-0.1-0.1v0l-0.1-0.1l-0.1-0.1v0l-0.1-0.1l-0.1-0.1l-0.1-0.1v0l-0.1-0.1l-0.1-0.1l-0.1-0.1l-0.1-0.1v0l-0.1-0.1l-0.1-0.1v0
		l-0.1-0.1v0l-0.1-0.1l-0.1-0.1v0l-0.1-0.1l-0.1-0.1l-0.1-0.1l0-0.1l0-0.1l0-0.1l0-0.1l0-0.1l0-0.1v0l0-0.1l0-0.1l0-0.1l0-0.1v0
		l0-0.1l0-0.1l0-0.1l0-0.1v0l0-0.1v0l0-0.1l0-0.1l0-0.1v0l0-0.1v0v-8.1l0-0.1l0-0.1l0-0.1l0-0.1l0-0.1l0-0.1l0-0.1l0-0.1l0-0.1v0
		l0-0.1v0l0-0.1l0-0.1l0-0.1v0l0-0.1v0l0-0.1l0-0.1l0-0.1l0-0.1v0l0-0.1l0.1-0.1v0l0.1-0.1v0l0.1-0.1v0l0.1-0.1v0l0.1-0.1v0l0.1-0.1
		v0l0.1-0.1l0.1-0.1v0l0.1-0.1v0l0.1-0.1v0l0.1-0.1l0.1-0.1v0l0.1-0.1v0l0.1-0.1v0l0.1-0.1v0l0.1-0.1v0l0.1-0.1v0l0.1-0.1l0.1-0.1v0
		l0.1-0.1v0l0.1-0.1v0l0.1-0.1v0l0.1-0.1v0l0.1-0.1v0l0.1-0.1v0l0.1-0.1v0l0.1,0v0l0.1,0v0l0.1,0v0l0.1,0v0l0.1,0v0l0.1,0v0l0.1,0v0
		l0.1,0v0l0.1,0v0l0.1,0v0l0.1,0v0l0.1,0v0l0.1,0v0l0.1,0v0l0.1,0v0l0.1,0v0l0.1,0v0l0.1,0v0l0.1,0v0v0l0.1,0v0l0.1,0v0l0.1,0v0
		l0.1,0v0l0.1,0v0l0.1,0v0l0.1,0v0l0.1,0v0l0.1,0v0l0.1,0v0l0.1,0v0l0.1,0v0l0.1,0v0l0.1,0v0l0.1,0v0l0.1,0v0l0.1,0v0l0.1,0v0l0.1,0
		v0l0.1,0.1v0l0.1,0.1v0l0.1,0.1v0l0.1,0.1v0l0.1,0.1v0l0.1,0.1v0l0.1,0.1v0l0.1,0.1l0.1,0.1v0l0.1,0.1v0l0.1,0.1v0l0.1,0.1v0
		l0.1,0.1v0l0.1,0.1v0l0.1,0.1l0.1,0.1v0l0.1,0.1v0l0.1,0.1v0l0.1,0.1l0.1,0.1v0l0.1,0.1v0l0.1,0.1v0l0.1,0.1v0l0.1,0.1v0l0.1,0.1v0
		l0.1,0.1l0,0.1v0l0,0.1l0,0.1l0,0.1l0,0.1v0l0,0.1v0l0,0.1l0,0.1l0,0.1v0l0,0.1v0l0,0.1l0,0.1l0,0.1l0,0.1l0,0.1l0,0.1l0,0.1l0,0.1
		l0,0.1v8.1v0l0,0.1v0l0,0.1l0,0.1l0,0.1v0l0,0.1v0l0,0.1l0,0.1l0,0.1l0,0.1v0l0,0.1l0,0.1l0,0.1l0,0.1v0l0,0.1l0,0.1l0,0.1l0,0.1
		l0,0.1l0,0.1l-0.1,0.1l-0.1,0.1l-0.1,0.1v0l-0.1,0.1l-0.1,0.1v0l-0.1,0.1v0l-0.1,0.1l-0.1,0.1v0l-0.1,0.1l-0.1,0.1l-0.1,0.1
		l-0.1,0.1v0l-0.1,0.1l-0.1,0.1l-0.1,0.1v0l-0.1,0.1l-0.1,0.1v0l-0.1,0.1l-0.1,0.1v0l-0.1,0.1l-0.1,0.1v0l-0.1,0.1l-0.1,0.1v0
		l-0.1,0.1v0l-0.1,0.1v0l-0.1,0.1l-0.1,0v0l-0.1,0l-0.1,0l-0.1,0l-0.1,0l-0.1,0l-0.1,0l-0.1,0l-0.1,0l-0.1,0l-0.1,0l-0.1,0l-0.1,0
		l-0.1,0l-0.1,0l-0.1,0l-0.1,0l-0.1,0l-0.1,0l0,0L435.6,383.8z M431.2,444.1V436c0-2.5,2-4.6,4.6-4.6c2.5,0,4.6,2,4.6,4.6v8.1
		c0,2.5-2,4.6-4.6,4.6l0,0C433.2,448.7,431.2,446.6,431.2,444.1z M433.9,318.4c-0.1,0-0.1-0.1-0.2-0.1 M433.3,318.1
		c-0.1,0-0.1-0.1-0.2-0.1 M433.1,318c-0.1,0-0.1-0.1-0.2-0.1 M432.9,317.9c-0.1,0-0.1-0.1-0.2-0.1 M432.8,317.7
		c-0.1,0-0.1-0.1-0.2-0.1 M432.2,317.2c0-0.1-0.1-0.1-0.1-0.2 M431.9,316.7c0-0.1-0.1-0.1-0.1-0.2 M435.7,318.8l-0.1,0v0l-0.1,0v0
		l-0.1,0v0l-0.1,0v0l-0.1,0v0l-0.1,0v0l-0.1,0v0l-0.1,0v0l-0.1,0v0l-0.1,0v0l-0.1,0v0l-0.1,0v0l-0.1,0v0l-0.1,0v0l-0.1,0v0l-0.1,0v0
		l-0.1,0v0c-0.1,0-0.1-0.1-0.2-0.1v0c-0.1-0.1-0.3-0.1-0.4-0.2v0c-0.1,0-0.1-0.1-0.2-0.1v0c-0.1,0-0.1-0.1-0.2-0.1v0
		c-0.1,0-0.1-0.1-0.2-0.1v0c-0.1,0-0.1-0.1-0.2-0.1v0c-0.1-0.1-0.2-0.2-0.2-0.2v0l-0.1-0.1v0l-0.1-0.1v0c0-0.1-0.1-0.1-0.1-0.2v0
		c-0.1-0.1-0.1-0.2-0.2-0.3v0c0-0.1-0.1-0.1-0.1-0.2v0l-0.1-0.1v0l-0.1-0.1v0l0-0.1v0l0-0.1v0l0-0.1v0l0-0.1v0l0-0.1v0l0-0.1l0-0.1
		v0l0-0.1v0l0-0.1v0l0-0.1l0-0.1v0l0-0.1v0l0-0.1v0l0-0.1l0-0.1l0-0.1v0l0-0.1v0l0-0.1l0-0.1v-8.1v0l0-0.1v0l0-0.1v0l0-0.1v0l0-0.1
		v0l0-0.1v0l0-0.1v0l0-0.1v0l0-0.1v0l0-0.1v0l0-0.1v0l0-0.1v0l0-0.1v0l0-0.1v0l0-0.1v0l0-0.1v0l0-0.1v0l0-0.1v0l0-0.1v0l0-0.1v0
		l0.1-0.1v0l0.1-0.1v0l0.1-0.1v0c0-0.1,0.1-0.1,0.1-0.2v0l0.1-0.1v0c0-0.1,0.1-0.1,0.1-0.2v0l0.1-0.1v0c0.1-0.1,0.1-0.2,0.2-0.2v0
		l0.1-0.1v0l0.1-0.1v0l0.1-0.1v0l0.1-0.1v0l0.1-0.1v0l0.1-0.1v0l0.1-0.1v0l0.1-0.1v0l0.1-0.1v0l0.1-0.1v0l0.1-0.1v0l0.1-0.1v0
		l0.1-0.1v0l0.1-0.1v0l0.1,0v0l0.1,0l0.1,0v0l0.1,0l0.1,0l0.1,0l0.1,0v0l0.1,0l0.1,0l0.1,0l0.1,0l0.1,0l0.1,0l0.1,0l0.1,0l0.1,0
		l0.1,0l0.1,0l0.1,0l0.1,0l0.1,0l0.1,0l0.1,0l0.1,0l0.1,0l0.1,0l0.1,0l0.1,0l0.1,0l0.1,0l0.1,0v0l0.1,0l0.1,0l0.1,0l0.1,0v0l0.1,0
		l0.1,0v0l0.1,0v0l0.1,0.1v0l0.1,0.1v0l0.1,0.1v0l0.1,0.1v0l0.1,0.1v0l0.1,0.1v0l0.1,0.1v0l0.1,0.1v0l0.1,0.1v0l0.1,0.1v0l0.1,0.1v0
		l0.1,0.1v0l0.1,0.1v0l0.1,0.1v0c0.1,0.1,0.1,0.2,0.2,0.2v0l0.1,0.1v0c0,0.1,0.1,0.1,0.1,0.2v0l0.1,0.1v0c0,0.1,0.1,0.1,0.1,0.2v0
		l0.1,0.1v0l0.1,0.1v0l0.1,0.1v0l0,0.1v0l0,0.1v0l0,0.1v0l0,0.1v0l0,0.1v0l0,0.1v0l0,0.1v0l0,0.1v0l0,0.1v0l0,0.1v0l0,0.1v0l0,0.1v0
		l0,0.1v0l0,0.1v0l0,0.1v0l0,0.1v0l0,0.1v0l0,0.1v0l0,0.1v0v8.1l0,0.1l0,0.1v0l0,0.1v0l0,0.1l0,0.1l0,0.1v0l0,0.1v0l0,0.1v0l0,0.1
		l0,0.1v0l0,0.1v0l0,0.1v0l0,0.1l0,0.1v0l0,0.1v0l0,0.1v0l0,0.1v0l0,0.1v0l0,0.1v0l-0.1,0.1v0l-0.1,0.1v0 M439.6,316.7L439.6,316.7
		c-0.1,0.1-0.1,0.2-0.2,0.3v0 M439.3,317.2L439.3,317.2L439.3,317.2L439.3,317.2l-0.1,0.2v0c-0.1,0.1-0.2,0.2-0.2,0.2v0
		 M438.2,318.1L438.2,318.1c-0.1,0.1-0.3,0.2-0.4,0.2v0 M437.6,318.4L437.6,318.4l-0.1,0v0l-0.1,0v0l-0.1,0v0l-0.1,0v0l-0.1,0v0
		l-0.1,0v0l-0.1,0v0l-0.1,0v0l-0.1,0v0l-0.1,0v0l-0.1,0v0l-0.1,0v0l-0.1,0v0l-0.1,0v0l-0.1,0v0l-0.1,0v0l-0.1,0 M435.7,318.8
		L435.7,318.8L435.7,318.8L435.7,318.8z"/>
	<path class="st1" d="M435.6,253.9l-0.1,0l-0.1,0l-0.1,0l-0.1,0l-0.1,0l-0.1,0l-0.1,0l-0.1,0l-0.1,0l-0.1,0l-0.1,0l-0.1,0l-0.1,0
		l-0.1,0l-0.1,0v0l-0.1,0l-0.1,0l-0.1,0l-0.1-0.1l-0.1-0.1l-0.1-0.1l-0.1-0.1l-0.1-0.1l-0.1-0.1L433,253l-0.1-0.1v0l-0.1-0.1
		l-0.1-0.1l-0.1-0.1l-0.1-0.1v0l-0.1-0.1l-0.1-0.1l-0.1-0.1v0l-0.1-0.1v0l-0.1-0.1v0l-0.1-0.1l-0.1-0.1v0L432,252l-0.1-0.1l-0.1-0.1
		v0l-0.1-0.1l-0.1-0.1l-0.1-0.1l-0.1-0.1v0l0-0.1v0l0-0.1v0l0-0.1v0l0-0.1v0l0-0.1v0l0-0.1v0l0-0.1v0l0-0.1v0l0-0.1l0-0.1v0l0-0.1v0
		l0-0.1v0l0-0.1v0l0-0.1v0l0-0.1v0l0-0.1v0l0-0.1v0l0-0.1v0l0-0.1v0v-8.1v0l0-0.1v0l0-0.1v0l0-0.1l0-0.1v0l0-0.1v0l0-0.1l0-0.1
		l0-0.1l0-0.1l0-0.1l0-0.1l0-0.1l0-0.1l0-0.1v0l0-0.1l0-0.1l0-0.1l0-0.1v0l0-0.1l0.1-0.1l0.1-0.1l0.1-0.1l0.1-0.1v0l0.1-0.1l0.1-0.1
		l0.1-0.1l0.1-0.1l0.1-0.1l0.1-0.1v0l0.1-0.1l0.1-0.1l0.1-0.1l0.1-0.1l0.1-0.1l0.1-0.1l0.1-0.1l0.1-0.1v0l0.1-0.1l0.1-0.1l0.1-0.1
		l0.1-0.1l0.1-0.1l0.1-0.1l0.1-0.1l0.1-0.1l0.1,0l0.1,0v0l0.1,0l0.1,0v0l0.1,0v0l0.1,0v0l0.1,0l0.1,0v0l0.1,0v0l0.1,0v0l0.1,0v0
		l0.1,0v0l0.1,0v0l0.1,0v0l0.1,0v0l0.1,0v0l0.1,0v0l0.1,0v0l0.1,0v0v0l0.1,0v0l0.1,0v0l0.1,0v0l0.1,0v0l0.1,0v0l0.1,0v0l0.1,0v0
		l0.1,0v0l0.1,0v0l0.1,0v0l0.1,0v0l0.1,0l0.1,0v0l0.1,0v0l0.1,0v0l0.1,0l0.1,0v0l0.1,0l0.1,0l0.1,0.1l0.1,0.1l0.1,0.1l0.1,0.1
		l0.1,0.1l0.1,0.1l0.1,0.1l0.1,0.1v0l0.1,0.1l0.1,0.1l0.1,0.1l0.1,0.1l0.1,0.1l0.1,0.1l0.1,0.1l0.1,0.1v0l0.1,0.1l0.1,0.1l0.1,0.1
		l0.1,0.1l0.1,0.1l0.1,0.1v0l0.1,0.1l0.1,0.1l0.1,0.1l0.1,0.1l0,0.1v0l0,0.1l0,0.1l0,0.1l0,0.1v0l0,0.1l0,0.1l0,0.1l0,0.1l0,0.1
		l0,0.1l0,0.1l0,0.1l0,0.1v0l0,0.1v0l0,0.1l0,0.1v0l0,0.1v0l0,0.1v0v8.1v0l0,0.1v0l0,0.1v0l0,0.1v0l0,0.1v0l0,0.1v0l0,0.1v0l0,0.1v0
		l0,0.1v0l0,0.1v0l0,0.1l0,0.1v0l0,0.1v0l0,0.1v0l0,0.1v0l0,0.1v0l0,0.1v0l0,0.1v0l0,0.1v0l0,0.1v0l-0.1,0.1l-0.1,0.1l-0.1,0.1
		l-0.1,0.1v0l-0.1,0.1l-0.1,0.1l-0.1,0.1v0l-0.1,0.1l-0.1,0.1v0l-0.1,0.1v0l-0.1,0.1v0l-0.1,0.1l-0.1,0.1l-0.1,0.1v0l-0.1,0.1
		l-0.1,0.1l-0.1,0.1l-0.1,0.1v0l-0.1,0.1l-0.1,0.1l-0.1,0.1l-0.1,0.1l-0.1,0.1l-0.1,0.1l-0.1,0.1l-0.1,0.1l-0.1,0l-0.1,0l-0.1,0v0
		l-0.1,0l-0.1,0l-0.1,0l-0.1,0l-0.1,0l-0.1,0l-0.1,0l-0.1,0l-0.1,0l-0.1,0l-0.1,0l-0.1,0l-0.1,0l-0.1,0l-0.1,0l-0.1,0l0,0
		L435.6,253.9z M435.7,189l-0.1,0v0l-0.1,0v0l-0.1,0v0l-0.1,0v0l-0.1,0v0l-0.1,0v0l-0.1,0v0l-0.1,0v0l-0.1,0v0l-0.1,0v0l-0.1,0v0
		l-0.1,0v0l-0.1,0v0l-0.1,0v0l-0.1,0v0c-0.1,0-0.1-0.1-0.2-0.1v0l-0.1,0v0l-0.1,0v0l-0.1-0.1v0l-0.1-0.1v0l-0.1-0.1v0l-0.1-0.1v0
		l-0.1-0.1v0l-0.1-0.1v0L433,188v0c-0.1,0-0.1-0.1-0.2-0.1v0l-0.1-0.1v0l-0.1-0.1v0l-0.1-0.1v0l-0.1-0.1v0l-0.1-0.1v0
		c-0.1-0.1-0.1-0.1-0.1-0.2v0l-0.1-0.1v0l-0.1-0.1v0c0-0.1-0.1-0.1-0.1-0.2v0l-0.1-0.1v0l-0.1-0.1v0l-0.1-0.1v0l-0.1-0.1v0l-0.1-0.1
		v0l-0.1-0.1v0l0-0.1v0l0-0.1v0l0-0.1v0l0-0.1v0l0-0.1v0l0-0.1v0l0-0.1v0l0-0.1v0l0-0.1l0-0.1l0-0.1v0l0-0.1v0l0-0.1v0l0-0.1l0-0.1
		l0-0.1v0l0-0.1v0l0-0.1l0-0.1v-8.1v0l0-0.1v0l0-0.1v0l0-0.1v0l0-0.1v0l0-0.1v0l0-0.1v0l0-0.1v0l0-0.1v0l0-0.1v0l0-0.1v0l0-0.1v0
		l0-0.1v0l0-0.1l0-0.1l0-0.1v0l0-0.1v0l0-0.1v0l0-0.1l0-0.1v0l0.1-0.1l0.1-0.1l0.1-0.1l0.1-0.1l0.1-0.1l0.1-0.1l0.1-0.1l0.1-0.1
		l0.1-0.1l0.1-0.1l0.1-0.1l0.1-0.1l0.1-0.1l0.1-0.1l0.1-0.1l0.1-0.1l0.1-0.1l0.1-0.1l0.1-0.1l0.1-0.1l0.1-0.1l0.1-0.1l0.1-0.1
		l0.1-0.1l0.1-0.1l0.1-0.1l0.1,0l0.1,0l0.1,0v0l0.1,0l0.1,0l0.1,0l0.1,0l0.1,0l0.1,0l0.1,0l0.1,0l0.1,0l0.1,0l0.1,0l0.1,0l0.1,0
		l0.1,0l0.1,0l0.1,0l0.1,0l0.1,0l0.1,0l0.1,0l0.1,0l0.1,0l0.1,0l0.1,0l0.1,0l0.1,0l0.1,0l0.1,0l0.1,0l0.1,0l0.1,0l0.1,0v0l0.1,0
		l0.1,0l0.1,0l0.1,0.1l0.1,0.1l0.1,0.1l0.1,0.1l0.1,0.1l0.1,0.1l0.1,0.1l0.1,0.1l0.1,0.1l0.1,0.1l0.1,0.1l0.1,0.1l0.1,0.1l0.1,0.1
		l0.1,0.1l0.1,0.1l0.1,0.1l0.1,0.1l0.1,0.1l0.1,0.1l0.1,0.1l0.1,0.1l0.1,0.1l0.1,0.1l0.1,0.1l0.1,0.1v0l0,0.1l0,0.1v0l0,0.1v0l0,0.1
		v0l0,0.1l0,0.1l0,0.1v0l0,0.1v0l0,0.1v0l0,0.1v0l0,0.1v0l0,0.1v0l0,0.1v0l0,0.1v0l0,0.1v0l0,0.1v0l0,0.1v0l0,0.1v0l0,0.1v0v8.1
		l0,0.1l0,0.1v0l0,0.1v0l0,0.1l0,0.1l0,0.1v0l0,0.1v0l0,0.1v0l0,0.1l0,0.1l0,0.1v0l0,0.1v0l0,0.1v0l0,0.1v0l0,0.1v0l0,0.1v0l0,0.1v0
		l0,0.1v0l0,0.1v0l-0.1,0.1v0l-0.1,0.1v0l-0.1,0.1v0l-0.1,0.1v0l-0.1,0.1v0l-0.1,0.1v0c0,0.1-0.1,0.1-0.1,0.2v0l-0.1,0.1v0l-0.1,0.1
		v0c0,0.1-0.1,0.1-0.1,0.2v0l-0.1,0.1v0l-0.1,0.1v0l-0.1,0.1v0l-0.1,0.1v0l-0.1,0.1v0c-0.1,0-0.1,0.1-0.2,0.1v0l-0.1,0.1v0l-0.1,0.1
		v0l-0.1,0.1v0l-0.1,0.1v0l-0.1,0.1v0l-0.1,0.1v0l-0.1,0.1v0l-0.1,0v0l-0.1,0v0c-0.1,0-0.1,0.1-0.2,0.1v0l-0.1,0v0l-0.1,0v0l-0.1,0
		v0l-0.1,0v0l-0.1,0v0l-0.1,0v0l-0.1,0v0l-0.1,0v0l-0.1,0v0l-0.1,0v0l-0.1,0v0l-0.1,0v0l-0.1,0v0l-0.1,0v0L435.7,189L435.7,189
		L435.7,189L435.7,189z M435.6,383.8l-0.1,0l-0.1,0l-0.1,0l-0.1,0l-0.1,0l-0.1,0l-0.1,0l-0.1,0l-0.1,0l-0.1,0l-0.1,0l-0.1,0l-0.1,0
		l-0.1,0l-0.1,0l-0.1,0l-0.1,0v0l-0.1,0l-0.1-0.1v0l-0.1-0.1v0l-0.1-0.1v0l-0.1-0.1l-0.1-0.1v0l-0.1-0.1l-0.1-0.1v0l-0.1-0.1
		l-0.1-0.1v0l-0.1-0.1l-0.1-0.1v0l-0.1-0.1l-0.1-0.1l-0.1-0.1v0l-0.1-0.1l-0.1-0.1l-0.1-0.1l-0.1-0.1v0l-0.1-0.1l-0.1-0.1v0
		l-0.1-0.1v0l-0.1-0.1l-0.1-0.1v0l-0.1-0.1l-0.1-0.1l-0.1-0.1l0-0.1l0-0.1l0-0.1l0-0.1l0-0.1l0-0.1v0l0-0.1l0-0.1l0-0.1l0-0.1v0
		l0-0.1l0-0.1l0-0.1l0-0.1v0l0-0.1v0l0-0.1l0-0.1l0-0.1v0l0-0.1v0v-8.1l0-0.1l0-0.1l0-0.1l0-0.1l0-0.1l0-0.1l0-0.1l0-0.1l0-0.1v0
		l0-0.1v0l0-0.1l0-0.1l0-0.1v0l0-0.1v0l0-0.1l0-0.1l0-0.1l0-0.1v0l0-0.1l0.1-0.1v0l0.1-0.1v0l0.1-0.1v0l0.1-0.1v0l0.1-0.1v0l0.1-0.1
		v0l0.1-0.1l0.1-0.1v0l0.1-0.1v0l0.1-0.1v0l0.1-0.1l0.1-0.1v0l0.1-0.1v0l0.1-0.1v0l0.1-0.1v0l0.1-0.1v0l0.1-0.1v0l0.1-0.1l0.1-0.1v0
		l0.1-0.1v0l0.1-0.1v0l0.1-0.1v0l0.1-0.1v0l0.1-0.1v0l0.1-0.1v0l0.1-0.1v0l0.1,0v0l0.1,0v0l0.1,0v0l0.1,0v0l0.1,0v0l0.1,0v0l0.1,0v0
		l0.1,0v0l0.1,0v0l0.1,0v0l0.1,0v0l0.1,0v0l0.1,0v0l0.1,0v0l0.1,0v0l0.1,0v0l0.1,0v0l0.1,0v0l0.1,0v0v0l0.1,0v0l0.1,0v0l0.1,0v0
		l0.1,0v0l0.1,0v0l0.1,0v0l0.1,0v0l0.1,0v0l0.1,0v0l0.1,0v0l0.1,0v0l0.1,0v0l0.1,0v0l0.1,0v0l0.1,0v0l0.1,0v0l0.1,0v0l0.1,0v0l0.1,0
		v0l0.1,0.1v0l0.1,0.1v0l0.1,0.1v0l0.1,0.1v0l0.1,0.1v0l0.1,0.1v0l0.1,0.1v0l0.1,0.1l0.1,0.1v0l0.1,0.1v0l0.1,0.1v0l0.1,0.1v0
		l0.1,0.1v0l0.1,0.1v0l0.1,0.1l0.1,0.1v0l0.1,0.1v0l0.1,0.1v0l0.1,0.1l0.1,0.1v0l0.1,0.1v0l0.1,0.1v0l0.1,0.1v0l0.1,0.1v0l0.1,0.1v0
		l0.1,0.1l0,0.1v0l0,0.1l0,0.1l0,0.1l0,0.1v0l0,0.1v0l0,0.1l0,0.1l0,0.1v0l0,0.1v0l0,0.1l0,0.1l0,0.1l0,0.1l0,0.1l0,0.1l0,0.1l0,0.1
		l0,0.1v8.1v0l0,0.1v0l0,0.1l0,0.1l0,0.1v0l0,0.1v0l0,0.1l0,0.1l0,0.1l0,0.1v0l0,0.1l0,0.1l0,0.1l0,0.1v0l0,0.1l0,0.1l0,0.1l0,0.1
		l0,0.1l0,0.1l-0.1,0.1l-0.1,0.1l-0.1,0.1v0l-0.1,0.1l-0.1,0.1v0l-0.1,0.1v0l-0.1,0.1l-0.1,0.1v0l-0.1,0.1l-0.1,0.1l-0.1,0.1
		l-0.1,0.1v0l-0.1,0.1l-0.1,0.1l-0.1,0.1v0l-0.1,0.1l-0.1,0.1v0l-0.1,0.1l-0.1,0.1v0l-0.1,0.1l-0.1,0.1v0l-0.1,0.1l-0.1,0.1v0
		l-0.1,0.1v0l-0.1,0.1v0l-0.1,0.1l-0.1,0v0l-0.1,0l-0.1,0l-0.1,0l-0.1,0l-0.1,0l-0.1,0l-0.1,0l-0.1,0l-0.1,0l-0.1,0l-0.1,0l-0.1,0
		l-0.1,0l-0.1,0l-0.1,0l-0.1,0l-0.1,0l-0.1,0l0,0L435.6,383.8z M431.2,444.1V436c0-2.5,2-4.6,4.6-4.6c2.5,0,4.6,2,4.6,4.6v8.1
		c0,2.5-2,4.6-4.6,4.6l0,0C433.2,448.7,431.2,446.6,431.2,444.1z M433.9,318.4c-0.1,0-0.1-0.1-0.2-0.1 M433.3,318.1
		c-0.1,0-0.1-0.1-0.2-0.1 M433.1,318c-0.1,0-0.1-0.1-0.2-0.1 M432.9,317.9c-0.1,0-0.1-0.1-0.2-0.1 M432.8,317.7
		c-0.1,0-0.1-0.1-0.2-0.1 M432.2,317.2c0-0.1-0.1-0.1-0.1-0.2 M431.9,316.7c0-0.1-0.1-0.1-0.1-0.2 M435.7,318.8l-0.1,0v0l-0.1,0v0
		l-0.1,0v0l-0.1,0v0l-0.1,0v0l-0.1,0v0l-0.1,0v0l-0.1,0v0l-0.1,0v0l-0.1,0v0l-0.1,0v0l-0.1,0v0l-0.1,0v0l-0.1,0v0l-0.1,0v0l-0.1,0v0
		l-0.1,0v0c-0.1,0-0.1-0.1-0.2-0.1v0c-0.1-0.1-0.3-0.1-0.4-0.2v0c-0.1,0-0.1-0.1-0.2-0.1v0c-0.1,0-0.1-0.1-0.2-0.1v0
		c-0.1,0-0.1-0.1-0.2-0.1v0c-0.1,0-0.1-0.1-0.2-0.1v0c-0.1-0.1-0.2-0.2-0.2-0.2v0l-0.1-0.1v0l-0.1-0.1v0c0-0.1-0.1-0.1-0.1-0.2v0
		c-0.1-0.1-0.1-0.2-0.2-0.3v0c0-0.1-0.1-0.1-0.1-0.2v0l-0.1-0.1v0l-0.1-0.1v0l0-0.1v0l0-0.1v0l0-0.1v0l0-0.1v0l0-0.1v0l0-0.1l0-0.1
		v0l0-0.1v0l0-0.1v0l0-0.1l0-0.1v0l0-0.1v0l0-0.1v0l0-0.1l0-0.1l0-0.1v0l0-0.1v0l0-0.1l0-0.1v-8.1v0l0-0.1v0l0-0.1v0l0-0.1v0l0-0.1
		v0l0-0.1v0l0-0.1v0l0-0.1v0l0-0.1v0l0-0.1v0l0-0.1v0l0-0.1v0l0-0.1v0l0-0.1v0l0-0.1v0l0-0.1v0l0-0.1v0l0-0.1v0l0-0.1v0l0-0.1v0
		l0.1-0.1v0l0.1-0.1v0l0.1-0.1v0c0-0.1,0.1-0.1,0.1-0.2v0l0.1-0.1v0c0-0.1,0.1-0.1,0.1-0.2v0l0.1-0.1v0c0.1-0.1,0.1-0.2,0.2-0.2v0
		l0.1-0.1v0l0.1-0.1v0l0.1-0.1v0l0.1-0.1v0l0.1-0.1v0l0.1-0.1v0l0.1-0.1v0l0.1-0.1v0l0.1-0.1v0l0.1-0.1v0l0.1-0.1v0l0.1-0.1v0
		l0.1-0.1v0l0.1-0.1v0l0.1,0v0l0.1,0l0.1,0v0l0.1,0l0.1,0l0.1,0l0.1,0v0l0.1,0l0.1,0l0.1,0l0.1,0l0.1,0l0.1,0l0.1,0l0.1,0l0.1,0
		l0.1,0l0.1,0l0.1,0l0.1,0l0.1,0l0.1,0l0.1,0l0.1,0l0.1,0l0.1,0l0.1,0l0.1,0l0.1,0l0.1,0l0.1,0v0l0.1,0l0.1,0l0.1,0l0.1,0v0l0.1,0
		l0.1,0v0l0.1,0v0l0.1,0.1v0l0.1,0.1v0l0.1,0.1v0l0.1,0.1v0l0.1,0.1v0l0.1,0.1v0l0.1,0.1v0l0.1,0.1v0l0.1,0.1v0l0.1,0.1v0l0.1,0.1v0
		l0.1,0.1v0l0.1,0.1v0l0.1,0.1v0c0.1,0.1,0.1,0.2,0.2,0.2v0l0.1,0.1v0c0,0.1,0.1,0.1,0.1,0.2v0l0.1,0.1v0c0,0.1,0.1,0.1,0.1,0.2v0
		l0.1,0.1v0l0.1,0.1v0l0.1,0.1v0l0,0.1v0l0,0.1v0l0,0.1v0l0,0.1v0l0,0.1v0l0,0.1v0l0,0.1v0l0,0.1v0l0,0.1v0l0,0.1v0l0,0.1v0l0,0.1v0
		l0,0.1v0l0,0.1v0l0,0.1v0l0,0.1v0l0,0.1v0l0,0.1v0l0,0.1v0v8.1l0,0.1l0,0.1v0l0,0.1v0l0,0.1l0,0.1l0,0.1v0l0,0.1v0l0,0.1v0l0,0.1
		l0,0.1v0l0,0.1v0l0,0.1v0l0,0.1l0,0.1v0l0,0.1v0l0,0.1v0l0,0.1v0l0,0.1v0l0,0.1v0l-0.1,0.1v0l-0.1,0.1v0 M439.6,316.7L439.6,316.7
		c-0.1,0.1-0.1,0.2-0.2,0.3v0 M439.3,317.2L439.3,317.2L439.3,317.2L439.3,317.2l-0.1,0.2v0c-0.1,0.1-0.2,0.2-0.2,0.2v0
		 M438.2,318.1L438.2,318.1c-0.1,0.1-0.3,0.2-0.4,0.2v0 M437.6,318.4L437.6,318.4l-0.1,0v0l-0.1,0v0l-0.1,0v0l-0.1,0v0l-0.1,0v0
		l-0.1,0v0l-0.1,0v0l-0.1,0v0l-0.1,0v0l-0.1,0v0l-0.1,0v0l-0.1,0v0l-0.1,0v0l-0.1,0v0l-0.1,0v0l-0.1,0v0l-0.1,0 M435.7,318.8
		L435.7,318.8L435.7,318.8L435.7,318.8z"/>
	<line class="st3" x1="452" y1="486.2" x2="452" y2="521.1"/>
	<line class="st3" x1="138.1" y1="490.8" x2="138.1" y2="521.1"/>
	<line class="st3" x1="359.7" y1="505.4" x2="452" y2="505.4"/>
	<polygon class="st4" points="441.4,502.6 452,505.4 441.4,508.2 	"/>
	<line class="st3" x1="138.1" y1="505.4" x2="228.1" y2="505.4"/>
	<polygon class="st4" points="148.7,502.6 138.1,505.4 148.7,508.2 	"/>
	<path class="st5" d="M229.2,505.5L229.2,505.5c0,8,6.5,14.5,14.5,14.5h102.5c8,0,14.5-6.5,14.5-14.5c0-8-6.5-14.5-14.5-14.5H243.8
		C235.8,491,229.2,497.5,229.2,505.5"/>
	<line class="st3" x1="88.8" y1="81.8" x2="123.7" y2="81.8"/>
	<line class="st3" x1="93.3" y1="475.1" x2="123.7" y2="475.1"/>
	<line class="st3" x1="108" y1="174.1" x2="108" y2="81.8"/>
	<polygon class="st4" points="105.1,92.4 108,81.8 110.8,92.4 	"/>
	<line class="st3" x1="108" y1="475.1" x2="108" y2="385"/>
	<polygon class="st4" points="105.1,464.5 108,475.1 110.8,464.5 	"/>
	<path class="st5" d="M108.1,344.2L108.1,344.2c8,0,14.5-6.5,14.5-14.5V227.2c0-8-6.5-14.5-14.5-14.5c-8,0-14.5,6.5-14.5,14.5v102.5
		C93.6,337.7,100.1,344.2,108.1,344.2"/>
	<line class="st3" x1="462.8" y1="118.4" x2="452.8" y2="151.9"/>
	<line class="st3" x1="150.6" y1="35.1" x2="141.9" y2="64.3"/>
	<line class="st3" x1="365.9" y1="111" x2="457.3" y2="136.8"/>
	<polygon class="st4" points="447.9,131.2 457.3,136.8 446.4,136.6 	"/>
	<line class="st3" x1="146.4" y1="49.2" x2="235.6" y2="74.3"/>
	<polygon class="st4" points="157.3,49.3 146.4,49.2 155.8,54.8 	"/>
	<path class="st5" d="M236.6,74.8L236.6,74.8c-2.3,7.7,2.1,15.7,9.9,17.9l102.3,28.8c7.7,2.2,15.9-2.3,18.2-10
		c2.3-7.7-2.1-15.7-9.9-17.9L254.8,64.7C247.1,62.6,238.9,67.1,236.6,74.8"/>
	<line class="st3" x1="465.4" y1="166.4" x2="500.3" y2="166.4"/>
	<line class="st3" x1="470" y1="475.1" x2="500.3" y2="475.1"/>
	<line class="st3" x1="484.6" y1="233.8" x2="484.6" y2="166.4"/>
	<polygon class="st4" points="481.8,177 484.6,166.4 487.5,177 	"/>
	<line class="st3" x1="484.6" y1="475.1" x2="484.6" y2="409.3"/>
	<polygon class="st4" points="481.8,464.5 484.6,475.1 487.5,464.5 	"/>
	<path class="st5" d="M484.8,385.8L484.8,385.8c8,0,14.5-6.5,14.5-14.5V268.2c0-8-6.5-14.5-14.5-14.5c-8,0-14.5,6.5-14.5,14.5v103.1
		C470.2,379.2,476.8,385.8,484.8,385.8"/>
</g>
<text transform="matrix(1 0 0 1 280.7691 566.7686)" class="st6 st7">A</text>
<text transform="matrix(1 0 0 1 531.7691 314.7686)" class="st6 st7">B</text>
<text transform="matrix(1 0 0 1 256.7691 56.7686)" class="st6 st7">C</text>
<text transform="matrix(1 0 0 1 35.7691 324.7686)" class="st6 st7">D</text>
</svg>
