<?xml version="1.0" encoding="utf-8"?>
<!-- Generator: Adobe Illustrator 20.0.0, SVG Export Plug-In . SVG Version: 6.00 Build 0)  -->
<svg version="1.1" id="Layer_1" xmlns="http://www.w3.org/2000/svg" xmlns:xlink="http://www.w3.org/1999/xlink" x="0px" y="0px"
	 viewBox="0 0 605.8 573.1" style="enable-background:new 0 0 605.8 573.1;" xml:space="preserve">
<style type="text/css">
	.st0{font-family:'MyriadPro-Regular';}
	.st1{font-size:50px;}
	.st2{fill-rule:evenodd;clip-rule:evenodd;fill:#6BA95E;}
	.st3{fill:none;stroke:#000000;stroke-width:0.2285;stroke-miterlimit:22.9256;}
	.st4{fill-rule:evenodd;clip-rule:evenodd;fill:#FFFFFF;}
	.st5{fill:none;stroke:#5262A8;stroke-width:0.2285;stroke-miterlimit:22.9256;}
	.st6{fill-rule:evenodd;clip-rule:evenodd;fill:#5262A8;}
	.st7{fill-rule:evenodd;clip-rule:evenodd;fill:#B4B5DA;}
</style>
<text transform="matrix(1 0 0 1 280.7691 536.7667)" class="st0 st1">A</text>
<text transform="matrix(1 0 0 1 531.7691 314.7686)" class="st0 st1">B</text>
<text transform="matrix(1 0 0 1 256.7691 86.7705)" class="st0 st1">C</text>
<text transform="matrix(1 0 0 1 35.7691 324.7686)" class="st0 st1">D</text>
<path class="st2" d="M310.8,188.2H184.6v264h126.2H437v-264H310.8z M310.8,486.2h-160V154.1h160h160v332.1H310.8z"/>
<path class="st3" d="M310.8,188.2H184.6v264h126.2H437v-264H310.8z M310.8,486.2h-160V154.1h160h160v332.1H310.8z"/>
<path class="st4" d="M167.2,242.3L167.2,242.3c-2.6,0-4.8,2.2-4.8,4.8v8.6c0,2.7,2.2,4.8,4.8,4.8c2.7,0,4.8-2.2,4.8-4.8v-8.6
	C172,244.5,169.8,242.3,167.2,242.3z"/>
<path class="st3" d="M167.2,242.3L167.2,242.3c-2.6,0-4.8,2.2-4.8,4.8v8.6c0,2.7,2.2,4.8,4.8,4.8c2.7,0,4.8-2.2,4.8-4.8v-8.6
	C172,244.5,169.8,242.3,167.2,242.3z"/>
<path class="st4" d="M454.3,242.3L454.3,242.3c2.6,0,4.8,2.2,4.8,4.8v8.6c0,2.7-2.2,4.8-4.8,4.8c-2.7,0-4.8-2.2-4.8-4.8v-8.6
	C449.5,244.5,451.7,242.3,454.3,242.3z"/>
<path class="st3" d="M454.3,242.3L454.3,242.3c2.6,0,4.8,2.2,4.8,4.8v8.6c0,2.7-2.2,4.8-4.8,4.8c-2.7,0-4.8-2.2-4.8-4.8v-8.6
	C449.5,244.5,451.7,242.3,454.3,242.3z"/>
<path class="st4" d="M167.2,311L167.2,311c-2.6,0-4.8,2.2-4.8,4.8v8.6c0,2.6,2.2,4.8,4.8,4.8c2.7,0,4.8-2.2,4.8-4.8v-8.6
	C172,313.2,169.8,311,167.2,311z"/>
<path class="st3" d="M167.2,311L167.2,311c-2.6,0-4.8,2.2-4.8,4.8v8.6c0,2.6,2.2,4.8,4.8,4.8c2.7,0,4.8-2.2,4.8-4.8v-8.6
	C172,313.2,169.8,311,167.2,311z"/>
<path class="st4" d="M454.3,311L454.3,311c2.6,0,4.8,2.2,4.8,4.8v8.6c0,2.6-2.2,4.8-4.8,4.8c-2.7,0-4.8-2.2-4.8-4.8v-8.6
	C449.5,313.2,451.7,311,454.3,311z"/>
<path class="st3" d="M454.3,311L454.3,311c2.6,0,4.8,2.2,4.8,4.8v8.6c0,2.6-2.2,4.8-4.8,4.8c-2.7,0-4.8-2.2-4.8-4.8v-8.6
	C449.5,313.2,451.7,311,454.3,311z"/>
<path class="st4" d="M167.2,379.7L167.2,379.7c-2.6,0-4.8,2.2-4.8,4.8v8.6c0,2.7,2.2,4.8,4.8,4.8c2.7,0,4.8-2.2,4.8-4.8v-8.6
	C172,381.9,169.8,379.7,167.2,379.7z"/>
<path class="st3" d="M167.2,379.7L167.2,379.7c-2.6,0-4.8,2.2-4.8,4.8v8.6c0,2.7,2.2,4.8,4.8,4.8c2.7,0,4.8-2.2,4.8-4.8v-8.6
	C172,381.9,169.8,379.7,167.2,379.7z"/>
<path class="st4" d="M454.3,379.7L454.3,379.7c2.6,0,4.8,2.2,4.8,4.8v8.6c0,2.7-2.2,4.8-4.8,4.8c-2.7,0-4.8-2.2-4.8-4.8v-8.6
	C449.5,381.9,451.7,379.7,454.3,379.7z"/>
<path class="st3" d="M454.3,379.7L454.3,379.7c2.6,0,4.8,2.2,4.8,4.8v8.6c0,2.7-2.2,4.8-4.8,4.8c-2.7,0-4.8-2.2-4.8-4.8v-8.6
	C449.5,381.9,451.7,379.7,454.3,379.7z"/>
<path class="st4" d="M167.2,448.4L167.2,448.4c-2.6,0-4.8,2.2-4.8,4.8v8.6c0,2.6,2.2,4.8,4.8,4.8c2.7,0,4.8-2.2,4.8-4.8v-8.6
	C172,450.6,169.8,448.4,167.2,448.4z"/>
<path class="st3" d="M167.2,448.4L167.2,448.4c-2.6,0-4.8,2.2-4.8,4.8v8.6c0,2.6,2.2,4.8,4.8,4.8c2.7,0,4.8-2.2,4.8-4.8v-8.6
	C172,450.6,169.8,448.4,167.2,448.4z"/>
<path class="st4" d="M454.3,448.4L454.3,448.4c2.6,0,4.8,2.2,4.8,4.8v8.6c0,2.6-2.2,4.8-4.8,4.8c-2.7,0-4.8-2.2-4.8-4.8v-8.6
	C449.5,450.6,451.7,448.4,454.3,448.4z"/>
<path class="st3" d="M454.3,448.4L454.3,448.4c2.6,0,4.8,2.2,4.8,4.8v8.6c0,2.6-2.2,4.8-4.8,4.8c-2.7,0-4.8-2.2-4.8-4.8v-8.6
	C449.5,450.6,451.7,448.4,454.3,448.4z"/>
<path class="st4" d="M167.2,173.7L167.2,173.7c-2.6,0-4.8,2.2-4.8,4.8v8.6c0,2.7,2.2,4.8,4.8,4.8c2.7,0,4.8-2.2,4.8-4.8v-8.6
	C172,175.8,169.8,173.7,167.2,173.7z"/>
<path class="st3" d="M167.2,173.7L167.2,173.7c-2.6,0-4.8,2.2-4.8,4.8v8.6c0,2.7,2.2,4.8,4.8,4.8c2.7,0,4.8-2.2,4.8-4.8v-8.6
	C172,175.8,169.8,173.7,167.2,173.7z"/>
<path class="st4" d="M454.3,173.7L454.3,173.7c2.6,0,4.8,2.2,4.8,4.8v8.6c0,2.7-2.2,4.8-4.8,4.8c-2.7,0-4.8-2.2-4.8-4.8v-8.6
	C449.5,175.8,451.7,173.7,454.3,173.7z"/>
<path class="st3" d="M454.3,173.7L454.3,173.7c2.6,0,4.8,2.2,4.8,4.8v8.6c0,2.7-2.2,4.8-4.8,4.8c-2.7,0-4.8-2.2-4.8-4.8v-8.6
	C449.5,175.8,451.7,173.7,454.3,173.7z"/>
<line class="st5" x1="139" y1="486.2" x2="102.1" y2="486.2"/>
<line class="st5" x1="134.1" y1="154.1" x2="102.1" y2="154.1"/>
<line class="st5" x1="118.7" y1="388.6" x2="118.7" y2="486.2"/>
<polygon class="st6" points="115.7,475 118.7,486.2 121.7,475 "/>
<line class="st5" x1="118.7" y1="154.1" x2="118.7" y2="249.4"/>
<polygon class="st6" points="115.7,165.3 118.7,154.1 121.7,165.3 "/>
<path class="st7" d="M118.5,250.5L118.5,250.5c-8.5,0-15.4,6.9-15.4,15.4v108.5c0,8.5,6.9,15.4,15.4,15.4c8.5,0,15.4-6.9,15.4-15.4
	V265.9C133.9,257.5,127,250.5,118.5,250.5"/>
<line class="st5" x1="482.8" y1="101.9" x2="482.8" y2="138.8"/>
<line class="st5" x1="150.7" y1="106.8" x2="150.7" y2="138.8"/>
<line class="st5" x1="385.2" y1="122.2" x2="482.8" y2="122.2"/>
<polygon class="st6" points="471.6,125.2 482.8,122.2 471.6,119.2 "/>
<line class="st5" x1="150.7" y1="122.2" x2="246" y2="122.2"/>
<polygon class="st6" points="161.9,125.2 150.7,122.2 161.9,119.2 "/>
<path class="st7" d="M247.2,122.4L247.2,122.4c0,8.5,6.9,15.4,15.4,15.4H371c8.5,0,15.4-6.9,15.4-15.4c0-8.5-6.9-15.4-15.4-15.4
	H262.5C254.1,107,247.2,113.9,247.2,122.4"/>
</svg>
