<?xml version="1.0" encoding="utf-8"?>
<!-- Generator: Adobe Illustrator 20.0.0, SVG Export Plug-In . SVG Version: 6.00 Build 0)  -->
<svg version="1.1" id="Layer_1" xmlns="http://www.w3.org/2000/svg" xmlns:xlink="http://www.w3.org/1999/xlink" x="0px" y="0px"
	 viewBox="0 0 605.8 573.1" style="enable-background:new 0 0 605.8 573.1;" xml:space="preserve">
<style type="text/css">
	.st0{fill-rule:evenodd;clip-rule:evenodd;fill:#6BA95E;}
	.st1{fill:none;stroke:#000000;stroke-width:0.216;stroke-miterlimit:22.9256;}
	.st2{fill-rule:evenodd;clip-rule:evenodd;fill:#FFFFFF;}
	.st3{fill:none;stroke:#5262A8;stroke-width:0.216;stroke-miterlimit:22.9256;}
	.st4{fill-rule:evenodd;clip-rule:evenodd;fill:#5262A8;}
	.st5{fill-rule:evenodd;clip-rule:evenodd;fill:#B4B5DA;}
	.st6{font-family:'MyriadPro-Regular';}
	.st7{font-size:50px;}
</style>
<g>
	<path class="st0" d="M418.8,221.6H169.3v221.5h249.5V221.6z M169.3,189.6h249.5v-68.4l-249.5,67.2V189.6z M451,81.8l-313.9,84.6
		v308.7H451V81.8z"/>
	<path class="st1" d="M418.8,221.6H169.3v221.5h249.5V221.6z M169.3,189.6h249.5v-68.4l-249.5,67.2V189.6z M451,81.8l-313.9,84.6
		v308.7H451V81.8z"/>
	<path class="st2" d="M434.9,253.9L434.9,253.9l-0.1,0l-0.1,0l-0.1,0l-0.1,0l-0.1,0l-0.1,0l-0.1,0l-0.1,0l-0.1,0l-0.1,0l-0.1,0
		l-0.1,0l-0.1,0l-0.1,0l-0.1,0l-0.1,0v0l-0.1,0l-0.1,0l-0.1,0l-0.1-0.1l-0.1-0.1l-0.1-0.1l-0.1-0.1l-0.1-0.1l-0.1-0.1l-0.1-0.1
		l-0.1-0.1v0l-0.1-0.1l-0.1-0.1l-0.1-0.1l-0.1-0.1v0l-0.1-0.1l-0.1-0.1l-0.1-0.1v0l-0.1-0.1v0l-0.1-0.1v0l-0.1-0.1l-0.1-0.1v0
		l-0.1-0.1l-0.1-0.1l-0.1-0.1v0l-0.1-0.1l-0.1-0.1l-0.1-0.1l-0.1-0.1v0l0-0.1v0l0-0.1v0l0-0.1v0l0-0.1v0l0-0.1v0l0-0.1v0l0-0.1v0
		l0-0.1v0l0-0.1l0-0.1v0l0-0.1v0l0-0.1v0l0-0.1v0l0-0.1v0l0-0.1v0l0-0.1v0l0-0.1v0l0-0.1v0l0-0.1v0v-8.1v0l0-0.1v0l0-0.1v0l0-0.1
		l0-0.1v0l0-0.1v0l0-0.1l0-0.1l0-0.1l0-0.1l0-0.1l0-0.1l0-0.1l0-0.1l0-0.1v0l0-0.1l0-0.1l0-0.1l0-0.1v0l0-0.1l0.1-0.1l0.1-0.1
		l0.1-0.1l0.1-0.1v0l0.1-0.1l0.1-0.1l0.1-0.1l0.1-0.1l0.1-0.1l0.1-0.1v0l0.1-0.1l0.1-0.1l0.1-0.1l0.1-0.1l0.1-0.1l0.1-0.1l0.1-0.1
		l0.1-0.1v0l0.1-0.1l0.1-0.1l0.1-0.1l0.1-0.1l0.1-0.1l0.1-0.1l0.1-0.1l0.1-0.1l0.1,0l0.1,0v0l0.1,0l0.1,0v0l0.1,0v0l0.1,0v0l0.1,0
		l0.1,0v0l0.1,0v0l0.1,0v0l0.1,0v0l0.1,0v0l0.1,0v0l0.1,0v0l0.1,0v0l0.1,0v0l0.1,0v0l0.1,0v0l0.1,0v0v0l0.1,0v0l0.1,0v0l0.1,0v0
		l0.1,0v0l0.1,0v0l0.1,0v0l0.1,0v0l0.1,0v0l0.1,0v0l0.1,0v0l0.1,0v0l0.1,0l0.1,0v0l0.1,0v0l0.1,0v0l0.1,0l0.1,0v0l0.1,0l0.1,0
		l0.1,0.1l0.1,0.1l0.1,0.1l0.1,0.1l0.1,0.1l0.1,0.1l0.1,0.1l0.1,0.1v0l0.1,0.1l0.1,0.1l0.1,0.1l0.1,0.1l0.1,0.1l0.1,0.1l0.1,0.1
		l0.1,0.1v0l0.1,0.1l0.1,0.1l0.1,0.1l0.1,0.1l0.1,0.1l0.1,0.1v0l0.1,0.1l0.1,0.1l0.1,0.1l0.1,0.1l0,0.1v0l0,0.1l0,0.1l0,0.1l0,0.1v0
		l0,0.1l0,0.1l0,0.1l0,0.1l0,0.1l0,0.1l0,0.1l0,0.1l0,0.1v0l0,0.1v0l0,0.1l0,0.1v0l0,0.1v0l0,0.1v0v8.1v0l0,0.1v0l0,0.1v0l0,0.1v0
		l0,0.1v0l0,0.1v0l0,0.1v0l0,0.1v0l0,0.1v0l0,0.1v0l0,0.1l0,0.1v0l0,0.1v0l0,0.1v0l0,0.1v0l0,0.1v0l0,0.1v0l0,0.1v0l0,0.1v0l0,0.1v0
		l-0.1,0.1l-0.1,0.1l-0.1,0.1l-0.1,0.1v0l-0.1,0.1l-0.1,0.1l-0.1,0.1v0l-0.1,0.1l-0.1,0.1v0l-0.1,0.1v0l-0.1,0.1v0l-0.1,0.1
		l-0.1,0.1l-0.1,0.1v0l-0.1,0.1l-0.1,0.1l-0.1,0.1l-0.1,0.1v0l-0.1,0.1l-0.1,0.1l-0.1,0.1l-0.1,0.1l-0.1,0.1l-0.1,0.1l-0.1,0.1
		l-0.1,0.1l-0.1,0l-0.1,0l-0.1,0v0l-0.1,0l-0.1,0l-0.1,0l-0.1,0l-0.1,0l-0.1,0l-0.1,0l-0.1,0l-0.1,0l-0.1,0l-0.1,0l-0.1,0l-0.1,0
		l-0.1,0l-0.1,0L434.9,253.9z M434.9,189L434.9,189L434.9,189l-0.1,0v0l-0.1,0v0l-0.1,0v0l-0.1,0v0l-0.1,0v0l-0.1,0v0l-0.1,0v0
		l-0.1,0v0l-0.1,0v0l-0.1,0v0l-0.1,0v0l-0.1,0v0l-0.1,0v0l-0.1,0v0l-0.1,0v0c-0.1,0-0.1-0.1-0.2-0.1v0l-0.1,0v0l-0.1,0v0l-0.1-0.1v0
		l-0.1-0.1v0l-0.1-0.1v0l-0.1-0.1v0l-0.1-0.1v0l-0.1-0.1v0l-0.1-0.1v0c-0.1,0-0.1-0.1-0.2-0.1v0l-0.1-0.1v0l-0.1-0.1v0l-0.1-0.1v0
		l-0.1-0.1v0l-0.1-0.1v0c-0.1-0.1-0.1-0.1-0.1-0.2v0l-0.1-0.1v0l-0.1-0.1v0c0-0.1-0.1-0.1-0.1-0.2v0l-0.1-0.1v0l-0.1-0.1v0l-0.1-0.1
		v0l-0.1-0.1v0l-0.1-0.1v0l-0.1-0.1v0l0-0.1v0l0-0.1v0l0-0.1v0l0-0.1v0l0-0.1v0l0-0.1v0l0-0.1v0l0-0.1v0l0-0.1l0-0.1l0-0.1v0l0-0.1
		v0l0-0.1v0l0-0.1l0-0.1l0-0.1v0l0-0.1v0l0-0.1l0-0.1v-8.1v0l0-0.1v0l0-0.1v0l0-0.1v0l0-0.1v0l0-0.1v0l0-0.1v0l0-0.1v0l0-0.1v0
		l0-0.1v0l0-0.1v0l0-0.1v0l0-0.1v0l0-0.1l0-0.1l0-0.1v0l0-0.1v0l0-0.1v0l0-0.1l0-0.1v0l0.1-0.1l0.1-0.1l0.1-0.1l0.1-0.1l0.1-0.1
		l0.1-0.1l0.1-0.1l0.1-0.1l0.1-0.1l0.1-0.1l0.1-0.1l0.1-0.1l0.1-0.1l0.1-0.1l0.1-0.1l0.1-0.1l0.1-0.1l0.1-0.1l0.1-0.1l0.1-0.1
		l0.1-0.1l0.1-0.1l0.1-0.1l0.1-0.1l0.1-0.1l0.1-0.1l0.1,0l0.1,0l0.1,0v0l0.1,0l0.1,0l0.1,0l0.1,0l0.1,0l0.1,0l0.1,0l0.1,0l0.1,0
		l0.1,0l0.1,0l0.1,0l0.1,0l0.1,0l0.1,0l0.1,0l0.1,0l0.1,0l0.1,0l0.1,0l0.1,0l0.1,0l0.1,0l0.1,0l0.1,0l0.1,0l0.1,0l0.1,0l0.1,0l0.1,0
		l0.1,0l0.1,0v0l0.1,0l0.1,0l0.1,0l0.1,0.1l0.1,0.1l0.1,0.1l0.1,0.1l0.1,0.1l0.1,0.1l0.1,0.1l0.1,0.1l0.1,0.1l0.1,0.1l0.1,0.1
		l0.1,0.1l0.1,0.1l0.1,0.1l0.1,0.1l0.1,0.1l0.1,0.1l0.1,0.1l0.1,0.1l0.1,0.1l0.1,0.1l0.1,0.1l0.1,0.1l0.1,0.1l0.1,0.1l0.1,0.1v0
		l0,0.1l0,0.1v0l0,0.1v0l0,0.1v0l0,0.1l0,0.1l0,0.1v0l0,0.1v0l0,0.1v0l0,0.1v0l0,0.1v0l0,0.1v0l0,0.1v0l0,0.1v0l0,0.1v0l0,0.1v0
		l0,0.1v0l0,0.1v0l0,0.1v0v8.1l0,0.1l0,0.1v0l0,0.1v0l0,0.1l0,0.1l0,0.1v0l0,0.1v0l0,0.1v0l0,0.1l0,0.1l0,0.1v0l0,0.1v0l0,0.1v0
		l0,0.1v0l0,0.1v0l0,0.1v0l0,0.1v0l0,0.1v0l0,0.1v0l-0.1,0.1v0l-0.1,0.1v0l-0.1,0.1v0l-0.1,0.1v0l-0.1,0.1v0l-0.1,0.1v0
		c0,0.1-0.1,0.1-0.1,0.2v0l-0.1,0.1v0l-0.1,0.1v0c0,0.1-0.1,0.1-0.1,0.2v0l-0.1,0.1v0l-0.1,0.1v0l-0.1,0.1v0l-0.1,0.1v0l-0.1,0.1v0
		c-0.1,0-0.1,0.1-0.2,0.1v0l-0.1,0.1v0l-0.1,0.1v0l-0.1,0.1v0l-0.1,0.1v0l-0.1,0.1v0l-0.1,0.1v0l-0.1,0.1v0l-0.1,0v0l-0.1,0v0
		c-0.1,0-0.1,0.1-0.2,0.1v0l-0.1,0v0l-0.1,0v0l-0.1,0v0l-0.1,0v0l-0.1,0v0l-0.1,0v0l-0.1,0v0l-0.1,0v0l-0.1,0v0l-0.1,0v0l-0.1,0v0
		l-0.1,0v0l-0.1,0v0l-0.1,0v0L434.9,189L434.9,189z M434.9,124L434.9,124c-2.5,0-4.6-2-4.6-4.6v-8.1c0-2.5,2-4.6,4.6-4.6
		c2.5,0,4.6,2,4.6,4.6v8.1C439.5,122,437.4,124,434.9,124z M434.9,383.8L434.9,383.8l-0.1,0l-0.1,0l-0.1,0l-0.1,0l-0.1,0l-0.1,0
		l-0.1,0l-0.1,0l-0.1,0l-0.1,0l-0.1,0l-0.1,0l-0.1,0l-0.1,0l-0.1,0l-0.1,0l-0.1,0l-0.1,0v0l-0.1,0l-0.1-0.1v0l-0.1-0.1v0l-0.1-0.1v0
		l-0.1-0.1l-0.1-0.1v0l-0.1-0.1l-0.1-0.1v0l-0.1-0.1l-0.1-0.1v0l-0.1-0.1l-0.1-0.1v0l-0.1-0.1l-0.1-0.1l-0.1-0.1v0l-0.1-0.1
		l-0.1-0.1l-0.1-0.1l-0.1-0.1v0l-0.1-0.1l-0.1-0.1v0l-0.1-0.1v0l-0.1-0.1l-0.1-0.1v0l-0.1-0.1l-0.1-0.1l-0.1-0.1l0-0.1l0-0.1l0-0.1
		l0-0.1l0-0.1l0-0.1v0l0-0.1l0-0.1l0-0.1l0-0.1v0l0-0.1l0-0.1l0-0.1l0-0.1v0l0-0.1v0l0-0.1l0-0.1l0-0.1v0l0-0.1v0v-8.1l0-0.1l0-0.1
		l0-0.1l0-0.1l0-0.1l0-0.1l0-0.1l0-0.1l0-0.1v0l0-0.1v0l0-0.1l0-0.1l0-0.1v0l0-0.1v0l0-0.1l0-0.1l0-0.1l0-0.1v0l0-0.1l0.1-0.1v0
		l0.1-0.1v0l0.1-0.1v0l0.1-0.1v0l0.1-0.1v0l0.1-0.1v0l0.1-0.1l0.1-0.1v0l0.1-0.1v0l0.1-0.1v0l0.1-0.1l0.1-0.1v0l0.1-0.1v0l0.1-0.1v0
		l0.1-0.1v0l0.1-0.1v0l0.1-0.1v0l0.1-0.1l0.1-0.1v0l0.1-0.1v0l0.1-0.1v0l0.1-0.1v0l0.1-0.1v0l0.1-0.1v0l0.1-0.1v0l0.1-0.1v0l0.1,0v0
		l0.1,0v0l0.1,0v0l0.1,0v0l0.1,0v0l0.1,0v0l0.1,0v0l0.1,0v0l0.1,0v0l0.1,0v0l0.1,0v0l0.1,0v0l0.1,0v0l0.1,0v0l0.1,0v0l0.1,0v0l0.1,0
		v0l0.1,0v0l0.1,0v0v0l0.1,0v0l0.1,0v0l0.1,0v0l0.1,0v0l0.1,0v0l0.1,0v0l0.1,0v0l0.1,0v0l0.1,0v0l0.1,0v0l0.1,0v0l0.1,0v0l0.1,0v0
		l0.1,0v0l0.1,0v0l0.1,0v0l0.1,0v0l0.1,0v0l0.1,0v0l0.1,0.1v0l0.1,0.1v0l0.1,0.1v0l0.1,0.1v0l0.1,0.1v0l0.1,0.1v0l0.1,0.1v0l0.1,0.1
		l0.1,0.1v0l0.1,0.1v0l0.1,0.1v0l0.1,0.1v0l0.1,0.1v0l0.1,0.1v0l0.1,0.1l0.1,0.1v0l0.1,0.1v0l0.1,0.1v0l0.1,0.1l0.1,0.1v0l0.1,0.1v0
		l0.1,0.1v0l0.1,0.1v0l0.1,0.1v0l0.1,0.1v0l0.1,0.1l0,0.1v0l0,0.1l0,0.1l0,0.1l0,0.1v0l0,0.1v0l0,0.1l0,0.1l0,0.1v0l0,0.1v0l0,0.1
		l0,0.1l0,0.1l0,0.1l0,0.1l0,0.1l0,0.1l0,0.1l0,0.1v8.1v0l0,0.1v0l0,0.1l0,0.1l0,0.1v0l0,0.1v0l0,0.1l0,0.1l0,0.1l0,0.1v0l0,0.1
		l0,0.1l0,0.1l0,0.1v0l0,0.1l0,0.1l0,0.1l0,0.1l0,0.1l0,0.1l-0.1,0.1l-0.1,0.1l-0.1,0.1v0l-0.1,0.1l-0.1,0.1v0l-0.1,0.1v0l-0.1,0.1
		l-0.1,0.1v0l-0.1,0.1l-0.1,0.1l-0.1,0.1l-0.1,0.1v0l-0.1,0.1l-0.1,0.1l-0.1,0.1v0l-0.1,0.1l-0.1,0.1v0l-0.1,0.1l-0.1,0.1v0
		l-0.1,0.1l-0.1,0.1v0l-0.1,0.1l-0.1,0.1v0l-0.1,0.1v0l-0.1,0.1v0l-0.1,0.1l-0.1,0v0l-0.1,0l-0.1,0l-0.1,0l-0.1,0l-0.1,0l-0.1,0
		l-0.1,0l-0.1,0l-0.1,0l-0.1,0l-0.1,0l-0.1,0l-0.1,0l-0.1,0l-0.1,0l-0.1,0l-0.1,0L434.9,383.8z M434.9,448.7L434.9,448.7
		c-2.5,0-4.6-2-4.6-4.6V436c0-2.5,2-4.6,4.6-4.6c2.5,0,4.6,2,4.6,4.6v8.1C439.5,446.6,437.4,448.7,434.9,448.7z M437,318.3
		c-0.1,0-0.1,0.1-0.2,0.1 M437.5,318c-0.1,0-0.1,0.1-0.2,0.1 M437.7,317.9c-0.1,0-0.1,0.1-0.2,0.1 M437.9,317.7
		c-0.1,0-0.1,0.1-0.2,0.1 M438,317.6c-0.1,0.1-0.1,0.1-0.2,0.1 M438.6,317c0,0.1-0.1,0.1-0.1,0.2 M438.9,316.5
		c0,0.1-0.1,0.1-0.1,0.2 M431,316.5L431,316.5L431,316.5L431,316.5l-0.1-0.2v0l0-0.1v0l0-0.1v0l0-0.1v0l0-0.1v0l0-0.1v0l0-0.1l0-0.1
		v0l0-0.1v0l0-0.1v0l0-0.1l0-0.1v0l0-0.1v0l0-0.1v0l0-0.1l0-0.1l0-0.1v0l0-0.1v0l0-0.1l0-0.1v-8.1v0l0-0.1v0l0-0.1v0l0-0.1v0l0-0.1
		v0l0-0.1v0l0-0.1v0l0-0.1v0l0-0.1v0l0-0.1v0l0-0.1v0l0-0.1v0l0-0.1v0l0-0.1v0l0-0.1v0l0-0.1v0l0-0.1v0l0-0.1v0l0-0.1v0l0-0.1v0
		l0.1-0.1v0l0.1-0.1v0l0.1-0.1v0c0-0.1,0.1-0.1,0.1-0.2v0l0.1-0.1v0c0-0.1,0.1-0.1,0.1-0.2v0l0.1-0.1v0c0.1-0.1,0.1-0.2,0.2-0.2v0
		l0.1-0.1v0l0.1-0.1v0l0.1-0.1v0l0.1-0.1v0l0.1-0.1v0l0.1-0.1v0l0.1-0.1v0l0.1-0.1v0l0.1-0.1v0l0.1-0.1v0l0.1-0.1v0l0.1-0.1v0
		l0.1-0.1v0l0.1-0.1v0l0.1,0v0l0.1,0l0.1,0v0l0.1,0l0.1,0l0.1,0l0.1,0v0l0.1,0l0.1,0l0.1,0l0.1,0l0.1,0l0.1,0l0.1,0l0.1,0l0.1,0
		l0.1,0l0.1,0l0.1,0l0.1,0l0.1,0l0.1,0l0.1,0l0.1,0l0.1,0l0.1,0l0.1,0l0.1,0l0.1,0l0.1,0l0.1,0v0l0.1,0l0.1,0l0.1,0l0.1,0v0l0.1,0
		l0.1,0v0l0.1,0v0l0.1,0.1v0l0.1,0.1v0l0.1,0.1v0l0.1,0.1v0l0.1,0.1v0l0.1,0.1v0l0.1,0.1v0l0.1,0.1v0l0.1,0.1v0l0.1,0.1v0l0.1,0.1v0
		l0.1,0.1v0l0.1,0.1v0l0.1,0.1v0c0.1,0.1,0.1,0.2,0.2,0.2v0l0.1,0.1v0c0,0.1,0.1,0.1,0.1,0.2v0l0.1,0.1v0c0,0.1,0.1,0.1,0.1,0.2v0
		l0.1,0.1v0l0.1,0.1v0l0.1,0.1v0l0,0.1v0l0,0.1v0l0,0.1v0l0,0.1v0l0,0.1v0l0,0.1v0l0,0.1v0l0,0.1v0l0,0.1v0l0,0.1v0l0,0.1v0l0,0.1v0
		l0,0.1v0l0,0.1v0l0,0.1v0l0,0.1v0l0,0.1v0l0,0.1v0l0,0.1v0v8.1l0,0.1l0,0.1v0l0,0.1v0l0,0.1l0,0.1l0,0.1v0l0,0.1v0l0,0.1v0l0,0.1
		l0,0.1v0l0,0.1v0l0,0.1v0l0,0.1l0,0.1v0l0,0.1v0l0,0.1v0l0,0.1v0l0,0.1v0l0,0.1v0l-0.1,0.1v0l-0.1,0.1v0c0,0.1-0.1,0.1-0.1,0.2v0
		c-0.1,0.1-0.1,0.2-0.2,0.3v0c0,0.1-0.1,0.1-0.1,0.2v0l-0.1,0.1v0l-0.1,0.1v0c-0.1,0.1-0.2,0.2-0.2,0.2v0c-0.1,0.1-0.1,0.1-0.2,0.1
		v0c-0.1,0-0.1,0.1-0.2,0.1v0c-0.1,0-0.1,0.1-0.2,0.1v0c-0.1,0-0.1,0.1-0.2,0.1v0c-0.1,0.1-0.3,0.2-0.4,0.2v0
		c-0.1,0-0.1,0.1-0.2,0.1v0l-0.1,0v0l-0.1,0v0l-0.1,0v0l-0.1,0v0l-0.1,0v0l-0.1,0v0l-0.1,0v0l-0.1,0v0l-0.1,0v0l-0.1,0v0l-0.1,0v0
		l-0.1,0v0l-0.1,0v0l-0.1,0v0l-0.1,0v0l-0.1,0v0l-0.1,0 M431.3,317L431.3,317c-0.1-0.1-0.1-0.2-0.2-0.3v0 M431.8,317.6L431.8,317.6
		c-0.1-0.1-0.2-0.2-0.2-0.2v0l-0.1-0.1v0l-0.1-0.1v0 M432.8,318.3L432.8,318.3c-0.1-0.1-0.3-0.1-0.4-0.2v0 M434.9,318.8l-0.1,0v0
		l-0.1,0v0l-0.1,0v0l-0.1,0v0l-0.1,0v0l-0.1,0v0l-0.1,0v0l-0.1,0v0l-0.1,0v0l-0.1,0v0l-0.1,0v0l-0.1,0v0l-0.1,0v0l-0.1,0v0l-0.1,0v0
		l-0.1,0v0l-0.1,0v0 M434.9,318.8L434.9,318.8L434.9,318.8L434.9,318.8z"/>
	<path class="st1" d="M434.9,253.9L434.9,253.9l-0.1,0l-0.1,0l-0.1,0l-0.1,0l-0.1,0l-0.1,0l-0.1,0l-0.1,0l-0.1,0l-0.1,0l-0.1,0
		l-0.1,0l-0.1,0l-0.1,0l-0.1,0l-0.1,0v0l-0.1,0l-0.1,0l-0.1,0l-0.1-0.1l-0.1-0.1l-0.1-0.1l-0.1-0.1l-0.1-0.1l-0.1-0.1l-0.1-0.1
		l-0.1-0.1v0l-0.1-0.1l-0.1-0.1l-0.1-0.1l-0.1-0.1v0l-0.1-0.1l-0.1-0.1l-0.1-0.1v0l-0.1-0.1v0l-0.1-0.1v0l-0.1-0.1l-0.1-0.1v0
		l-0.1-0.1l-0.1-0.1l-0.1-0.1v0l-0.1-0.1l-0.1-0.1l-0.1-0.1l-0.1-0.1v0l0-0.1v0l0-0.1v0l0-0.1v0l0-0.1v0l0-0.1v0l0-0.1v0l0-0.1v0
		l0-0.1v0l0-0.1l0-0.1v0l0-0.1v0l0-0.1v0l0-0.1v0l0-0.1v0l0-0.1v0l0-0.1v0l0-0.1v0l0-0.1v0l0-0.1v0v-8.1v0l0-0.1v0l0-0.1v0l0-0.1
		l0-0.1v0l0-0.1v0l0-0.1l0-0.1l0-0.1l0-0.1l0-0.1l0-0.1l0-0.1l0-0.1l0-0.1v0l0-0.1l0-0.1l0-0.1l0-0.1v0l0-0.1l0.1-0.1l0.1-0.1
		l0.1-0.1l0.1-0.1v0l0.1-0.1l0.1-0.1l0.1-0.1l0.1-0.1l0.1-0.1l0.1-0.1v0l0.1-0.1l0.1-0.1l0.1-0.1l0.1-0.1l0.1-0.1l0.1-0.1l0.1-0.1
		l0.1-0.1v0l0.1-0.1l0.1-0.1l0.1-0.1l0.1-0.1l0.1-0.1l0.1-0.1l0.1-0.1l0.1-0.1l0.1,0l0.1,0v0l0.1,0l0.1,0v0l0.1,0v0l0.1,0v0l0.1,0
		l0.1,0v0l0.1,0v0l0.1,0v0l0.1,0v0l0.1,0v0l0.1,0v0l0.1,0v0l0.1,0v0l0.1,0v0l0.1,0v0l0.1,0v0l0.1,0v0v0l0.1,0v0l0.1,0v0l0.1,0v0
		l0.1,0v0l0.1,0v0l0.1,0v0l0.1,0v0l0.1,0v0l0.1,0v0l0.1,0v0l0.1,0v0l0.1,0l0.1,0v0l0.1,0v0l0.1,0v0l0.1,0l0.1,0v0l0.1,0l0.1,0
		l0.1,0.1l0.1,0.1l0.1,0.1l0.1,0.1l0.1,0.1l0.1,0.1l0.1,0.1l0.1,0.1v0l0.1,0.1l0.1,0.1l0.1,0.1l0.1,0.1l0.1,0.1l0.1,0.1l0.1,0.1
		l0.1,0.1v0l0.1,0.1l0.1,0.1l0.1,0.1l0.1,0.1l0.1,0.1l0.1,0.1v0l0.1,0.1l0.1,0.1l0.1,0.1l0.1,0.1l0,0.1v0l0,0.1l0,0.1l0,0.1l0,0.1v0
		l0,0.1l0,0.1l0,0.1l0,0.1l0,0.1l0,0.1l0,0.1l0,0.1l0,0.1v0l0,0.1v0l0,0.1l0,0.1v0l0,0.1v0l0,0.1v0v8.1v0l0,0.1v0l0,0.1v0l0,0.1v0
		l0,0.1v0l0,0.1v0l0,0.1v0l0,0.1v0l0,0.1v0l0,0.1v0l0,0.1l0,0.1v0l0,0.1v0l0,0.1v0l0,0.1v0l0,0.1v0l0,0.1v0l0,0.1v0l0,0.1v0l0,0.1v0
		l-0.1,0.1l-0.1,0.1l-0.1,0.1l-0.1,0.1v0l-0.1,0.1l-0.1,0.1l-0.1,0.1v0l-0.1,0.1l-0.1,0.1v0l-0.1,0.1v0l-0.1,0.1v0l-0.1,0.1
		l-0.1,0.1l-0.1,0.1v0l-0.1,0.1l-0.1,0.1l-0.1,0.1l-0.1,0.1v0l-0.1,0.1l-0.1,0.1l-0.1,0.1l-0.1,0.1l-0.1,0.1l-0.1,0.1l-0.1,0.1
		l-0.1,0.1l-0.1,0l-0.1,0l-0.1,0v0l-0.1,0l-0.1,0l-0.1,0l-0.1,0l-0.1,0l-0.1,0l-0.1,0l-0.1,0l-0.1,0l-0.1,0l-0.1,0l-0.1,0l-0.1,0
		l-0.1,0l-0.1,0L434.9,253.9z M434.9,189L434.9,189L434.9,189l-0.1,0v0l-0.1,0v0l-0.1,0v0l-0.1,0v0l-0.1,0v0l-0.1,0v0l-0.1,0v0
		l-0.1,0v0l-0.1,0v0l-0.1,0v0l-0.1,0v0l-0.1,0v0l-0.1,0v0l-0.1,0v0l-0.1,0v0c-0.1,0-0.1-0.1-0.2-0.1v0l-0.1,0v0l-0.1,0v0l-0.1-0.1v0
		l-0.1-0.1v0l-0.1-0.1v0l-0.1-0.1v0l-0.1-0.1v0l-0.1-0.1v0l-0.1-0.1v0c-0.1,0-0.1-0.1-0.2-0.1v0l-0.1-0.1v0l-0.1-0.1v0l-0.1-0.1v0
		l-0.1-0.1v0l-0.1-0.1v0c-0.1-0.1-0.1-0.1-0.1-0.2v0l-0.1-0.1v0l-0.1-0.1v0c0-0.1-0.1-0.1-0.1-0.2v0l-0.1-0.1v0l-0.1-0.1v0l-0.1-0.1
		v0l-0.1-0.1v0l-0.1-0.1v0l-0.1-0.1v0l0-0.1v0l0-0.1v0l0-0.1v0l0-0.1v0l0-0.1v0l0-0.1v0l0-0.1v0l0-0.1v0l0-0.1l0-0.1l0-0.1v0l0-0.1
		v0l0-0.1v0l0-0.1l0-0.1l0-0.1v0l0-0.1v0l0-0.1l0-0.1v-8.1v0l0-0.1v0l0-0.1v0l0-0.1v0l0-0.1v0l0-0.1v0l0-0.1v0l0-0.1v0l0-0.1v0
		l0-0.1v0l0-0.1v0l0-0.1v0l0-0.1v0l0-0.1l0-0.1l0-0.1v0l0-0.1v0l0-0.1v0l0-0.1l0-0.1v0l0.1-0.1l0.1-0.1l0.1-0.1l0.1-0.1l0.1-0.1
		l0.1-0.1l0.1-0.1l0.1-0.1l0.1-0.1l0.1-0.1l0.1-0.1l0.1-0.1l0.1-0.1l0.1-0.1l0.1-0.1l0.1-0.1l0.1-0.1l0.1-0.1l0.1-0.1l0.1-0.1
		l0.1-0.1l0.1-0.1l0.1-0.1l0.1-0.1l0.1-0.1l0.1-0.1l0.1,0l0.1,0l0.1,0v0l0.1,0l0.1,0l0.1,0l0.1,0l0.1,0l0.1,0l0.1,0l0.1,0l0.1,0
		l0.1,0l0.1,0l0.1,0l0.1,0l0.1,0l0.1,0l0.1,0l0.1,0l0.1,0l0.1,0l0.1,0l0.1,0l0.1,0l0.1,0l0.1,0l0.1,0l0.1,0l0.1,0l0.1,0l0.1,0l0.1,0
		l0.1,0l0.1,0v0l0.1,0l0.1,0l0.1,0l0.1,0.1l0.1,0.1l0.1,0.1l0.1,0.1l0.1,0.1l0.1,0.1l0.1,0.1l0.1,0.1l0.1,0.1l0.1,0.1l0.1,0.1
		l0.1,0.1l0.1,0.1l0.1,0.1l0.1,0.1l0.1,0.1l0.1,0.1l0.1,0.1l0.1,0.1l0.1,0.1l0.1,0.1l0.1,0.1l0.1,0.1l0.1,0.1l0.1,0.1l0.1,0.1v0
		l0,0.1l0,0.1v0l0,0.1v0l0,0.1v0l0,0.1l0,0.1l0,0.1v0l0,0.1v0l0,0.1v0l0,0.1v0l0,0.1v0l0,0.1v0l0,0.1v0l0,0.1v0l0,0.1v0l0,0.1v0
		l0,0.1v0l0,0.1v0l0,0.1v0v8.1l0,0.1l0,0.1v0l0,0.1v0l0,0.1l0,0.1l0,0.1v0l0,0.1v0l0,0.1v0l0,0.1l0,0.1l0,0.1v0l0,0.1v0l0,0.1v0
		l0,0.1v0l0,0.1v0l0,0.1v0l0,0.1v0l0,0.1v0l0,0.1v0l-0.1,0.1v0l-0.1,0.1v0l-0.1,0.1v0l-0.1,0.1v0l-0.1,0.1v0l-0.1,0.1v0
		c0,0.1-0.1,0.1-0.1,0.2v0l-0.1,0.1v0l-0.1,0.1v0c0,0.1-0.1,0.1-0.1,0.2v0l-0.1,0.1v0l-0.1,0.1v0l-0.1,0.1v0l-0.1,0.1v0l-0.1,0.1v0
		c-0.1,0-0.1,0.1-0.2,0.1v0l-0.1,0.1v0l-0.1,0.1v0l-0.1,0.1v0l-0.1,0.1v0l-0.1,0.1v0l-0.1,0.1v0l-0.1,0.1v0l-0.1,0v0l-0.1,0v0
		c-0.1,0-0.1,0.1-0.2,0.1v0l-0.1,0v0l-0.1,0v0l-0.1,0v0l-0.1,0v0l-0.1,0v0l-0.1,0v0l-0.1,0v0l-0.1,0v0l-0.1,0v0l-0.1,0v0l-0.1,0v0
		l-0.1,0v0l-0.1,0v0l-0.1,0v0L434.9,189L434.9,189z M434.9,124L434.9,124c-2.5,0-4.6-2-4.6-4.6v-8.1c0-2.5,2-4.6,4.6-4.6
		c2.5,0,4.6,2,4.6,4.6v8.1C439.5,122,437.4,124,434.9,124z M434.9,383.8L434.9,383.8l-0.1,0l-0.1,0l-0.1,0l-0.1,0l-0.1,0l-0.1,0
		l-0.1,0l-0.1,0l-0.1,0l-0.1,0l-0.1,0l-0.1,0l-0.1,0l-0.1,0l-0.1,0l-0.1,0l-0.1,0l-0.1,0v0l-0.1,0l-0.1-0.1v0l-0.1-0.1v0l-0.1-0.1v0
		l-0.1-0.1l-0.1-0.1v0l-0.1-0.1l-0.1-0.1v0l-0.1-0.1l-0.1-0.1v0l-0.1-0.1l-0.1-0.1v0l-0.1-0.1l-0.1-0.1l-0.1-0.1v0l-0.1-0.1
		l-0.1-0.1l-0.1-0.1l-0.1-0.1v0l-0.1-0.1l-0.1-0.1v0l-0.1-0.1v0l-0.1-0.1l-0.1-0.1v0l-0.1-0.1l-0.1-0.1l-0.1-0.1l0-0.1l0-0.1l0-0.1
		l0-0.1l0-0.1l0-0.1v0l0-0.1l0-0.1l0-0.1l0-0.1v0l0-0.1l0-0.1l0-0.1l0-0.1v0l0-0.1v0l0-0.1l0-0.1l0-0.1v0l0-0.1v0v-8.1l0-0.1l0-0.1
		l0-0.1l0-0.1l0-0.1l0-0.1l0-0.1l0-0.1l0-0.1v0l0-0.1v0l0-0.1l0-0.1l0-0.1v0l0-0.1v0l0-0.1l0-0.1l0-0.1l0-0.1v0l0-0.1l0.1-0.1v0
		l0.1-0.1v0l0.1-0.1v0l0.1-0.1v0l0.1-0.1v0l0.1-0.1v0l0.1-0.1l0.1-0.1v0l0.1-0.1v0l0.1-0.1v0l0.1-0.1l0.1-0.1v0l0.1-0.1v0l0.1-0.1v0
		l0.1-0.1v0l0.1-0.1v0l0.1-0.1v0l0.1-0.1l0.1-0.1v0l0.1-0.1v0l0.1-0.1v0l0.1-0.1v0l0.1-0.1v0l0.1-0.1v0l0.1-0.1v0l0.1-0.1v0l0.1,0v0
		l0.1,0v0l0.1,0v0l0.1,0v0l0.1,0v0l0.1,0v0l0.1,0v0l0.1,0v0l0.1,0v0l0.1,0v0l0.1,0v0l0.1,0v0l0.1,0v0l0.1,0v0l0.1,0v0l0.1,0v0l0.1,0
		v0l0.1,0v0l0.1,0v0v0l0.1,0v0l0.1,0v0l0.1,0v0l0.1,0v0l0.1,0v0l0.1,0v0l0.1,0v0l0.1,0v0l0.1,0v0l0.1,0v0l0.1,0v0l0.1,0v0l0.1,0v0
		l0.1,0v0l0.1,0v0l0.1,0v0l0.1,0v0l0.1,0v0l0.1,0v0l0.1,0.1v0l0.1,0.1v0l0.1,0.1v0l0.1,0.1v0l0.1,0.1v0l0.1,0.1v0l0.1,0.1v0l0.1,0.1
		l0.1,0.1v0l0.1,0.1v0l0.1,0.1v0l0.1,0.1v0l0.1,0.1v0l0.1,0.1v0l0.1,0.1l0.1,0.1v0l0.1,0.1v0l0.1,0.1v0l0.1,0.1l0.1,0.1v0l0.1,0.1v0
		l0.1,0.1v0l0.1,0.1v0l0.1,0.1v0l0.1,0.1v0l0.1,0.1l0,0.1v0l0,0.1l0,0.1l0,0.1l0,0.1v0l0,0.1v0l0,0.1l0,0.1l0,0.1v0l0,0.1v0l0,0.1
		l0,0.1l0,0.1l0,0.1l0,0.1l0,0.1l0,0.1l0,0.1l0,0.1v8.1v0l0,0.1v0l0,0.1l0,0.1l0,0.1v0l0,0.1v0l0,0.1l0,0.1l0,0.1l0,0.1v0l0,0.1
		l0,0.1l0,0.1l0,0.1v0l0,0.1l0,0.1l0,0.1l0,0.1l0,0.1l0,0.1l-0.1,0.1l-0.1,0.1l-0.1,0.1v0l-0.1,0.1l-0.1,0.1v0l-0.1,0.1v0l-0.1,0.1
		l-0.1,0.1v0l-0.1,0.1l-0.1,0.1l-0.1,0.1l-0.1,0.1v0l-0.1,0.1l-0.1,0.1l-0.1,0.1v0l-0.1,0.1l-0.1,0.1v0l-0.1,0.1l-0.1,0.1v0
		l-0.1,0.1l-0.1,0.1v0l-0.1,0.1l-0.1,0.1v0l-0.1,0.1v0l-0.1,0.1v0l-0.1,0.1l-0.1,0v0l-0.1,0l-0.1,0l-0.1,0l-0.1,0l-0.1,0l-0.1,0
		l-0.1,0l-0.1,0l-0.1,0l-0.1,0l-0.1,0l-0.1,0l-0.1,0l-0.1,0l-0.1,0l-0.1,0l-0.1,0L434.9,383.8z M434.9,448.7L434.9,448.7
		c-2.5,0-4.6-2-4.6-4.6V436c0-2.5,2-4.6,4.6-4.6c2.5,0,4.6,2,4.6,4.6v8.1C439.5,446.6,437.4,448.7,434.9,448.7z M437,318.3
		c-0.1,0-0.1,0.1-0.2,0.1 M437.5,318c-0.1,0-0.1,0.1-0.2,0.1 M437.7,317.9c-0.1,0-0.1,0.1-0.2,0.1 M437.9,317.7
		c-0.1,0-0.1,0.1-0.2,0.1 M438,317.6c-0.1,0.1-0.1,0.1-0.2,0.1 M438.6,317c0,0.1-0.1,0.1-0.1,0.2 M438.9,316.5
		c0,0.1-0.1,0.1-0.1,0.2 M431,316.5L431,316.5L431,316.5L431,316.5l-0.1-0.2v0l0-0.1v0l0-0.1v0l0-0.1v0l0-0.1v0l0-0.1v0l0-0.1l0-0.1
		v0l0-0.1v0l0-0.1v0l0-0.1l0-0.1v0l0-0.1v0l0-0.1v0l0-0.1l0-0.1l0-0.1v0l0-0.1v0l0-0.1l0-0.1v-8.1v0l0-0.1v0l0-0.1v0l0-0.1v0l0-0.1
		v0l0-0.1v0l0-0.1v0l0-0.1v0l0-0.1v0l0-0.1v0l0-0.1v0l0-0.1v0l0-0.1v0l0-0.1v0l0-0.1v0l0-0.1v0l0-0.1v0l0-0.1v0l0-0.1v0l0-0.1v0
		l0.1-0.1v0l0.1-0.1v0l0.1-0.1v0c0-0.1,0.1-0.1,0.1-0.2v0l0.1-0.1v0c0-0.1,0.1-0.1,0.1-0.2v0l0.1-0.1v0c0.1-0.1,0.1-0.2,0.2-0.2v0
		l0.1-0.1v0l0.1-0.1v0l0.1-0.1v0l0.1-0.1v0l0.1-0.1v0l0.1-0.1v0l0.1-0.1v0l0.1-0.1v0l0.1-0.1v0l0.1-0.1v0l0.1-0.1v0l0.1-0.1v0
		l0.1-0.1v0l0.1-0.1v0l0.1,0v0l0.1,0l0.1,0v0l0.1,0l0.1,0l0.1,0l0.1,0v0l0.1,0l0.1,0l0.1,0l0.1,0l0.1,0l0.1,0l0.1,0l0.1,0l0.1,0
		l0.1,0l0.1,0l0.1,0l0.1,0l0.1,0l0.1,0l0.1,0l0.1,0l0.1,0l0.1,0l0.1,0l0.1,0l0.1,0l0.1,0l0.1,0v0l0.1,0l0.1,0l0.1,0l0.1,0v0l0.1,0
		l0.1,0v0l0.1,0v0l0.1,0.1v0l0.1,0.1v0l0.1,0.1v0l0.1,0.1v0l0.1,0.1v0l0.1,0.1v0l0.1,0.1v0l0.1,0.1v0l0.1,0.1v0l0.1,0.1v0l0.1,0.1v0
		l0.1,0.1v0l0.1,0.1v0l0.1,0.1v0c0.1,0.1,0.1,0.2,0.2,0.2v0l0.1,0.1v0c0,0.1,0.1,0.1,0.1,0.2v0l0.1,0.1v0c0,0.1,0.1,0.1,0.1,0.2v0
		l0.1,0.1v0l0.1,0.1v0l0.1,0.1v0l0,0.1v0l0,0.1v0l0,0.1v0l0,0.1v0l0,0.1v0l0,0.1v0l0,0.1v0l0,0.1v0l0,0.1v0l0,0.1v0l0,0.1v0l0,0.1v0
		l0,0.1v0l0,0.1v0l0,0.1v0l0,0.1v0l0,0.1v0l0,0.1v0l0,0.1v0v8.1l0,0.1l0,0.1v0l0,0.1v0l0,0.1l0,0.1l0,0.1v0l0,0.1v0l0,0.1v0l0,0.1
		l0,0.1v0l0,0.1v0l0,0.1v0l0,0.1l0,0.1v0l0,0.1v0l0,0.1v0l0,0.1v0l0,0.1v0l0,0.1v0l-0.1,0.1v0l-0.1,0.1v0c0,0.1-0.1,0.1-0.1,0.2v0
		c-0.1,0.1-0.1,0.2-0.2,0.3v0c0,0.1-0.1,0.1-0.1,0.2v0l-0.1,0.1v0l-0.1,0.1v0c-0.1,0.1-0.2,0.2-0.2,0.2v0c-0.1,0.1-0.1,0.1-0.2,0.1
		v0c-0.1,0-0.1,0.1-0.2,0.1v0c-0.1,0-0.1,0.1-0.2,0.1v0c-0.1,0-0.1,0.1-0.2,0.1v0c-0.1,0.1-0.3,0.2-0.4,0.2v0
		c-0.1,0-0.1,0.1-0.2,0.1v0l-0.1,0v0l-0.1,0v0l-0.1,0v0l-0.1,0v0l-0.1,0v0l-0.1,0v0l-0.1,0v0l-0.1,0v0l-0.1,0v0l-0.1,0v0l-0.1,0v0
		l-0.1,0v0l-0.1,0v0l-0.1,0v0l-0.1,0v0l-0.1,0v0l-0.1,0 M431.3,317L431.3,317c-0.1-0.1-0.1-0.2-0.2-0.3v0 M431.8,317.6L431.8,317.6
		c-0.1-0.1-0.2-0.2-0.2-0.2v0l-0.1-0.1v0l-0.1-0.1v0 M432.8,318.3L432.8,318.3c-0.1-0.1-0.3-0.1-0.4-0.2v0 M434.9,318.8l-0.1,0v0
		l-0.1,0v0l-0.1,0v0l-0.1,0v0l-0.1,0v0l-0.1,0v0l-0.1,0v0l-0.1,0v0l-0.1,0v0l-0.1,0v0l-0.1,0v0l-0.1,0v0l-0.1,0v0l-0.1,0v0l-0.1,0v0
		l-0.1,0v0l-0.1,0v0 M434.9,318.8L434.9,318.8L434.9,318.8L434.9,318.8z"/>
	<path class="st2" d="M153.3,253.9L153.3,253.9l-0.1,0l-0.1,0l-0.1,0l-0.1,0l-0.1,0l-0.1,0l-0.1,0l-0.1,0l-0.1,0l-0.1,0l-0.1,0
		l-0.1,0l-0.1,0l-0.1,0l-0.1,0l-0.1,0v0l-0.1,0l-0.1,0l-0.1,0l-0.1-0.1l-0.1-0.1l-0.1-0.1l-0.1-0.1l-0.1-0.1l-0.1-0.1l-0.1-0.1
		l-0.1-0.1v0l-0.1-0.1l-0.1-0.1l-0.1-0.1l-0.1-0.1v0l-0.1-0.1l-0.1-0.1l-0.1-0.1v0l-0.1-0.1v0l-0.1-0.1v0l-0.1-0.1l-0.1-0.1v0
		l-0.1-0.1l-0.1-0.1l-0.1-0.1v0l-0.1-0.1l-0.1-0.1l-0.1-0.1l-0.1-0.1v0l0-0.1v0l0-0.1v0l0-0.1v0l0-0.1v0l0-0.1v0l0-0.1v0l0-0.1v0
		l0-0.1v0l0-0.1l0-0.1v0l0-0.1v0l0-0.1v0l0-0.1v0l0-0.1v0l0-0.1v0l0-0.1v0l0-0.1v0l0-0.1v0l0-0.1v0v-8.1v0l0-0.1v0l0-0.1v0l0-0.1
		l0-0.1v0l0-0.1v0l0-0.1l0-0.1l0-0.1l0-0.1l0-0.1l0-0.1l0-0.1l0-0.1l0-0.1v0l0-0.1l0-0.1l0-0.1l0-0.1v0l0-0.1l0.1-0.1l0.1-0.1
		l0.1-0.1l0.1-0.1v0l0.1-0.1l0.1-0.1l0.1-0.1l0.1-0.1l0.1-0.1l0.1-0.1v0l0.1-0.1l0.1-0.1l0.1-0.1l0.1-0.1l0.1-0.1l0.1-0.1l0.1-0.1
		l0.1-0.1v0l0.1-0.1l0.1-0.1l0.1-0.1l0.1-0.1l0.1-0.1l0.1-0.1l0.1-0.1l0.1-0.1l0.1,0l0.1,0v0l0.1,0l0.1,0v0l0.1,0v0l0.1,0v0l0.1,0
		l0.1,0v0l0.1,0v0l0.1,0v0l0.1,0v0l0.1,0v0l0.1,0v0l0.1,0v0l0.1,0v0l0.1,0v0l0.1,0v0l0.1,0v0l0.1,0v0v0l0.1,0v0l0.1,0v0l0.1,0v0
		l0.1,0v0l0.1,0v0l0.1,0v0l0.1,0v0l0.1,0v0l0.1,0v0l0.1,0v0l0.1,0v0l0.1,0l0.1,0v0l0.1,0v0l0.1,0v0l0.1,0l0.1,0v0l0.1,0l0.1,0
		l0.1,0.1l0.1,0.1l0.1,0.1l0.1,0.1l0.1,0.1l0.1,0.1l0.1,0.1l0.1,0.1v0l0.1,0.1l0.1,0.1l0.1,0.1l0.1,0.1l0.1,0.1l0.1,0.1l0.1,0.1
		l0.1,0.1v0l0.1,0.1l0.1,0.1l0.1,0.1l0.1,0.1l0.1,0.1l0.1,0.1v0l0.1,0.1l0.1,0.1l0.1,0.1l0.1,0.1l0,0.1v0l0,0.1l0,0.1l0,0.1l0,0.1v0
		l0,0.1l0,0.1l0,0.1l0,0.1l0,0.1l0,0.1l0,0.1l0,0.1l0,0.1v0l0,0.1v0l0,0.1l0,0.1v0l0,0.1v0l0,0.1v0v8.1v0l0,0.1v0l0,0.1v0l0,0.1v0
		l0,0.1v0l0,0.1v0l0,0.1v0l0,0.1v0l0,0.1v0l0,0.1v0l0,0.1l0,0.1v0l0,0.1v0l0,0.1v0l0,0.1v0l0,0.1v0l0,0.1v0l0,0.1v0l0,0.1v0l0,0.1v0
		l-0.1,0.1l-0.1,0.1l-0.1,0.1l-0.1,0.1v0l-0.1,0.1l-0.1,0.1l-0.1,0.1v0l-0.1,0.1l-0.1,0.1v0l-0.1,0.1v0l-0.1,0.1v0l-0.1,0.1
		l-0.1,0.1l-0.1,0.1v0l-0.1,0.1l-0.1,0.1l-0.1,0.1l-0.1,0.1v0l-0.1,0.1L156,253l-0.1,0.1l-0.1,0.1l-0.1,0.1l-0.1,0.1l-0.1,0.1
		l-0.1,0.1l-0.1,0l-0.1,0l-0.1,0v0l-0.1,0l-0.1,0l-0.1,0l-0.1,0l-0.1,0l-0.1,0l-0.1,0l-0.1,0l-0.1,0l-0.1,0l-0.1,0l-0.1,0l-0.1,0
		l-0.1,0l-0.1,0L153.3,253.9z M153.3,189L153.3,189L153.3,189l-0.1,0v0l-0.1,0v0l-0.1,0v0l-0.1,0v0l-0.1,0v0l-0.1,0v0l-0.1,0v0
		l-0.1,0v0l-0.1,0v0l-0.1,0v0l-0.1,0v0l-0.1,0v0l-0.1,0v0l-0.1,0v0l-0.1,0v0c-0.1,0-0.1-0.1-0.2-0.1v0l-0.1,0v0l-0.1,0v0l-0.1-0.1v0
		l-0.1-0.1v0l-0.1-0.1v0l-0.1-0.1v0l-0.1-0.1v0l-0.1-0.1v0l-0.1-0.1v0c-0.1,0-0.1-0.1-0.2-0.1v0l-0.1-0.1v0l-0.1-0.1v0l-0.1-0.1v0
		l-0.1-0.1v0l-0.1-0.1v0c-0.1-0.1-0.1-0.1-0.1-0.2v0l-0.1-0.1v0l-0.1-0.1v0c0-0.1-0.1-0.1-0.1-0.2v0l-0.1-0.1v0l-0.1-0.1v0l-0.1-0.1
		v0l-0.1-0.1v0l-0.1-0.1v0l-0.1-0.1v0l0-0.1v0l0-0.1v0l0-0.1v0l0-0.1v0l0-0.1v0l0-0.1v0l0-0.1v0l0-0.1v0l0-0.1l0-0.1l0-0.1v0l0-0.1
		v0l0-0.1v0l0-0.1l0-0.1l0-0.1v0l0-0.1v0l0-0.1l0-0.1v-8.1v0l0-0.1v0l0-0.1v0l0-0.1v0l0-0.1v0l0-0.1v0l0-0.1v0l0-0.1v0l0-0.1v0
		l0-0.1v0l0-0.1v0l0-0.1v0l0-0.1v0l0-0.1l0-0.1l0-0.1v0l0-0.1v0l0-0.1v0l0-0.1l0-0.1v0l0.1-0.1l0.1-0.1l0.1-0.1l0.1-0.1l0.1-0.1
		l0.1-0.1l0.1-0.1l0.1-0.1l0.1-0.1l0.1-0.1l0.1-0.1l0.1-0.1l0.1-0.1l0.1-0.1l0.1-0.1l0.1-0.1l0.1-0.1l0.1-0.1l0.1-0.1l0.1-0.1
		l0.1-0.1l0.1-0.1l0.1-0.1l0.1-0.1l0.1-0.1l0.1-0.1l0.1,0l0.1,0l0.1,0v0l0.1,0l0.1,0l0.1,0l0.1,0l0.1,0l0.1,0l0.1,0l0.1,0l0.1,0
		l0.1,0l0.1,0l0.1,0l0.1,0l0.1,0l0.1,0l0.1,0l0.1,0l0.1,0l0.1,0l0.1,0l0.1,0l0.1,0l0.1,0l0.1,0l0.1,0l0.1,0l0.1,0l0.1,0l0.1,0l0.1,0
		l0.1,0l0.1,0v0l0.1,0l0.1,0l0.1,0l0.1,0.1l0.1,0.1l0.1,0.1l0.1,0.1l0.1,0.1l0.1,0.1l0.1,0.1l0.1,0.1l0.1,0.1l0.1,0.1l0.1,0.1
		l0.1,0.1l0.1,0.1l0.1,0.1l0.1,0.1l0.1,0.1l0.1,0.1l0.1,0.1l0.1,0.1l0.1,0.1l0.1,0.1l0.1,0.1l0.1,0.1l0.1,0.1l0.1,0.1l0.1,0.1v0
		l0,0.1l0,0.1v0l0,0.1v0l0,0.1v0l0,0.1l0,0.1l0,0.1v0l0,0.1v0l0,0.1v0l0,0.1v0l0,0.1v0l0,0.1v0l0,0.1v0l0,0.1v0l0,0.1v0l0,0.1v0
		l0,0.1v0l0,0.1v0l0,0.1v0v8.1l0,0.1l0,0.1v0l0,0.1v0l0,0.1l0,0.1l0,0.1v0l0,0.1v0l0,0.1v0l0,0.1l0,0.1l0,0.1v0l0,0.1v0l0,0.1v0
		l0,0.1v0l0,0.1v0l0,0.1v0l0,0.1v0l0,0.1v0l0,0.1v0l-0.1,0.1v0l-0.1,0.1v0l-0.1,0.1v0l-0.1,0.1v0l-0.1,0.1v0l-0.1,0.1v0
		c0,0.1-0.1,0.1-0.1,0.2v0l-0.1,0.1v0l-0.1,0.1v0c0,0.1-0.1,0.1-0.1,0.2v0l-0.1,0.1v0l-0.1,0.1v0l-0.1,0.1v0l-0.1,0.1v0l-0.1,0.1v0
		c-0.1,0-0.1,0.1-0.2,0.1v0l-0.1,0.1v0l-0.1,0.1v0l-0.1,0.1v0l-0.1,0.1v0l-0.1,0.1v0l-0.1,0.1v0l-0.1,0.1v0l-0.1,0v0l-0.1,0v0
		c-0.1,0-0.1,0.1-0.2,0.1v0l-0.1,0v0l-0.1,0v0l-0.1,0v0l-0.1,0v0l-0.1,0v0l-0.1,0v0l-0.1,0v0l-0.1,0v0l-0.1,0v0l-0.1,0v0l-0.1,0v0
		l-0.1,0v0l-0.1,0v0l-0.1,0v0L153.3,189L153.3,189z M153.3,383.8L153.3,383.8l-0.1,0l-0.1,0l-0.1,0l-0.1,0l-0.1,0l-0.1,0l-0.1,0
		l-0.1,0l-0.1,0l-0.1,0l-0.1,0l-0.1,0l-0.1,0l-0.1,0l-0.1,0l-0.1,0l-0.1,0l-0.1,0v0l-0.1,0l-0.1-0.1v0l-0.1-0.1v0l-0.1-0.1v0
		l-0.1-0.1l-0.1-0.1v0l-0.1-0.1l-0.1-0.1v0l-0.1-0.1l-0.1-0.1v0l-0.1-0.1l-0.1-0.1v0l-0.1-0.1l-0.1-0.1l-0.1-0.1v0l-0.1-0.1
		l-0.1-0.1l-0.1-0.1l-0.1-0.1v0l-0.1-0.1l-0.1-0.1v0l-0.1-0.1v0l-0.1-0.1l-0.1-0.1v0l-0.1-0.1l-0.1-0.1l-0.1-0.1l0-0.1l0-0.1l0-0.1
		l0-0.1l0-0.1l0-0.1v0l0-0.1l0-0.1l0-0.1l0-0.1v0l0-0.1l0-0.1l0-0.1l0-0.1v0l0-0.1v0l0-0.1l0-0.1l0-0.1v0l0-0.1v0v-8.1l0-0.1l0-0.1
		l0-0.1l0-0.1l0-0.1l0-0.1l0-0.1l0-0.1l0-0.1v0l0-0.1v0l0-0.1l0-0.1l0-0.1v0l0-0.1v0l0-0.1l0-0.1l0-0.1l0-0.1v0l0-0.1l0.1-0.1v0
		l0.1-0.1v0l0.1-0.1v0l0.1-0.1v0l0.1-0.1v0l0.1-0.1v0l0.1-0.1l0.1-0.1v0l0.1-0.1v0l0.1-0.1v0l0.1-0.1l0.1-0.1v0l0.1-0.1v0l0.1-0.1v0
		l0.1-0.1v0l0.1-0.1v0l0.1-0.1v0l0.1-0.1l0.1-0.1v0l0.1-0.1v0l0.1-0.1v0l0.1-0.1v0l0.1-0.1v0l0.1-0.1v0l0.1-0.1v0l0.1-0.1v0l0.1,0v0
		l0.1,0v0l0.1,0v0l0.1,0v0l0.1,0v0l0.1,0v0l0.1,0v0l0.1,0v0l0.1,0v0l0.1,0v0l0.1,0v0l0.1,0v0l0.1,0v0l0.1,0v0l0.1,0v0l0.1,0v0l0.1,0
		v0l0.1,0v0l0.1,0v0v0l0.1,0v0l0.1,0v0l0.1,0v0l0.1,0v0l0.1,0v0l0.1,0v0l0.1,0v0l0.1,0v0l0.1,0v0l0.1,0v0l0.1,0v0l0.1,0v0l0.1,0v0
		l0.1,0v0l0.1,0v0l0.1,0v0l0.1,0v0l0.1,0v0l0.1,0v0l0.1,0.1v0l0.1,0.1v0l0.1,0.1v0l0.1,0.1v0l0.1,0.1v0l0.1,0.1v0l0.1,0.1v0l0.1,0.1
		l0.1,0.1v0l0.1,0.1v0l0.1,0.1v0l0.1,0.1v0l0.1,0.1v0l0.1,0.1v0l0.1,0.1l0.1,0.1v0l0.1,0.1v0l0.1,0.1v0l0.1,0.1l0.1,0.1v0l0.1,0.1v0
		l0.1,0.1v0l0.1,0.1v0l0.1,0.1v0l0.1,0.1v0l0.1,0.1l0,0.1v0l0,0.1l0,0.1l0,0.1l0,0.1v0l0,0.1v0l0,0.1l0,0.1l0,0.1v0l0,0.1v0l0,0.1
		l0,0.1l0,0.1l0,0.1l0,0.1l0,0.1l0,0.1l0,0.1l0,0.1v8.1v0l0,0.1v0l0,0.1l0,0.1l0,0.1v0l0,0.1v0l0,0.1l0,0.1l0,0.1l0,0.1v0l0,0.1
		l0,0.1l0,0.1l0,0.1v0l0,0.1l0,0.1l0,0.1l0,0.1l0,0.1l0,0.1l-0.1,0.1l-0.1,0.1l-0.1,0.1v0l-0.1,0.1l-0.1,0.1v0l-0.1,0.1v0l-0.1,0.1
		l-0.1,0.1v0l-0.1,0.1l-0.1,0.1l-0.1,0.1l-0.1,0.1v0l-0.1,0.1l-0.1,0.1l-0.1,0.1v0l-0.1,0.1l-0.1,0.1v0l-0.1,0.1l-0.1,0.1v0
		l-0.1,0.1l-0.1,0.1v0l-0.1,0.1l-0.1,0.1v0l-0.1,0.1v0l-0.1,0.1v0l-0.1,0.1l-0.1,0v0l-0.1,0l-0.1,0l-0.1,0l-0.1,0l-0.1,0l-0.1,0
		l-0.1,0l-0.1,0l-0.1,0l-0.1,0l-0.1,0l-0.1,0l-0.1,0l-0.1,0l-0.1,0l-0.1,0l-0.1,0L153.3,383.8z M153.3,448.7L153.3,448.7
		c-2.5,0-4.6-2-4.6-4.6V436c0-2.5,2-4.6,4.6-4.6c2.5,0,4.6,2,4.6,4.6v8.1C157.9,446.6,155.8,448.7,153.3,448.7z M155.4,318.3
		c-0.1,0-0.1,0.1-0.2,0.1 M156,318c-0.1,0-0.1,0.1-0.2,0.1 M156.2,317.9c-0.1,0-0.1,0.1-0.2,0.1 M156.3,317.7
		c-0.1,0-0.1,0.1-0.2,0.1 M156.5,317.6c-0.1,0.1-0.1,0.1-0.2,0.1 M157,317c0,0.1-0.1,0.1-0.1,0.2 M157.3,316.5
		c0,0.1-0.1,0.1-0.1,0.2 M149.4,316.5L149.4,316.5L149.4,316.5L149.4,316.5l-0.1-0.2v0l0-0.1v0l0-0.1v0l0-0.1v0l0-0.1v0l0-0.1v0
		l0-0.1l0-0.1v0l0-0.1v0l0-0.1v0l0-0.1l0-0.1v0l0-0.1v0l0-0.1v0l0-0.1l0-0.1l0-0.1v0l0-0.1v0l0-0.1l0-0.1v-8.1v0l0-0.1v0l0-0.1v0
		l0-0.1v0l0-0.1v0l0-0.1v0l0-0.1v0l0-0.1v0l0-0.1v0l0-0.1v0l0-0.1v0l0-0.1v0l0-0.1v0l0-0.1v0l0-0.1v0l0-0.1v0l0-0.1v0l0-0.1v0l0-0.1
		v0l0-0.1v0l0.1-0.1v0l0.1-0.1v0l0.1-0.1v0c0-0.1,0.1-0.1,0.1-0.2v0l0.1-0.1v0c0-0.1,0.1-0.1,0.1-0.2v0l0.1-0.1v0
		c0.1-0.1,0.1-0.2,0.2-0.2v0l0.1-0.1v0l0.1-0.1v0l0.1-0.1v0l0.1-0.1v0l0.1-0.1v0l0.1-0.1v0l0.1-0.1v0l0.1-0.1v0l0.1-0.1v0l0.1-0.1v0
		l0.1-0.1v0l0.1-0.1v0l0.1-0.1v0l0.1-0.1v0l0.1,0v0l0.1,0l0.1,0v0l0.1,0l0.1,0l0.1,0l0.1,0v0l0.1,0l0.1,0l0.1,0l0.1,0l0.1,0l0.1,0
		l0.1,0l0.1,0l0.1,0l0.1,0l0.1,0l0.1,0l0.1,0l0.1,0l0.1,0l0.1,0l0.1,0l0.1,0l0.1,0l0.1,0l0.1,0l0.1,0l0.1,0l0.1,0v0l0.1,0l0.1,0
		l0.1,0l0.1,0v0l0.1,0l0.1,0v0l0.1,0v0l0.1,0.1v0l0.1,0.1v0l0.1,0.1v0l0.1,0.1v0l0.1,0.1v0l0.1,0.1v0l0.1,0.1v0l0.1,0.1v0l0.1,0.1v0
		l0.1,0.1v0l0.1,0.1v0l0.1,0.1v0l0.1,0.1v0l0.1,0.1v0c0.1,0.1,0.1,0.2,0.2,0.2v0l0.1,0.1v0c0,0.1,0.1,0.1,0.1,0.2v0l0.1,0.1v0
		c0,0.1,0.1,0.1,0.1,0.2v0l0.1,0.1v0l0.1,0.1v0l0.1,0.1v0l0,0.1v0l0,0.1v0l0,0.1v0l0,0.1v0l0,0.1v0l0,0.1v0l0,0.1v0l0,0.1v0l0,0.1v0
		l0,0.1v0l0,0.1v0l0,0.1v0l0,0.1v0l0,0.1v0l0,0.1v0l0,0.1v0l0,0.1v0l0,0.1v0l0,0.1v0v8.1l0,0.1l0,0.1v0l0,0.1v0l0,0.1l0,0.1l0,0.1v0
		l0,0.1v0l0,0.1v0l0,0.1l0,0.1v0l0,0.1v0l0,0.1v0l0,0.1l0,0.1v0l0,0.1v0l0,0.1v0l0,0.1v0l0,0.1v0l0,0.1v0l-0.1,0.1v0l-0.1,0.1v0
		c0,0.1-0.1,0.1-0.1,0.2v0c-0.1,0.1-0.1,0.2-0.2,0.3v0c0,0.1-0.1,0.1-0.1,0.2v0l-0.1,0.1v0l-0.1,0.1v0c-0.1,0.1-0.2,0.2-0.2,0.2v0
		c-0.1,0.1-0.1,0.1-0.2,0.1v0c-0.1,0-0.1,0.1-0.2,0.1v0c-0.1,0-0.1,0.1-0.2,0.1v0c-0.1,0-0.1,0.1-0.2,0.1v0
		c-0.1,0.1-0.3,0.2-0.4,0.2v0c-0.1,0-0.1,0.1-0.2,0.1v0l-0.1,0v0l-0.1,0v0l-0.1,0v0l-0.1,0v0l-0.1,0v0l-0.1,0v0l-0.1,0v0l-0.1,0v0
		l-0.1,0v0l-0.1,0v0l-0.1,0v0l-0.1,0v0l-0.1,0v0l-0.1,0v0l-0.1,0v0l-0.1,0v0l-0.1,0 M149.7,317L149.7,317c-0.1-0.1-0.1-0.2-0.2-0.3
		v0 M150.2,317.6L150.2,317.6c-0.1-0.1-0.2-0.2-0.2-0.2v0l-0.1-0.1v0l-0.1-0.1v0 M151.3,318.3L151.3,318.3c-0.1-0.1-0.3-0.1-0.4-0.2
		v0 M153.3,318.8l-0.1,0v0l-0.1,0v0l-0.1,0v0l-0.1,0v0l-0.1,0v0l-0.1,0v0l-0.1,0v0l-0.1,0v0l-0.1,0v0l-0.1,0v0l-0.1,0v0l-0.1,0v0
		l-0.1,0v0l-0.1,0v0l-0.1,0v0l-0.1,0v0l-0.1,0v0 M153.3,318.8L153.3,318.8L153.3,318.8L153.3,318.8z"/>
	<path class="st1" d="M153.3,253.9L153.3,253.9l-0.1,0l-0.1,0l-0.1,0l-0.1,0l-0.1,0l-0.1,0l-0.1,0l-0.1,0l-0.1,0l-0.1,0l-0.1,0
		l-0.1,0l-0.1,0l-0.1,0l-0.1,0l-0.1,0v0l-0.1,0l-0.1,0l-0.1,0l-0.1-0.1l-0.1-0.1l-0.1-0.1l-0.1-0.1l-0.1-0.1l-0.1-0.1l-0.1-0.1
		l-0.1-0.1v0l-0.1-0.1l-0.1-0.1l-0.1-0.1l-0.1-0.1v0l-0.1-0.1l-0.1-0.1l-0.1-0.1v0l-0.1-0.1v0l-0.1-0.1v0l-0.1-0.1l-0.1-0.1v0
		l-0.1-0.1l-0.1-0.1l-0.1-0.1v0l-0.1-0.1l-0.1-0.1l-0.1-0.1l-0.1-0.1v0l0-0.1v0l0-0.1v0l0-0.1v0l0-0.1v0l0-0.1v0l0-0.1v0l0-0.1v0
		l0-0.1v0l0-0.1l0-0.1v0l0-0.1v0l0-0.1v0l0-0.1v0l0-0.1v0l0-0.1v0l0-0.1v0l0-0.1v0l0-0.1v0l0-0.1v0v-8.1v0l0-0.1v0l0-0.1v0l0-0.1
		l0-0.1v0l0-0.1v0l0-0.1l0-0.1l0-0.1l0-0.1l0-0.1l0-0.1l0-0.1l0-0.1l0-0.1v0l0-0.1l0-0.1l0-0.1l0-0.1v0l0-0.1l0.1-0.1l0.1-0.1
		l0.1-0.1l0.1-0.1v0l0.1-0.1l0.1-0.1l0.1-0.1l0.1-0.1l0.1-0.1l0.1-0.1v0l0.1-0.1l0.1-0.1l0.1-0.1l0.1-0.1l0.1-0.1l0.1-0.1l0.1-0.1
		l0.1-0.1v0l0.1-0.1l0.1-0.1l0.1-0.1l0.1-0.1l0.1-0.1l0.1-0.1l0.1-0.1l0.1-0.1l0.1,0l0.1,0v0l0.1,0l0.1,0v0l0.1,0v0l0.1,0v0l0.1,0
		l0.1,0v0l0.1,0v0l0.1,0v0l0.1,0v0l0.1,0v0l0.1,0v0l0.1,0v0l0.1,0v0l0.1,0v0l0.1,0v0l0.1,0v0l0.1,0v0v0l0.1,0v0l0.1,0v0l0.1,0v0
		l0.1,0v0l0.1,0v0l0.1,0v0l0.1,0v0l0.1,0v0l0.1,0v0l0.1,0v0l0.1,0v0l0.1,0l0.1,0v0l0.1,0v0l0.1,0v0l0.1,0l0.1,0v0l0.1,0l0.1,0
		l0.1,0.1l0.1,0.1l0.1,0.1l0.1,0.1l0.1,0.1l0.1,0.1l0.1,0.1l0.1,0.1v0l0.1,0.1l0.1,0.1l0.1,0.1l0.1,0.1l0.1,0.1l0.1,0.1l0.1,0.1
		l0.1,0.1v0l0.1,0.1l0.1,0.1l0.1,0.1l0.1,0.1l0.1,0.1l0.1,0.1v0l0.1,0.1l0.1,0.1l0.1,0.1l0.1,0.1l0,0.1v0l0,0.1l0,0.1l0,0.1l0,0.1v0
		l0,0.1l0,0.1l0,0.1l0,0.1l0,0.1l0,0.1l0,0.1l0,0.1l0,0.1v0l0,0.1v0l0,0.1l0,0.1v0l0,0.1v0l0,0.1v0v8.1v0l0,0.1v0l0,0.1v0l0,0.1v0
		l0,0.1v0l0,0.1v0l0,0.1v0l0,0.1v0l0,0.1v0l0,0.1v0l0,0.1l0,0.1v0l0,0.1v0l0,0.1v0l0,0.1v0l0,0.1v0l0,0.1v0l0,0.1v0l0,0.1v0l0,0.1v0
		l-0.1,0.1l-0.1,0.1l-0.1,0.1l-0.1,0.1v0l-0.1,0.1l-0.1,0.1l-0.1,0.1v0l-0.1,0.1l-0.1,0.1v0l-0.1,0.1v0l-0.1,0.1v0l-0.1,0.1
		l-0.1,0.1l-0.1,0.1v0l-0.1,0.1l-0.1,0.1l-0.1,0.1l-0.1,0.1v0l-0.1,0.1L156,253l-0.1,0.1l-0.1,0.1l-0.1,0.1l-0.1,0.1l-0.1,0.1
		l-0.1,0.1l-0.1,0l-0.1,0l-0.1,0v0l-0.1,0l-0.1,0l-0.1,0l-0.1,0l-0.1,0l-0.1,0l-0.1,0l-0.1,0l-0.1,0l-0.1,0l-0.1,0l-0.1,0l-0.1,0
		l-0.1,0l-0.1,0L153.3,253.9z M153.3,189L153.3,189L153.3,189l-0.1,0v0l-0.1,0v0l-0.1,0v0l-0.1,0v0l-0.1,0v0l-0.1,0v0l-0.1,0v0
		l-0.1,0v0l-0.1,0v0l-0.1,0v0l-0.1,0v0l-0.1,0v0l-0.1,0v0l-0.1,0v0l-0.1,0v0c-0.1,0-0.1-0.1-0.2-0.1v0l-0.1,0v0l-0.1,0v0l-0.1-0.1v0
		l-0.1-0.1v0l-0.1-0.1v0l-0.1-0.1v0l-0.1-0.1v0l-0.1-0.1v0l-0.1-0.1v0c-0.1,0-0.1-0.1-0.2-0.1v0l-0.1-0.1v0l-0.1-0.1v0l-0.1-0.1v0
		l-0.1-0.1v0l-0.1-0.1v0c-0.1-0.1-0.1-0.1-0.1-0.2v0l-0.1-0.1v0l-0.1-0.1v0c0-0.1-0.1-0.1-0.1-0.2v0l-0.1-0.1v0l-0.1-0.1v0l-0.1-0.1
		v0l-0.1-0.1v0l-0.1-0.1v0l-0.1-0.1v0l0-0.1v0l0-0.1v0l0-0.1v0l0-0.1v0l0-0.1v0l0-0.1v0l0-0.1v0l0-0.1v0l0-0.1l0-0.1l0-0.1v0l0-0.1
		v0l0-0.1v0l0-0.1l0-0.1l0-0.1v0l0-0.1v0l0-0.1l0-0.1v-8.1v0l0-0.1v0l0-0.1v0l0-0.1v0l0-0.1v0l0-0.1v0l0-0.1v0l0-0.1v0l0-0.1v0
		l0-0.1v0l0-0.1v0l0-0.1v0l0-0.1v0l0-0.1l0-0.1l0-0.1v0l0-0.1v0l0-0.1v0l0-0.1l0-0.1v0l0.1-0.1l0.1-0.1l0.1-0.1l0.1-0.1l0.1-0.1
		l0.1-0.1l0.1-0.1l0.1-0.1l0.1-0.1l0.1-0.1l0.1-0.1l0.1-0.1l0.1-0.1l0.1-0.1l0.1-0.1l0.1-0.1l0.1-0.1l0.1-0.1l0.1-0.1l0.1-0.1
		l0.1-0.1l0.1-0.1l0.1-0.1l0.1-0.1l0.1-0.1l0.1-0.1l0.1,0l0.1,0l0.1,0v0l0.1,0l0.1,0l0.1,0l0.1,0l0.1,0l0.1,0l0.1,0l0.1,0l0.1,0
		l0.1,0l0.1,0l0.1,0l0.1,0l0.1,0l0.1,0l0.1,0l0.1,0l0.1,0l0.1,0l0.1,0l0.1,0l0.1,0l0.1,0l0.1,0l0.1,0l0.1,0l0.1,0l0.1,0l0.1,0l0.1,0
		l0.1,0l0.1,0v0l0.1,0l0.1,0l0.1,0l0.1,0.1l0.1,0.1l0.1,0.1l0.1,0.1l0.1,0.1l0.1,0.1l0.1,0.1l0.1,0.1l0.1,0.1l0.1,0.1l0.1,0.1
		l0.1,0.1l0.1,0.1l0.1,0.1l0.1,0.1l0.1,0.1l0.1,0.1l0.1,0.1l0.1,0.1l0.1,0.1l0.1,0.1l0.1,0.1l0.1,0.1l0.1,0.1l0.1,0.1l0.1,0.1v0
		l0,0.1l0,0.1v0l0,0.1v0l0,0.1v0l0,0.1l0,0.1l0,0.1v0l0,0.1v0l0,0.1v0l0,0.1v0l0,0.1v0l0,0.1v0l0,0.1v0l0,0.1v0l0,0.1v0l0,0.1v0
		l0,0.1v0l0,0.1v0l0,0.1v0v8.1l0,0.1l0,0.1v0l0,0.1v0l0,0.1l0,0.1l0,0.1v0l0,0.1v0l0,0.1v0l0,0.1l0,0.1l0,0.1v0l0,0.1v0l0,0.1v0
		l0,0.1v0l0,0.1v0l0,0.1v0l0,0.1v0l0,0.1v0l0,0.1v0l-0.1,0.1v0l-0.1,0.1v0l-0.1,0.1v0l-0.1,0.1v0l-0.1,0.1v0l-0.1,0.1v0
		c0,0.1-0.1,0.1-0.1,0.2v0l-0.1,0.1v0l-0.1,0.1v0c0,0.1-0.1,0.1-0.1,0.2v0l-0.1,0.1v0l-0.1,0.1v0l-0.1,0.1v0l-0.1,0.1v0l-0.1,0.1v0
		c-0.1,0-0.1,0.1-0.2,0.1v0l-0.1,0.1v0l-0.1,0.1v0l-0.1,0.1v0l-0.1,0.1v0l-0.1,0.1v0l-0.1,0.1v0l-0.1,0.1v0l-0.1,0v0l-0.1,0v0
		c-0.1,0-0.1,0.1-0.2,0.1v0l-0.1,0v0l-0.1,0v0l-0.1,0v0l-0.1,0v0l-0.1,0v0l-0.1,0v0l-0.1,0v0l-0.1,0v0l-0.1,0v0l-0.1,0v0l-0.1,0v0
		l-0.1,0v0l-0.1,0v0l-0.1,0v0L153.3,189L153.3,189z M153.3,383.8L153.3,383.8l-0.1,0l-0.1,0l-0.1,0l-0.1,0l-0.1,0l-0.1,0l-0.1,0
		l-0.1,0l-0.1,0l-0.1,0l-0.1,0l-0.1,0l-0.1,0l-0.1,0l-0.1,0l-0.1,0l-0.1,0l-0.1,0v0l-0.1,0l-0.1-0.1v0l-0.1-0.1v0l-0.1-0.1v0
		l-0.1-0.1l-0.1-0.1v0l-0.1-0.1l-0.1-0.1v0l-0.1-0.1l-0.1-0.1v0l-0.1-0.1l-0.1-0.1v0l-0.1-0.1l-0.1-0.1l-0.1-0.1v0l-0.1-0.1
		l-0.1-0.1l-0.1-0.1l-0.1-0.1v0l-0.1-0.1l-0.1-0.1v0l-0.1-0.1v0l-0.1-0.1l-0.1-0.1v0l-0.1-0.1l-0.1-0.1l-0.1-0.1l0-0.1l0-0.1l0-0.1
		l0-0.1l0-0.1l0-0.1v0l0-0.1l0-0.1l0-0.1l0-0.1v0l0-0.1l0-0.1l0-0.1l0-0.1v0l0-0.1v0l0-0.1l0-0.1l0-0.1v0l0-0.1v0v-8.1l0-0.1l0-0.1
		l0-0.1l0-0.1l0-0.1l0-0.1l0-0.1l0-0.1l0-0.1v0l0-0.1v0l0-0.1l0-0.1l0-0.1v0l0-0.1v0l0-0.1l0-0.1l0-0.1l0-0.1v0l0-0.1l0.1-0.1v0
		l0.1-0.1v0l0.1-0.1v0l0.1-0.1v0l0.1-0.1v0l0.1-0.1v0l0.1-0.1l0.1-0.1v0l0.1-0.1v0l0.1-0.1v0l0.1-0.1l0.1-0.1v0l0.1-0.1v0l0.1-0.1v0
		l0.1-0.1v0l0.1-0.1v0l0.1-0.1v0l0.1-0.1l0.1-0.1v0l0.1-0.1v0l0.1-0.1v0l0.1-0.1v0l0.1-0.1v0l0.1-0.1v0l0.1-0.1v0l0.1-0.1v0l0.1,0v0
		l0.1,0v0l0.1,0v0l0.1,0v0l0.1,0v0l0.1,0v0l0.1,0v0l0.1,0v0l0.1,0v0l0.1,0v0l0.1,0v0l0.1,0v0l0.1,0v0l0.1,0v0l0.1,0v0l0.1,0v0l0.1,0
		v0l0.1,0v0l0.1,0v0v0l0.1,0v0l0.1,0v0l0.1,0v0l0.1,0v0l0.1,0v0l0.1,0v0l0.1,0v0l0.1,0v0l0.1,0v0l0.1,0v0l0.1,0v0l0.1,0v0l0.1,0v0
		l0.1,0v0l0.1,0v0l0.1,0v0l0.1,0v0l0.1,0v0l0.1,0v0l0.1,0.1v0l0.1,0.1v0l0.1,0.1v0l0.1,0.1v0l0.1,0.1v0l0.1,0.1v0l0.1,0.1v0l0.1,0.1
		l0.1,0.1v0l0.1,0.1v0l0.1,0.1v0l0.1,0.1v0l0.1,0.1v0l0.1,0.1v0l0.1,0.1l0.1,0.1v0l0.1,0.1v0l0.1,0.1v0l0.1,0.1l0.1,0.1v0l0.1,0.1v0
		l0.1,0.1v0l0.1,0.1v0l0.1,0.1v0l0.1,0.1v0l0.1,0.1l0,0.1v0l0,0.1l0,0.1l0,0.1l0,0.1v0l0,0.1v0l0,0.1l0,0.1l0,0.1v0l0,0.1v0l0,0.1
		l0,0.1l0,0.1l0,0.1l0,0.1l0,0.1l0,0.1l0,0.1l0,0.1v8.1v0l0,0.1v0l0,0.1l0,0.1l0,0.1v0l0,0.1v0l0,0.1l0,0.1l0,0.1l0,0.1v0l0,0.1
		l0,0.1l0,0.1l0,0.1v0l0,0.1l0,0.1l0,0.1l0,0.1l0,0.1l0,0.1l-0.1,0.1l-0.1,0.1l-0.1,0.1v0l-0.1,0.1l-0.1,0.1v0l-0.1,0.1v0l-0.1,0.1
		l-0.1,0.1v0l-0.1,0.1l-0.1,0.1l-0.1,0.1l-0.1,0.1v0l-0.1,0.1l-0.1,0.1l-0.1,0.1v0l-0.1,0.1l-0.1,0.1v0l-0.1,0.1l-0.1,0.1v0
		l-0.1,0.1l-0.1,0.1v0l-0.1,0.1l-0.1,0.1v0l-0.1,0.1v0l-0.1,0.1v0l-0.1,0.1l-0.1,0v0l-0.1,0l-0.1,0l-0.1,0l-0.1,0l-0.1,0l-0.1,0
		l-0.1,0l-0.1,0l-0.1,0l-0.1,0l-0.1,0l-0.1,0l-0.1,0l-0.1,0l-0.1,0l-0.1,0l-0.1,0L153.3,383.8z M153.3,448.7L153.3,448.7
		c-2.5,0-4.6-2-4.6-4.6V436c0-2.5,2-4.6,4.6-4.6c2.5,0,4.6,2,4.6,4.6v8.1C157.9,446.6,155.8,448.7,153.3,448.7z M155.4,318.3
		c-0.1,0-0.1,0.1-0.2,0.1 M156,318c-0.1,0-0.1,0.1-0.2,0.1 M156.2,317.9c-0.1,0-0.1,0.1-0.2,0.1 M156.3,317.7
		c-0.1,0-0.1,0.1-0.2,0.1 M156.5,317.6c-0.1,0.1-0.1,0.1-0.2,0.1 M157,317c0,0.1-0.1,0.1-0.1,0.2 M157.3,316.5
		c0,0.1-0.1,0.1-0.1,0.2 M149.4,316.5L149.4,316.5L149.4,316.5L149.4,316.5l-0.1-0.2v0l0-0.1v0l0-0.1v0l0-0.1v0l0-0.1v0l0-0.1v0
		l0-0.1l0-0.1v0l0-0.1v0l0-0.1v0l0-0.1l0-0.1v0l0-0.1v0l0-0.1v0l0-0.1l0-0.1l0-0.1v0l0-0.1v0l0-0.1l0-0.1v-8.1v0l0-0.1v0l0-0.1v0
		l0-0.1v0l0-0.1v0l0-0.1v0l0-0.1v0l0-0.1v0l0-0.1v0l0-0.1v0l0-0.1v0l0-0.1v0l0-0.1v0l0-0.1v0l0-0.1v0l0-0.1v0l0-0.1v0l0-0.1v0l0-0.1
		v0l0-0.1v0l0.1-0.1v0l0.1-0.1v0l0.1-0.1v0c0-0.1,0.1-0.1,0.1-0.2v0l0.1-0.1v0c0-0.1,0.1-0.1,0.1-0.2v0l0.1-0.1v0
		c0.1-0.1,0.1-0.2,0.2-0.2v0l0.1-0.1v0l0.1-0.1v0l0.1-0.1v0l0.1-0.1v0l0.1-0.1v0l0.1-0.1v0l0.1-0.1v0l0.1-0.1v0l0.1-0.1v0l0.1-0.1v0
		l0.1-0.1v0l0.1-0.1v0l0.1-0.1v0l0.1-0.1v0l0.1,0v0l0.1,0l0.1,0v0l0.1,0l0.1,0l0.1,0l0.1,0v0l0.1,0l0.1,0l0.1,0l0.1,0l0.1,0l0.1,0
		l0.1,0l0.1,0l0.1,0l0.1,0l0.1,0l0.1,0l0.1,0l0.1,0l0.1,0l0.1,0l0.1,0l0.1,0l0.1,0l0.1,0l0.1,0l0.1,0l0.1,0l0.1,0v0l0.1,0l0.1,0
		l0.1,0l0.1,0v0l0.1,0l0.1,0v0l0.1,0v0l0.1,0.1v0l0.1,0.1v0l0.1,0.1v0l0.1,0.1v0l0.1,0.1v0l0.1,0.1v0l0.1,0.1v0l0.1,0.1v0l0.1,0.1v0
		l0.1,0.1v0l0.1,0.1v0l0.1,0.1v0l0.1,0.1v0l0.1,0.1v0c0.1,0.1,0.1,0.2,0.2,0.2v0l0.1,0.1v0c0,0.1,0.1,0.1,0.1,0.2v0l0.1,0.1v0
		c0,0.1,0.1,0.1,0.1,0.2v0l0.1,0.1v0l0.1,0.1v0l0.1,0.1v0l0,0.1v0l0,0.1v0l0,0.1v0l0,0.1v0l0,0.1v0l0,0.1v0l0,0.1v0l0,0.1v0l0,0.1v0
		l0,0.1v0l0,0.1v0l0,0.1v0l0,0.1v0l0,0.1v0l0,0.1v0l0,0.1v0l0,0.1v0l0,0.1v0l0,0.1v0v8.1l0,0.1l0,0.1v0l0,0.1v0l0,0.1l0,0.1l0,0.1v0
		l0,0.1v0l0,0.1v0l0,0.1l0,0.1v0l0,0.1v0l0,0.1v0l0,0.1l0,0.1v0l0,0.1v0l0,0.1v0l0,0.1v0l0,0.1v0l0,0.1v0l-0.1,0.1v0l-0.1,0.1v0
		c0,0.1-0.1,0.1-0.1,0.2v0c-0.1,0.1-0.1,0.2-0.2,0.3v0c0,0.1-0.1,0.1-0.1,0.2v0l-0.1,0.1v0l-0.1,0.1v0c-0.1,0.1-0.2,0.2-0.2,0.2v0
		c-0.1,0.1-0.1,0.1-0.2,0.1v0c-0.1,0-0.1,0.1-0.2,0.1v0c-0.1,0-0.1,0.1-0.2,0.1v0c-0.1,0-0.1,0.1-0.2,0.1v0
		c-0.1,0.1-0.3,0.2-0.4,0.2v0c-0.1,0-0.1,0.1-0.2,0.1v0l-0.1,0v0l-0.1,0v0l-0.1,0v0l-0.1,0v0l-0.1,0v0l-0.1,0v0l-0.1,0v0l-0.1,0v0
		l-0.1,0v0l-0.1,0v0l-0.1,0v0l-0.1,0v0l-0.1,0v0l-0.1,0v0l-0.1,0v0l-0.1,0v0l-0.1,0 M149.7,317L149.7,317c-0.1-0.1-0.1-0.2-0.2-0.3
		v0 M150.2,317.6L150.2,317.6c-0.1-0.1-0.2-0.2-0.2-0.2v0l-0.1-0.1v0l-0.1-0.1v0 M151.3,318.3L151.3,318.3c-0.1-0.1-0.3-0.1-0.4-0.2
		v0 M153.3,318.8l-0.1,0v0l-0.1,0v0l-0.1,0v0l-0.1,0v0l-0.1,0v0l-0.1,0v0l-0.1,0v0l-0.1,0v0l-0.1,0v0l-0.1,0v0l-0.1,0v0l-0.1,0v0
		l-0.1,0v0l-0.1,0v0l-0.1,0v0l-0.1,0v0l-0.1,0v0 M153.3,318.8L153.3,318.8L153.3,318.8L153.3,318.8z"/>
	<line class="st3" x1="137.1" y1="486.2" x2="137.1" y2="521.1"/>
	<line class="st3" x1="451" y1="490.8" x2="451" y2="521.1"/>
	<line class="st3" x1="229.4" y1="505.4" x2="137.1" y2="505.4"/>
	<polygon class="st4" points="147.7,502.6 137.1,505.4 147.7,508.2 	"/>
	<line class="st3" x1="451" y1="505.4" x2="361" y2="505.4"/>
	<polygon class="st4" points="440.4,502.6 451,505.4 440.4,508.2 	"/>
	<path class="st5" d="M359.8,505.5L359.8,505.5c0,8-6.5,14.5-14.5,14.5H242.8c-8,0-14.5-6.5-14.5-14.5c0-8,6.5-14.5,14.5-14.5h102.5
		C353.3,491,359.8,497.5,359.8,505.5"/>
	<line class="st3" x1="500.3" y1="81.8" x2="465.4" y2="81.8"/>
	<line class="st3" x1="495.7" y1="475.1" x2="465.4" y2="475.1"/>
	<line class="st3" x1="481.1" y1="174.1" x2="481.1" y2="81.8"/>
	<polygon class="st4" points="484,92.4 481.1,81.8 478.3,92.4 	"/>
	<line class="st3" x1="481.1" y1="475.1" x2="481.1" y2="385"/>
	<polygon class="st4" points="484,464.5 481.1,475.1 478.3,464.5 	"/>
	<path class="st5" d="M481,344.2L481,344.2c-8,0-14.5-6.5-14.5-14.5V227.2c0-8,6.5-14.5,14.5-14.5c8,0,14.5,6.5,14.5,14.5v102.5
		C495.5,337.7,489,344.2,481,344.2"/>
	<line class="st3" x1="126.3" y1="118.4" x2="136.3" y2="151.9"/>
	<line class="st3" x1="438.5" y1="35.1" x2="447.2" y2="64.3"/>
	<line class="st3" x1="223.2" y1="111" x2="131.8" y2="136.8"/>
	<polygon class="st4" points="141.2,131.2 131.8,136.8 142.7,136.6 	"/>
	<line class="st3" x1="442.7" y1="49.2" x2="353.5" y2="74.3"/>
	<polygon class="st4" points="431.7,49.3 442.7,49.2 433.3,54.8 	"/>
	<path class="st5" d="M352.4,74.8L352.4,74.8c2.3,7.7-2.1,15.7-9.9,17.9l-102.3,28.8c-7.7,2.2-15.9-2.3-18.2-10
		c-2.3-7.7,2.1-15.7,9.9-17.9l102.3-28.8C342,62.6,350.2,67.1,352.4,74.8"/>
	<line class="st3" x1="123.7" y1="166.4" x2="88.8" y2="166.4"/>
	<line class="st3" x1="119.1" y1="475.1" x2="88.8" y2="475.1"/>
	<line class="st3" x1="104.5" y1="233.8" x2="104.5" y2="166.4"/>
	<polygon class="st4" points="107.3,177 104.5,166.4 101.6,177 	"/>
	<line class="st3" x1="104.5" y1="475.1" x2="104.5" y2="409.3"/>
	<polygon class="st4" points="107.3,464.5 104.5,475.1 101.6,464.5 	"/>
	<path class="st5" d="M104.3,385.8L104.3,385.8c-8,0-14.5-6.5-14.5-14.5V268.2c0-8,6.5-14.5,14.5-14.5c8,0,14.5,6.5,14.5,14.5v103.1
		C118.9,379.2,112.3,385.8,104.3,385.8"/>
</g>
<text transform="matrix(1 0 0 1 280.7691 566.7686)" class="st6 st7">A</text>
<text transform="matrix(1 0 0 1 531.7691 314.7686)" class="st6 st7">B</text>
<text transform="matrix(1 0 0 1 256.7691 56.7686)" class="st6 st7">C</text>
<text transform="matrix(1 0 0 1 35.7691 324.7686)" class="st6 st7">D</text>
</svg>
