<?xml version="1.0" encoding="utf-8"?>
<!-- Generator: Adobe Illustrator 20.0.0, SVG Export Plug-In . SVG Version: 6.00 Build 0)  -->
<svg version="1.1" id="Layer_1" xmlns="http://www.w3.org/2000/svg" xmlns:xlink="http://www.w3.org/1999/xlink" x="0px" y="0px"
	 viewBox="0 0 605.8 573.1" style="enable-background:new 0 0 605.8 573.1;" xml:space="preserve">
<style type="text/css">
	.st0{font-family:'MyriadPro-Regular';}
	.st1{font-size:50px;}
	.st2{fill-rule:evenodd;clip-rule:evenodd;fill:#6BA95E;}
	.st3{fill:none;stroke:#000000;stroke-width:0.216;stroke-miterlimit:22.9256;}
	.st4{fill-rule:evenodd;clip-rule:evenodd;fill:#FFFFFF;}
	.st5{fill:none;stroke:#5262A8;stroke-width:0.216;stroke-miterlimit:22.9256;}
	.st6{fill-rule:evenodd;clip-rule:evenodd;fill:#5262A8;}
	.st7{fill-rule:evenodd;clip-rule:evenodd;fill:#B4B5DA;}
	.st8{fill:none;stroke:#000000;stroke-width:0.5669;stroke-miterlimit:22.9256;}
	.st9{clip-path:url(#SVGID_2_);}
	.st10{clip-path:url(#SVGID_4_);}
	.st11{font-family:'Arial-ItalicMT';}
	.st12{font-size:19.287px;}
</style>
<text transform="matrix(1 0 0 1 280.7691 566.7686)" class="st0 st1">A</text>
<text transform="matrix(1 0 0 1 531.7691 314.7686)" class="st0 st1">B</text>
<text transform="matrix(1 0 0 1 256.7691 56.7686)" class="st0 st1">C</text>
<text transform="matrix(1 0 0 1 95 190)" class="st0 st1">d</text>
<text transform="matrix(1 0 0 1 35.7691 324.7686)" class="st0 st1">D</text>
<g>
	<g>
		<path class="st2" d="M467.9,364.9v-96.5h0v-17.5v-17.3l-249.5-67.2v102.1v15.4v3.5h0v30.7v10.3v40v50.3l249.5,67.2V368.4V364.9z
			 M186.2,126.9l313.9,84.6v72.4v72.4v12.2v156.9l-313.9-84.6V296v-12.2V126.9z"/>
		<path class="st3" d="M467.9,364.9v-96.5h0v-17.5v-17.3l-249.5-67.2v102.1v15.4v3.5h0v30.7v10.3v40v50.3l249.5,67.2V368.4V364.9z
			 M186.2,126.9l313.9,84.6v72.4v72.4v12.2v156.9l-313.9-84.6V296v-12.2V126.9z"/>
		<path class="st4" d="M202.3,299L202.3,299c2.5,0,4.6-2,4.6-4.6v-8.1c0-2.5-2-4.6-4.6-4.6c-2.5,0-4.6,2-4.6,4.6v8.1
			C197.7,296.9,199.8,299,202.3,299z M202.3,234L202.3,234c2.5,0,4.6-2,4.6-4.6v-8.1c0-2.5-2-4.6-4.6-4.6c-2.5,0-4.6,2-4.6,4.6v8.1
			C197.7,232,199.8,234,202.3,234z M202.3,169.1L202.3,169.1c2.5,0,4.6-2,4.6-4.6v-8.1c0-2.5-2-4.6-4.6-4.6c-2.5,0-4.6,2-4.6,4.6
			v8.1C197.7,167.1,199.8,169.1,202.3,169.1z M202.3,428.8L202.3,428.8c2.5,0,4.6-2,4.6-4.6v-8.1c0-2.5-2-4.6-4.6-4.6
			c-2.5,0-4.6,2-4.6,4.6v8.1C197.7,426.8,199.8,428.8,202.3,428.8z M202.3,363.9L202.3,363.9c2.5,0,4.6-2,4.6-4.6v-8.1
			c0-2.5-2-4.6-4.6-4.6c-2.5,0-4.6,2-4.6,4.6v8.1C197.7,361.9,199.8,363.9,202.3,363.9z"/>
		<path class="st3" d="M202.3,299L202.3,299c2.5,0,4.6-2,4.6-4.6v-8.1c0-2.5-2-4.6-4.6-4.6c-2.5,0-4.6,2-4.6,4.6v8.1
			C197.7,296.9,199.8,299,202.3,299z M202.3,234L202.3,234c2.5,0,4.6-2,4.6-4.6v-8.1c0-2.5-2-4.6-4.6-4.6c-2.5,0-4.6,2-4.6,4.6v8.1
			C197.7,232,199.8,234,202.3,234z M202.3,169.1L202.3,169.1c2.5,0,4.6-2,4.6-4.6v-8.1c0-2.5-2-4.6-4.6-4.6c-2.5,0-4.6,2-4.6,4.6
			v8.1C197.7,167.1,199.8,169.1,202.3,169.1z M202.3,428.8L202.3,428.8c2.5,0,4.6-2,4.6-4.6v-8.1c0-2.5-2-4.6-4.6-4.6
			c-2.5,0-4.6,2-4.6,4.6v8.1C197.7,426.8,199.8,428.8,202.3,428.8z M202.3,363.9L202.3,363.9c2.5,0,4.6-2,4.6-4.6v-8.1
			c0-2.5-2-4.6-4.6-4.6c-2.5,0-4.6,2-4.6,4.6v8.1C197.7,361.9,199.8,363.9,202.3,363.9z"/>
		<path class="st4" d="M485,372.7L485,372.7c2.5,0,4.6-2,4.6-4.6V360c0-2.5-2-4.6-4.6-4.6c-2.5,0-4.6,2-4.6,4.6v8.1
			C480.5,370.6,482.5,372.7,485,372.7z M485,307.7L485,307.7c2.5,0,4.6-2,4.6-4.6v-8.1c0-2.5-2-4.6-4.6-4.6c-2.5,0-4.6,2-4.6,4.6
			v8.1C480.5,305.7,482.5,307.7,485,307.7z M485,242.8L485,242.8c2.5,0,4.6-2,4.6-4.6v-8.1c0-2.5-2-4.6-4.6-4.6
			c-2.5,0-4.6,2-4.6,4.6v8.1C480.5,240.8,482.5,242.8,485,242.8z M485,502.5L485,502.5c2.5,0,4.6-2,4.6-4.6v-8.1
			c0-2.5-2-4.6-4.6-4.6c-2.5,0-4.6,2-4.6,4.6v8.1C480.5,500.5,482.5,502.5,485,502.5z M485,437.6L485,437.6c2.5,0,4.6-2,4.6-4.6V425
			c0-2.5-2-4.6-4.6-4.6c-2.5,0-4.6,2-4.6,4.6v8.1C480.5,435.6,482.5,437.6,485,437.6z"/>
		<path class="st3" d="M485,372.7L485,372.7c2.5,0,4.6-2,4.6-4.6V360c0-2.5-2-4.6-4.6-4.6c-2.5,0-4.6,2-4.6,4.6v8.1
			C480.5,370.6,482.5,372.7,485,372.7z M485,307.7L485,307.7c2.5,0,4.6-2,4.6-4.6v-8.1c0-2.5-2-4.6-4.6-4.6c-2.5,0-4.6,2-4.6,4.6
			v8.1C480.5,305.7,482.5,307.7,485,307.7z M485,242.8L485,242.8c2.5,0,4.6-2,4.6-4.6v-8.1c0-2.5-2-4.6-4.6-4.6
			c-2.5,0-4.6,2-4.6,4.6v8.1C480.5,240.8,482.5,242.8,485,242.8z M485,502.5L485,502.5c2.5,0,4.6-2,4.6-4.6v-8.1
			c0-2.5-2-4.6-4.6-4.6c-2.5,0-4.6,2-4.6,4.6v8.1C480.5,500.5,482.5,502.5,485,502.5z M485,437.6L485,437.6c2.5,0,4.6-2,4.6-4.6V425
			c0-2.5-2-4.6-4.6-4.6c-2.5,0-4.6,2-4.6,4.6v8.1C480.5,435.6,482.5,437.6,485,437.6z"/>
		<line class="st5" x1="80.2" y1="126.9" x2="115" y2="126.9"/>
		<line class="st5" x1="84.7" y1="440.8" x2="115" y2="440.8"/>
		<line class="st5" x1="99.4" y1="219.2" x2="99.4" y2="126.9"/>
		<polygon class="st6" points="102.2,137.5 99.4,126.9 96.5,137.5 		"/>
		<line class="st5" x1="99.4" y1="440.8" x2="99.4" y2="350.8"/>
		<polygon class="st6" points="102.2,430.2 99.4,440.8 96.5,430.2 		"/>
		<path class="st7" d="M99.5,349.6L99.5,349.6c8,0,14.5-6.5,14.5-14.5V232.6c0-8-6.5-14.5-14.5-14.5c-8,0-14.5,6.5-14.5,14.5v102.5
			C85,343.1,91.5,349.6,99.5,349.6"/>
		<line class="st5" x1="510.9" y1="163.4" x2="500.9" y2="196.9"/>
		<line class="st5" x1="198.7" y1="80.2" x2="190" y2="109.3"/>
		<line class="st5" x1="414" y1="156.1" x2="505.4" y2="181.9"/>
		<polygon class="st6" points="494.4,181.7 505.4,181.9 496,176.3 		"/>
		<line class="st5" x1="194.5" y1="94.3" x2="283.7" y2="119.4"/>
		<polygon class="st6" points="203.9,99.9 194.5,94.3 205.4,94.4 		"/>
		<path class="st7" d="M284.7,119.8L284.7,119.8c-2.3,7.7,2.1,15.7,9.9,17.9l102.3,28.8c7.7,2.2,15.9-2.3,18.2-10
			c2.3-7.7-2.1-15.7-9.9-17.9l-102.3-28.8C295.2,107.7,287,112.2,284.7,119.8"/>
		<line class="st8" x1="500.1" y1="211.5" x2="186.2" y2="211.5"/>
		<line class="st5" x1="130.1" y1="126.9" x2="165" y2="126.9"/>
		<line class="st5" x1="134.7" y1="211.5" x2="165" y2="211.5"/>
		<line class="st5" x1="149.3" y1="169.5" x2="149.3" y2="126.9"/>
		<polygon class="st6" points="152.2,137.5 149.3,126.9 146.5,137.5 		"/>
		<line class="st5" x1="149.3" y1="211.5" x2="149.3" y2="169.9"/>
		<polygon class="st6" points="152.2,200.9 149.3,211.5 146.5,200.9 		"/>
		<path class="st7" d="M149.5,193.6L149.5,193.6c8,0,14.5-6.5,14.5-14.5V162c0-8-6.5-14.5-14.5-14.5s-14.5,6.5-14.5,14.5V179
			C134.9,187,141.5,193.6,149.5,193.6"/>
		<g>
			<defs>
				<rect id="SVGID_1_" x="208.9" y="188.8" width="82.6" height="21.9"/>
			</defs>
			<clipPath id="SVGID_2_">
				<use xlink:href="#SVGID_1_"  style="overflow:visible;"/>
			</clipPath>
			<g class="st9">
				<defs>
					<rect id="SVGID_3_" x="208.9" y="188.8" width="82.6" height="21.9"/>
				</defs>
				<clipPath id="SVGID_4_">
					<use xlink:href="#SVGID_3_"  style="overflow:visible;"/>
				</clipPath>
				<g class="st10">
					<defs>
						<rect id="SVGID_5_" x="208.9" y="188.8" width="82.6" height="22.2"/>
					</defs>
					<clipPath id="SVGID_6_">
						<use xlink:href="#SVGID_5_"  style="overflow:visible;"/>
					</clipPath>
					<g style="clip-path:url(#SVGID_6_);">
						
							<image style="overflow:visible;" width="344" height="92" xlink:href="CAC2D907.jpg"  transform="matrix(-0.2401 0 0 0.241 291.5259 188.8453)">
						</image>
					</g>
				</g>
			</g>
		</g>
		<text transform="matrix(1 0 0 1 226.1355 227.0046)" class="st11 st12">Level</text>
	</g>
</g>
</svg>
