<?xml version="1.0" encoding="utf-8"?>
<!-- Generator: Adobe Illustrator 20.0.0, SVG Export Plug-In . SVG Version: 6.00 Build 0)  -->
<svg version="1.1" id="Layer_1" xmlns="http://www.w3.org/2000/svg" xmlns:xlink="http://www.w3.org/1999/xlink" x="0px" y="0px"
	 viewBox="0 0 605.8 573.1" style="enable-background:new 0 0 605.8 573.1;" xml:space="preserve">
<style type="text/css">
	.st0{font-family:'MyriadPro-Regular';}
	.st1{font-size:50px;}
	.st2{fill-rule:evenodd;clip-rule:evenodd;fill:#6BA95E;}
	.st3{fill:none;stroke:#000000;stroke-width:0.2011;stroke-miterlimit:22.9256;}
	.st4{fill-rule:evenodd;clip-rule:evenodd;fill:#FFFFFF;}
	.st5{fill:none;stroke:#5262A8;stroke-width:0.2011;stroke-miterlimit:22.9256;}
	.st6{fill-rule:evenodd;clip-rule:evenodd;fill:#5262A8;}
	.st7{fill-rule:evenodd;clip-rule:evenodd;fill:#B4B5DA;}
	.st8{fill:none;stroke:#000000;stroke-width:0.5279;stroke-miterlimit:22.9256;}
	.st9{clip-path:url(#SVGID_2_);}
	.st10{clip-path:url(#SVGID_4_);}
	.st11{font-family:'Arial-ItalicMT';}
	.st12{font-size:17.9608px;}
</style>
<text transform="matrix(1 0 0 1 280.7691 536.7667)" class="st0 st1">A</text>
<text transform="matrix(1 0 0 1 531.7691 314.7686)" class="st0 st1">B</text>
<text transform="matrix(1 0 0 1 480 205)" class="st0 st1">b</text>
<text transform="matrix(1 0 0 1 256.7691 86.7705)" class="st0 st1">C</text>
<text transform="matrix(1 0 0 1 35.7691 324.7686)" class="st0 st1">D</text>
<path class="st2" d="M159.9,294v-46.8l232.3-62.6V294v109.4l-232.3-62.6V294z M422.2,147.8l-292.3,78.7V294v67.4l292.3,78.7V294
	V147.8z"/>
<path class="st3" d="M159.9,294v-46.8l232.3-62.6V294v109.4l-232.3-62.6V294z M422.2,147.8l-292.3,78.7V294v67.4l292.3,78.7V294
	V147.8z"/>
<path class="st4" d="M407.3,308.1L407.3,308.1c-2.3,0-4.2-1.9-4.2-4.2v-7.5c0-2.3,1.9-4.2,4.2-4.2c2.3,0,4.2,1.9,4.2,4.2v7.5
	C411.5,306.2,409.6,308.1,407.3,308.1z M407.3,247.6L407.3,247.6c-2.3,0-4.2-1.9-4.2-4.2v-7.5c0-2.3,1.9-4.2,4.2-4.2
	c2.3,0,4.2,1.9,4.2,4.2v7.5C411.5,245.7,409.6,247.6,407.3,247.6z M407.3,187.1L407.3,187.1c-2.3,0-4.2-1.9-4.2-4.2v-7.5
	c0-2.3,1.9-4.2,4.2-4.2c2.3,0,4.2,1.9,4.2,4.2v7.5C411.5,185.2,409.6,187.1,407.3,187.1z M407.3,429L407.3,429
	c-2.3,0-4.2-1.9-4.2-4.2v-7.5c0-2.3,1.9-4.2,4.2-4.2c2.3,0,4.2,1.9,4.2,4.2v7.5C411.5,427.1,409.6,429,407.3,429z M407.3,368.5
	L407.3,368.5c-2.3,0-4.2-1.9-4.2-4.2v-7.5c0-2.3,1.9-4.2,4.2-4.2c2.3,0,4.2,1.9,4.2,4.2v7.5C411.5,366.6,409.6,368.5,407.3,368.5z"
	/>
<path class="st3" d="M407.3,308.1L407.3,308.1c-2.3,0-4.2-1.9-4.2-4.2v-7.5c0-2.3,1.9-4.2,4.2-4.2c2.3,0,4.2,1.9,4.2,4.2v7.5
	C411.5,306.2,409.6,308.1,407.3,308.1z M407.3,247.6L407.3,247.6c-2.3,0-4.2-1.9-4.2-4.2v-7.5c0-2.3,1.9-4.2,4.2-4.2
	c2.3,0,4.2,1.9,4.2,4.2v7.5C411.5,245.7,409.6,247.6,407.3,247.6z M407.3,187.1L407.3,187.1c-2.3,0-4.2-1.9-4.2-4.2v-7.5
	c0-2.3,1.9-4.2,4.2-4.2c2.3,0,4.2,1.9,4.2,4.2v7.5C411.5,185.2,409.6,187.1,407.3,187.1z M407.3,429L407.3,429
	c-2.3,0-4.2-1.9-4.2-4.2v-7.5c0-2.3,1.9-4.2,4.2-4.2c2.3,0,4.2,1.9,4.2,4.2v7.5C411.5,427.1,409.6,429,407.3,429z M407.3,368.5
	L407.3,368.5c-2.3,0-4.2-1.9-4.2-4.2v-7.5c0-2.3,1.9-4.2,4.2-4.2c2.3,0,4.2,1.9,4.2,4.2v7.5C411.5,366.6,409.6,368.5,407.3,368.5z"
	/>
<path class="st4" d="M144.4,271.8L144.4,271.8c-2.3,0-4.2-1.9-4.2-4.2V260c0-2.3,1.9-4.2,4.2-4.2c2.3,0,4.2,1.9,4.2,4.2v7.5
	C148.6,269.8,146.7,271.8,144.4,271.8z M144.4,332.2L144.4,332.2c-2.3,0-4.2-1.9-4.2-4.2v-7.5c0-2.3,1.9-4.2,4.2-4.2
	c2.3,0,4.2,1.9,4.2,4.2v7.5C148.6,330.3,146.7,332.2,144.4,332.2z"/>
<path class="st3" d="M144.4,271.8L144.4,271.8c-2.3,0-4.2-1.9-4.2-4.2V260c0-2.3,1.9-4.2,4.2-4.2c2.3,0,4.2,1.9,4.2,4.2v7.5
	C148.6,269.8,146.7,271.8,144.4,271.8z M144.4,332.2L144.4,332.2c-2.3,0-4.2-1.9-4.2-4.2v-7.5c0-2.3,1.9-4.2,4.2-4.2
	c2.3,0,4.2,1.9,4.2,4.2v7.5C148.6,330.3,146.7,332.2,144.4,332.2z"/>
<line class="st5" x1="521" y1="147.8" x2="488.5" y2="147.8"/>
<line class="st5" x1="516.7" y1="440.1" x2="488.5" y2="440.1"/>
<line class="st5" x1="503.1" y1="233.7" x2="503.1" y2="147.8"/>
<polygon class="st6" points="505.7,157.7 503.1,147.8 500.5,157.7 "/>
<line class="st5" x1="503.1" y1="440.1" x2="503.1" y2="356.3"/>
<polygon class="st6" points="505.7,430.3 503.1,440.1 500.5,430.3 "/>
<path class="st7" d="M503,355.2L503,355.2c-7.4,0-13.5-6.1-13.5-13.5v-95.5c0-7.4,6.1-13.5,13.5-13.5c7.4,0,13.5,6.1,13.5,13.5v95.5
	C516.5,349.2,510.4,355.2,503,355.2"/>
<line class="st5" x1="119.8" y1="181.8" x2="129.2" y2="213"/>
<line class="st5" x1="410.6" y1="104.4" x2="418.7" y2="131.5"/>
<line class="st5" x1="210.1" y1="175" x2="125" y2="199"/>
<polygon class="st6" points="133.7,193.8 125,199 135.2,198.9 "/>
<line class="st5" x1="414.5" y1="117.4" x2="331.5" y2="140.8"/>
<polygon class="st6" points="404.3,117.6 414.5,117.4 405.8,122.6 "/>
<path class="st7" d="M330.5,141.2L330.5,141.2c2.1,7.1-2,14.7-9.2,16.7L226,184.8c-7.2,2-14.8-2.2-16.9-9.3
	c-2.1-7.1,2-14.7,9.2-16.7l95.3-26.8C320.7,129.9,328.3,134.1,330.5,141.2"/>
<line class="st5" x1="119.8" y1="404.5" x2="129.2" y2="373.3"/>
<line class="st5" x1="410.6" y1="482" x2="418.7" y2="454.9"/>
<line class="st5" x1="210.1" y1="411.1" x2="125" y2="387.1"/>
<polygon class="st6" points="135.2,387.2 125,387.1 133.7,392.3 "/>
<line class="st5" x1="414.5" y1="469" x2="331.5" y2="445.6"/>
<polygon class="st6" points="405.8,463.7 414.5,469 404.3,468.8 "/>
<path class="st7" d="M330.5,444.9L330.5,444.9c2.1-7.1-2-14.7-9.2-16.7L226,401.4c-7.2-2-14.8,2.2-16.9,9.3
	c-2.1,7.1,2,14.7,9.2,16.7l95.3,26.8C320.7,456.2,328.3,452,330.5,444.9"/>
<line class="st5" x1="120.1" y1="226.6" x2="87.6" y2="226.6"/>
<line class="st5" x1="115.8" y1="361.4" x2="87.6" y2="361.4"/>
<line class="st5" x1="102.2" y1="266.2" x2="102.2" y2="226.6"/>
<polygon class="st6" points="104.8,236.4 102.2,226.6 99.5,236.4 "/>
<line class="st5" x1="102.2" y1="361.4" x2="102.2" y2="322.7"/>
<polygon class="st6" points="104.8,351.5 102.2,361.4 99.5,351.5 "/>
<path class="st7" d="M102.1,322.7L102.1,322.7c-7.4,0-13.5-6.1-13.5-13.5v-31.5c0-7.4,6.1-13.5,13.5-13.5c7.4,0,13.5,6.1,13.5,13.5
	v31.5C115.6,316.6,109.5,322.7,102.1,322.7"/>
<line class="st8" x1="129.9" y1="226.6" x2="422.2" y2="226.6"/>
<line class="st5" x1="474.4" y1="147.8" x2="441.9" y2="147.8"/>
<line class="st5" x1="470.2" y1="226.6" x2="441.9" y2="226.6"/>
<line class="st5" x1="456.6" y1="187.5" x2="456.6" y2="147.8"/>
<polygon class="st6" points="459.2,157.7 456.6,147.8 453.9,157.7 "/>
<line class="st5" x1="456.6" y1="226.6" x2="456.6" y2="187.9"/>
<polygon class="st6" points="459.2,216.7 456.6,226.6 453.9,216.7 "/>
<path class="st7" d="M456.4,209.9L456.4,209.9c-7.4,0-13.5-6.1-13.5-13.5v-15.9c0-7.4,6.1-13.5,13.5-13.5c7.4,0,13.5,6.1,13.5,13.5
	v15.9C470,203.8,463.9,209.9,456.4,209.9"/>
<g>
	<defs>
		<rect id="SVGID_1_" x="324.1" y="205.5" width="76.9" height="20.4"/>
	</defs>
	<clipPath id="SVGID_2_">
		<use xlink:href="#SVGID_1_"  style="overflow:visible;"/>
	</clipPath>
	<g class="st9">
		<defs>
			<rect id="SVGID_3_" x="324.1" y="205.5" width="76.9" height="20.4"/>
		</defs>
		<clipPath id="SVGID_4_">
			<use xlink:href="#SVGID_3_"  style="overflow:visible;"/>
		</clipPath>
		<g class="st10">
			<defs>
				<rect id="SVGID_5_" x="324.1" y="205.5" width="76.9" height="20.6"/>
			</defs>
			<clipPath id="SVGID_6_">
				<use xlink:href="#SVGID_5_"  style="overflow:visible;"/>
			</clipPath>
			<g style="clip-path:url(#SVGID_6_);">
				
					<image style="overflow:visible;" width="344" height="92" xlink:href="A13D2EC4.jpg"  transform="matrix(0.2236 0 0 0.2244 324.1331 205.5056)">
				</image>
			</g>
		</g>
	</g>
</g>
<text transform="matrix(1 0 0 1 340.5506 241.0407)" class="st11 st12">Level</text>
</svg>
